{"glyphs":{"0":{"ha":628,"x_min":72,"x_max":556,"o":"m 428 724 q 314 840 428 840 q 200 724 200 840 l 200 217 q 314 101 200 101 q 428 217 428 101 l 428 724 m 72 726 q 132 892 72 831 q 314 954 192 954 q 496 892 436 954 q 556 726 556 831 l 556 214 q 496 48 556 110 q 314 -14 436 -14 q 132 48 192 -14 q 72 214 72 110 l 72 726 z "},"1":{"ha":401,"x_min":17,"x_max":315,"o":"m 315 940 l 315 0 l 186 0 l 186 799 l 17 676 l 17 819 l 185 940 l 315 940 z "},"2":{"ha":572,"x_min":57,"x_max":511,"o":"m 251 947 q 511 740 511 947 l 511 661 q 487 537 511 586 q 404 447 463 488 l 293 364 q 207 286 228 317 q 186 199 186 256 l 186 115 l 510 115 l 510 0 l 57 0 l 57 208 q 92 345 57 293 q 197 444 126 397 l 315 535 q 368 592 354 561 q 382 676 382 624 l 382 731 q 354 805 382 781 q 241 829 326 829 q 72 799 156 829 l 72 922 q 251 947 154 947 z "},"3":{"ha":556,"x_min":36,"x_max":483,"o":"m 217 949 q 479 739 479 949 l 479 643 q 379 475 479 514 q 483 317 483 447 l 483 203 q 418 48 483 103 q 230 -7 353 -7 q 36 19 107 -7 l 36 142 q 207 110 121 110 q 324 136 293 110 q 354 213 354 163 l 354 301 q 328 385 354 357 q 240 413 301 413 l 142 413 l 142 531 l 239 531 q 325 560 300 531 q 350 646 350 589 l 350 729 q 320 806 350 779 q 206 832 290 832 q 54 808 122 832 l 54 929 q 217 949 119 949 z "},"4":{"ha":585,"x_min":14,"x_max":578,"o":"m 578 285 l 578 171 l 483 171 l 483 0 l 361 0 l 361 171 l 14 171 l 14 289 l 303 940 l 483 940 l 483 285 l 578 285 m 365 285 l 365 824 l 129 285 l 365 285 z "},"5":{"ha":590,"x_min":74,"x_max":525,"o":"m 79 940 l 500 940 l 500 822 l 207 822 l 207 563 q 311 568 256 568 q 472 514 418 568 q 525 358 525 460 l 525 201 q 459 48 525 103 q 274 -7 393 -7 q 74 22 156 -7 l 74 144 q 257 110 172 110 q 396 211 396 110 l 396 346 q 371 426 396 401 q 282 451 346 451 q 79 438 263 451 l 79 940 z "},"6":{"ha":613,"x_min":72,"x_max":556,"o":"m 428 383 q 319 483 428 483 q 200 457 244 483 l 200 215 q 314 100 200 100 q 428 215 428 100 l 428 383 m 72 717 q 137 883 72 819 q 322 947 201 947 q 518 922 443 947 l 518 800 q 339 829 444 829 q 200 707 200 829 l 200 571 q 350 596 257 596 q 499 543 443 596 q 556 392 556 490 l 556 214 q 496 48 556 110 q 314 -14 436 -14 q 132 48 192 -14 q 72 214 72 110 l 72 717 z "},"7":{"ha":478,"x_min":7,"x_max":449,"o":"m 7 940 l 449 940 l 449 839 l 349 529 q 281 139 281 311 l 281 0 l 151 0 l 151 146 q 221 543 151 332 l 308 824 l 7 824 l 7 940 z "},"8":{"ha":640,"x_min":72,"x_max":567,"o":"m 564 732 l 564 639 q 476 469 564 517 q 567 297 567 421 l 567 208 q 505 46 567 106 q 319 -14 443 -14 q 134 46 196 -14 q 72 208 72 106 l 72 297 q 163 469 72 421 q 75 639 75 517 l 75 732 q 135 894 75 835 q 319 954 196 954 q 503 894 443 954 q 564 732 564 835 m 201 732 l 201 636 q 319 521 201 521 q 438 636 438 521 l 438 732 q 319 843 438 843 q 201 732 201 843 m 440 210 l 440 301 q 320 417 440 417 q 200 301 200 417 l 200 210 q 320 97 200 97 q 440 210 440 97 z "},"9":{"ha":613,"x_min":58,"x_max":540,"o":"m 413 725 q 388 812 413 782 q 300 842 363 842 q 212 812 238 842 q 186 725 186 782 l 186 553 q 293 446 186 446 q 413 472 372 446 l 413 725 m 58 726 q 117 892 58 831 q 299 954 176 954 q 481 892 422 954 q 540 726 540 831 l 540 211 q 474 52 540 111 q 285 -7 407 -7 q 86 21 164 -7 l 86 143 q 272 110 171 110 q 413 221 413 110 l 413 358 q 265 333 361 333 q 113 388 168 333 q 58 542 58 443 l 58 726 z "},"\r":{"ha":0,"x_min":0,"x_max":0,"o":""}," ":{"ha":261,"x_min":0,"x_max":0,"o":""},"!":{"ha":375,"x_min":113,"x_max":263,"o":"m 263 66 q 263 28 263 66 q 188 -10 263 -10 q 113 66 113 -10 q 188 142 113 142 q 263 66 263 142 m 118 940 l 256 940 l 239 257 l 135 257 l 118 940 z "},"\"":{"ha":536,"x_min":114,"x_max":418,"o":"m 114 1046 l 225 1046 l 225 736 l 114 736 l 114 1046 m 307 1046 l 418 1046 l 418 736 l 307 736 l 307 1046 z "},"#":{"ha":774,"x_min":51,"x_max":731,"o":"m 731 586 l 613 586 l 576 338 l 681 338 l 681 239 l 563 239 l 528 0 l 415 0 l 450 239 l 271 239 l 236 0 l 125 0 l 160 239 l 51 239 l 51 338 l 174 338 l 210 586 l 101 586 l 101 685 l 224 685 l 258 924 l 369 924 l 335 685 l 515 685 l 550 924 l 661 924 l 626 685 l 731 685 l 731 586 m 464 338 l 501 586 l 321 586 l 285 338 l 464 338 z "},"$":{"ha":557,"x_min":36,"x_max":518,"o":"m 518 281 l 518 203 q 324 -1 518 32 l 324 -96 l 206 -96 l 206 -6 q 44 22 107 -1 l 44 144 q 238 111 136 111 q 390 215 390 111 l 390 263 q 374 328 390 304 q 317 375 358 351 l 160 460 q 36 658 36 528 l 36 742 q 217 942 36 911 l 217 1026 l 336 1026 l 336 946 q 476 924 424 942 l 476 801 q 296 829 404 829 q 165 732 165 829 l 165 678 q 183 606 165 632 q 244 556 200 579 l 406 467 q 518 281 518 404 z "},"%":{"ha":844,"x_min":49,"x_max":796,"o":"m 629 -11 q 464 198 464 -11 q 629 407 464 407 q 754 352 713 407 q 796 199 796 297 q 754 44 796 100 q 629 -11 713 -11 m 558 198 q 558 138 558 198 q 629 78 558 78 q 700 198 700 78 q 629 318 700 318 q 558 198 558 318 m 90 590 q 69 618 90 590 q 49 744 49 646 q 90 898 49 843 q 215 953 132 953 q 381 744 381 953 q 215 535 381 535 q 90 590 132 535 m 215 622 q 250 622 215 622 q 285 743 285 622 q 215 864 285 864 q 144 743 144 864 q 215 622 144 622 m 574 940 l 665 940 l 272 0 l 179 0 l 574 940 z "},"&":{"ha":653,"x_min":74,"x_max":635,"o":"m 635 540 l 635 429 l 574 429 l 574 217 q 512 51 574 113 q 326 -11 450 -11 q 138 51 203 -11 q 74 217 74 114 l 74 321 q 179 488 74 450 q 75 656 75 526 l 75 735 q 144 891 75 833 q 351 949 213 949 q 526 925 453 949 l 526 803 q 363 829 456 829 q 236 801 269 829 q 203 724 203 774 l 203 657 q 311 540 203 540 l 449 540 l 449 625 l 574 625 l 574 540 l 635 540 m 449 218 l 449 429 l 314 429 q 201 315 201 429 l 201 218 q 233 133 201 164 q 326 101 264 101 q 449 218 449 101 z "},"'":{"ha":344,"x_min":114,"x_max":229,"o":"m 114 1046 l 229 1046 l 229 736 l 114 736 l 114 1046 z "},"(":{"ha":421,"x_min":93,"x_max":342,"o":"m 243 799 q 224 712 243 799 q 206 456 206 625 q 243 113 206 286 q 342 -201 281 -61 l 229 -201 q 131 106 168 -71 q 93 456 93 283 q 131 806 93 629 q 229 1111 168 982 l 342 1111 q 243 799 281 972 z "},")":{"ha":422,"x_min":79,"x_max":328,"o":"m 190 1111 q 290 806 251 982 q 328 456 328 629 q 290 106 328 283 q 190 -201 251 -71 l 79 -201 q 178 113 140 -61 q 215 456 215 286 q 178 799 215 625 q 79 1111 140 972 l 190 1111 z "},"*":{"ha":710,"x_min":72,"x_max":642,"o":"m 299 974 l 299 1110 l 414 1110 l 414 974 q 403 893 414 924 q 476 928 429 911 l 606 971 l 642 863 l 513 819 q 431 806 471 806 q 488 746 458 785 l 568 636 l 475 568 l 396 678 q 356 750 368 715 q 317 678 342 711 l 238 568 l 146 636 l 225 744 q 283 806 251 781 q 200 819 242 806 l 72 861 l 107 971 l 236 929 q 310 893 279 914 q 299 974 299 926 z "},"+":{"ha":636,"x_min":60,"x_max":575,"o":"m 575 508 l 575 400 l 376 400 l 376 194 l 258 194 l 258 400 l 60 400 l 60 508 l 258 508 l 258 713 l 376 713 l 376 508 l 575 508 z "},",":{"ha":229,"x_min":13,"x_max":194,"o":"m 135 140 q 194 86 194 140 q 85 -178 194 14 l 13 -178 l 71 140 l 135 140 z "},"-":{"ha":349,"x_min":56,"x_max":300,"o":"m 56 508 l 300 508 l 300 400 l 56 400 l 56 508 z "},".":{"ha":244,"x_min":46,"x_max":197,"o":"m 122 -10 q 84 -10 122 -10 q 46 66 46 -10 q 122 142 46 142 q 197 66 197 142 q 122 -10 197 -10 z "},"/":{"ha":554,"x_min":47,"x_max":526,"o":"m 413 1113 l 526 1113 l 160 -201 l 47 -201 l 413 1113 z "},":":{"ha":301,"x_min":46,"x_max":197,"o":"m 122 -10 q 84 -10 122 -10 q 46 66 46 -10 q 122 142 46 142 q 197 66 197 142 q 122 -10 197 -10 m 122 476 q 84 476 122 476 q 46 552 46 476 q 122 628 46 628 q 197 552 197 628 q 122 476 197 476 z "},";":{"ha":301,"x_min":13,"x_max":197,"o":"m 122 476 q 84 476 122 476 q 46 552 46 476 q 122 628 46 628 q 197 552 197 628 q 122 476 197 476 m 135 140 q 194 86 194 140 q 85 -178 194 14 l 13 -178 l 71 140 l 135 140 z "},"<":{"ha":658,"x_min":56,"x_max":579,"o":"m 579 714 l 579 599 l 167 453 l 579 308 l 579 193 l 56 390 l 56 515 l 579 714 z "},"=":{"ha":631,"x_min":51,"x_max":575,"o":"m 51 378 l 575 378 l 575 271 l 51 271 l 51 378 m 51 636 l 575 636 l 575 528 l 51 528 l 51 636 z "},">":{"ha":656,"x_min":72,"x_max":596,"o":"m 72 714 l 596 515 l 596 390 l 72 193 l 72 308 l 485 453 l 72 599 l 72 714 z "},"?":{"ha":543,"x_min":44,"x_max":476,"o":"m 205 -10 q 167 -10 205 -10 q 129 66 129 -10 q 205 142 129 142 q 281 66 281 142 q 205 -10 281 -10 m 217 954 q 476 749 476 954 l 476 618 q 428 459 476 515 q 265 401 379 403 l 258 257 l 150 257 l 143 503 l 221 503 q 322 531 292 503 q 353 619 353 560 l 353 739 q 324 813 353 789 q 206 836 296 836 q 44 810 115 836 l 44 933 q 217 954 128 954 z "},"@":{"ha":1213,"x_min":96,"x_max":1128,"o":"m 735 -167 l 613 -167 q 206 -17 324 -167 q 122 156 147 58 q 96 384 96 253 q 122 613 96 515 q 208 786 149 711 q 613 936 328 936 q 1013 800 897 936 q 1128 394 1128 664 q 1067 115 1128 200 q 889 31 1006 31 q 726 104 772 31 q 583 67 672 67 q 408 224 408 67 l 408 250 q 444 358 408 319 q 554 421 481 396 l 696 467 l 696 546 q 677 607 696 586 q 601 628 658 628 q 439 603 544 628 l 439 696 q 607 718 535 718 q 799 549 799 718 l 799 233 q 822 153 799 178 q 901 129 846 129 q 988 188 957 129 q 1018 376 1018 247 q 1001 581 1018 506 q 942 717 985 657 q 613 835 856 835 q 283 711 371 835 q 224 572 240 649 q 207 385 207 494 q 224 198 207 275 q 286 58 242 121 q 613 -64 372 -64 l 735 -64 l 735 -167 m 514 251 l 514 224 q 592 156 514 156 q 683 178 649 156 l 696 186 l 696 372 l 593 342 q 531 309 549 326 q 514 251 514 292 z "},"A":{"ha":626,"x_min":19,"x_max":608,"o":"m 482 0 l 431 250 l 196 250 l 144 0 l 19 0 l 224 940 l 404 940 l 608 0 l 482 0 m 218 361 l 407 361 l 313 822 l 218 361 z "},"B":{"ha":658,"x_min":86,"x_max":586,"o":"m 578 728 l 578 646 q 476 475 578 513 q 586 301 586 440 l 586 214 q 528 55 586 110 q 358 0 471 0 l 86 0 l 86 940 l 350 940 q 520 885 463 940 q 578 728 578 831 m 336 831 l 214 831 l 214 531 l 336 531 q 451 640 451 531 l 451 721 q 336 831 451 831 m 460 219 l 460 307 q 344 417 460 417 l 214 417 l 214 110 l 344 110 q 460 219 460 110 z "},"C":{"ha":554,"x_min":72,"x_max":507,"o":"m 72 740 q 138 893 72 839 q 339 947 204 947 q 504 926 429 947 l 504 808 q 342 832 421 832 q 233 806 264 832 q 201 732 201 781 l 201 208 q 233 134 201 160 q 349 108 264 108 q 507 132 433 108 l 507 15 q 338 -7 438 -7 q 72 200 72 -7 l 72 740 z "},"D":{"ha":657,"x_min":86,"x_max":583,"o":"m 456 726 q 344 833 456 833 l 214 833 l 214 111 l 344 111 q 456 224 456 111 l 456 726 m 86 940 l 357 940 q 526 885 468 940 q 583 731 583 829 l 583 215 q 529 58 583 115 q 361 0 475 0 l 86 0 l 86 940 z "},"E":{"ha":561,"x_min":86,"x_max":514,"o":"m 86 940 l 514 940 l 514 829 l 214 829 l 214 531 l 475 531 l 475 419 l 214 419 l 214 113 l 514 113 l 514 0 l 86 0 l 86 940 z "},"F":{"ha":526,"x_min":86,"x_max":501,"o":"m 86 940 l 501 940 l 501 828 l 215 828 l 215 508 l 486 508 l 486 394 l 215 394 l 215 0 l 86 0 l 86 940 z "},"G":{"ha":631,"x_min":72,"x_max":556,"o":"m 72 733 q 141 890 72 833 q 349 947 210 947 q 525 924 451 947 l 525 801 q 351 831 438 831 q 201 724 201 831 l 201 210 q 325 108 201 108 q 431 132 394 108 l 431 474 l 556 474 l 556 49 q 331 -7 457 -7 q 72 200 72 -7 l 72 733 z "},"H":{"ha":701,"x_min":86,"x_max":614,"o":"m 485 940 l 614 940 l 614 0 l 485 0 l 485 404 l 215 404 l 215 0 l 86 0 l 86 940 l 215 940 l 215 519 l 485 519 l 485 940 z "},"I":{"ha":303,"x_min":86,"x_max":215,"o":"m 86 940 l 215 940 l 215 0 l 86 0 l 86 940 z "},"J":{"ha":306,"x_min":-4,"x_max":218,"o":"m 90 940 l 218 940 l 218 278 q 172 -62 218 100 l 129 -207 l -4 -207 l 38 -61 q 90 276 90 119 l 90 940 z "},"K":{"ha":621,"x_min":86,"x_max":601,"o":"m 86 940 l 214 940 l 214 0 l 86 0 l 86 940 m 451 940 l 589 940 l 399 476 l 601 0 l 460 0 l 263 474 l 451 940 z "},"L":{"ha":499,"x_min":86,"x_max":492,"o":"m 86 940 l 215 940 l 215 110 l 492 110 l 492 0 l 86 0 l 86 940 z "},"M":{"ha":863,"x_min":86,"x_max":776,"o":"m 776 940 l 776 0 l 653 0 l 653 450 q 667 729 653 593 l 490 247 l 371 247 l 194 729 q 208 451 208 599 l 208 0 l 86 0 l 86 940 l 229 940 l 431 381 l 632 940 l 776 940 z "},"N":{"ha":706,"x_min":86,"x_max":619,"o":"m 493 940 l 619 940 l 619 0 l 482 0 q 227 657 253 585 q 196 743 201 729 q 203 627 196 739 q 213 413 211 515 l 213 0 l 86 0 l 86 940 l 225 940 q 471 305 435 407 q 508 200 507 203 q 501 322 508 213 q 493 533 493 432 l 493 940 z "},"O":{"ha":646,"x_min":72,"x_max":574,"o":"m 446 722 q 323 839 446 839 q 200 722 200 839 l 200 218 q 323 103 200 103 q 446 218 446 103 l 446 722 m 72 726 q 135 892 72 829 q 322 954 199 954 q 510 892 446 954 q 574 726 574 829 l 574 214 q 510 49 574 111 q 322 -14 446 -14 q 135 49 199 -14 q 72 214 72 111 l 72 726 z "},"P":{"ha":621,"x_min":86,"x_max":567,"o":"m 439 719 q 326 829 439 829 l 215 829 l 215 421 l 326 421 q 439 531 439 421 l 439 719 m 86 940 l 338 940 q 508 885 449 940 q 567 731 567 829 l 567 519 q 508 365 567 421 q 338 310 449 310 l 215 310 l 215 0 l 86 0 l 86 940 z "},"Q":{"ha":646,"x_min":72,"x_max":640,"o":"m 322 -14 q 135 49 199 -14 q 72 214 72 111 l 72 726 q 135 892 72 829 q 322 954 199 954 q 510 892 446 954 q 574 726 574 829 l 574 214 q 486 31 574 89 l 640 -135 l 485 -135 l 371 -11 q 322 -14 340 -14 m 200 722 l 200 218 q 323 103 200 103 q 446 218 446 103 l 446 722 q 323 839 446 839 q 200 722 200 839 z "},"R":{"ha":643,"x_min":86,"x_max":597,"o":"m 214 368 l 214 0 l 86 0 l 86 940 l 338 940 q 508 885 449 940 q 567 731 567 829 l 567 583 q 449 385 567 426 l 597 0 l 457 0 l 322 368 l 214 368 m 214 829 l 214 475 l 326 475 q 413 502 386 475 q 439 583 439 529 l 439 724 q 326 829 439 829 l 214 829 z "},"S":{"ha":557,"x_min":36,"x_max":518,"o":"m 36 742 q 101 893 36 839 q 285 947 165 947 q 476 924 406 947 l 476 801 q 296 829 404 829 q 165 732 165 829 l 165 678 q 183 606 165 632 q 244 556 200 579 l 406 467 q 518 281 518 404 l 518 203 q 448 48 518 103 q 250 -7 378 -7 q 44 22 122 -7 l 44 144 q 238 111 136 111 q 390 215 390 111 l 390 263 q 374 328 390 304 q 317 375 358 351 l 160 460 q 36 658 36 528 l 36 742 z "},"T":{"ha":510,"x_min":11,"x_max":499,"o":"m 499 940 l 499 829 l 319 829 l 319 0 l 190 0 l 190 829 l 11 829 l 11 940 l 499 940 z "},"U":{"ha":658,"x_min":79,"x_max":578,"o":"m 450 940 l 578 940 l 578 214 q 515 49 578 111 q 329 -14 453 -14 q 142 49 206 -14 q 79 214 79 111 l 79 940 l 207 940 l 207 218 q 328 103 207 103 q 450 218 450 103 l 450 940 z "},"V":{"ha":607,"x_min":15,"x_max":592,"o":"m 458 940 l 592 940 l 394 0 l 214 0 l 15 940 l 146 940 l 238 493 q 272 297 249 436 q 304 118 296 157 q 338 300 314 158 q 371 493 361 442 l 458 940 z "},"W":{"ha":840,"x_min":24,"x_max":817,"o":"m 700 940 l 817 940 l 669 0 l 533 0 q 439 586 449 511 q 421 744 429 661 q 383 443 408 592 l 310 0 l 168 0 l 24 940 l 142 940 l 219 449 l 250 196 q 360 940 264 313 l 482 940 l 557 449 l 590 200 q 621 449 604 344 l 700 940 z "},"X":{"ha":572,"x_min":15,"x_max":558,"o":"m 419 940 l 558 940 l 353 469 l 558 0 l 418 0 l 288 329 l 154 0 l 15 0 l 218 469 l 15 940 l 154 940 l 288 610 l 419 940 z "},"Y":{"ha":596,"x_min":4,"x_max":592,"o":"m 363 0 l 233 0 l 233 311 l 4 940 l 136 940 l 217 717 q 300 453 243 640 q 382 717 322 529 l 463 940 l 592 940 l 363 311 l 363 0 z "},"Z":{"ha":547,"x_min":36,"x_max":508,"o":"m 43 940 l 508 940 l 508 833 l 169 110 l 506 110 l 506 0 l 36 0 l 36 110 l 371 831 l 43 831 l 43 940 z "},"[":{"ha":440,"x_min":115,"x_max":393,"o":"m 222 -103 l 393 -103 l 393 -203 l 115 -203 l 115 1122 l 393 1122 l 393 1022 l 222 1022 l 222 -103 z "},"\\":{"ha":579,"x_min":47,"x_max":539,"o":"m 47 1122 l 164 1122 l 539 -203 l 422 -203 l 47 1122 z "},"]":{"ha":440,"x_min":47,"x_max":324,"o":"m 47 1122 l 324 1122 l 324 -203 l 47 -203 l 47 -103 l 217 -103 l 217 1022 l 47 1022 l 47 1122 z "},"^":{"ha":488,"x_min":3,"x_max":478,"o":"m 478 535 l 354 535 l 242 875 l 128 535 l 3 535 l 163 949 l 319 949 l 478 535 z "},"_":{"ha":694,"x_min":6,"x_max":689,"o":"m 6 -12 l 689 -12 l 688 -114 l 6 -114 l 6 -12 z "},"`":{"ha":486,"x_min":161,"x_max":325,"o":"m 161 1010 l 269 1010 l 325 858 l 249 858 l 161 1010 z "},"a":{"ha":594,"x_min":39,"x_max":515,"o":"m 165 229 l 165 188 q 188 119 165 142 q 273 96 210 96 q 392 139 336 96 l 392 374 l 258 338 q 185 299 204 322 q 165 229 165 275 m 78 779 q 278 804 156 804 q 515 590 515 804 l 515 0 l 393 0 l 393 57 q 231 -4 329 -4 q 39 188 39 -4 l 39 233 q 79 359 39 311 q 208 432 119 407 l 392 483 l 392 592 q 364 666 392 643 q 247 689 336 689 q 78 661 158 689 l 78 779 z "},"b":{"ha":626,"x_min":86,"x_max":554,"o":"m 425 599 q 339 683 425 683 q 215 654 292 683 l 215 117 l 315 117 q 425 219 425 117 l 425 599 m 86 1010 l 214 1010 l 214 771 q 374 801 292 801 q 505 755 456 801 q 554 621 554 708 l 554 206 q 497 53 554 106 q 346 0 440 0 l 86 0 l 86 1010 z "},"c":{"ha":517,"x_min":72,"x_max":472,"o":"m 72 594 q 317 804 72 804 q 471 786 401 804 l 471 667 q 333 688 408 688 q 230 664 258 688 q 201 588 201 640 l 201 210 q 229 134 201 157 q 333 111 257 111 q 472 132 410 111 l 472 13 q 317 -7 394 -7 q 72 203 72 -7 l 72 594 z "},"d":{"ha":626,"x_min":72,"x_max":540,"o":"m 411 682 l 315 682 q 201 576 201 682 l 201 207 q 294 111 201 111 q 411 150 367 111 l 411 682 m 411 1010 l 540 1010 l 540 0 l 414 0 l 414 50 q 263 -4 357 -4 q 121 47 169 -4 q 72 192 72 99 l 72 579 q 132 740 72 682 q 299 797 192 797 l 411 797 l 411 1010 z "},"e":{"ha":604,"x_min":72,"x_max":542,"o":"m 72 210 l 72 593 q 131 752 72 693 q 308 811 189 811 q 484 752 426 811 q 542 593 542 693 l 542 340 l 197 340 l 197 217 q 232 134 197 161 q 351 107 267 107 q 518 132 436 107 l 518 15 q 342 -7 438 -7 q 72 210 72 -7 m 197 444 l 419 444 l 419 593 q 308 703 419 703 q 197 593 197 703 l 197 444 z "},"f":{"ha":388,"x_min":35,"x_max":388,"o":"m 114 836 q 166 984 114 932 q 321 1036 218 1036 q 388 1031 360 1036 l 388 926 q 336 931 365 931 q 243 836 243 931 l 243 797 l 381 797 l 381 693 l 243 693 l 243 0 l 114 0 l 114 693 l 35 693 l 35 797 l 114 797 l 114 836 z "},"g":{"ha":624,"x_min":44,"x_max":600,"o":"m 600 747 l 554 747 q 499 735 522 747 q 538 604 538 686 l 538 492 q 478 340 538 394 q 301 285 419 286 q 233 222 233 285 q 252 181 233 193 q 315 168 271 168 l 394 168 q 592 3 592 168 l 592 -21 q 328 -207 592 -207 l 274 -207 q 44 -160 128 -207 l 44 -39 q 271 -97 136 -97 l 315 -97 q 435 -78 400 -97 q 469 -18 469 -58 l 469 -7 q 452 43 469 26 q 383 60 435 60 l 299 60 q 119 181 119 60 l 119 203 q 140 265 119 239 q 193 297 160 290 q 53 492 53 338 l 53 604 q 113 757 53 703 q 283 811 174 811 q 447 778 392 811 q 579 867 476 867 l 600 867 l 600 747 m 410 493 l 410 604 q 295 706 410 706 q 181 604 181 706 l 181 493 q 296 390 181 390 q 383 415 356 390 q 410 493 410 440 z "},"h":{"ha":631,"x_min":86,"x_max":551,"o":"m 86 1010 l 214 1010 l 214 771 q 368 801 288 801 q 500 756 449 801 q 551 621 551 710 l 551 0 l 422 0 l 422 599 q 338 683 422 683 q 215 653 276 683 l 215 0 l 86 0 l 86 1010 z "},"i":{"ha":301,"x_min":75,"x_max":226,"o":"m 151 869 q 113 869 151 869 q 75 945 75 869 q 151 1021 75 1021 q 226 945 226 1021 q 151 869 226 869 m 86 789 l 215 789 l 215 0 l 86 0 l 86 789 z "},"j":{"ha":301,"x_min":-32,"x_max":226,"o":"m 151 869 q 113 869 151 869 q 75 945 75 869 q 151 1021 75 1021 q 226 945 226 1021 q 151 869 226 869 m 86 789 l 215 789 l 215 3 q 164 -153 215 -97 q 11 -210 113 -210 q -32 -206 -17 -210 l -32 -89 q 3 -92 -10 -92 q 67 -69 47 -92 q 86 3 86 -47 l 86 789 z "},"k":{"ha":571,"x_min":86,"x_max":551,"o":"m 86 1010 l 213 1010 l 213 0 l 86 0 l 86 1010 m 404 797 l 536 797 l 378 415 l 551 0 l 414 0 l 246 419 l 404 797 z "},"l":{"ha":301,"x_min":86,"x_max":215,"o":"m 86 1010 l 215 1010 l 215 0 l 86 0 l 86 1010 z "},"m":{"ha":967,"x_min":86,"x_max":888,"o":"m 510 747 q 698 801 607 801 q 838 755 789 801 q 888 621 888 708 l 888 0 l 758 0 l 758 599 q 674 683 758 683 q 544 644 610 683 q 551 600 551 629 l 551 0 l 422 0 l 422 599 q 338 683 422 683 q 215 651 279 683 l 215 0 l 86 0 l 86 797 l 208 797 l 208 761 q 376 801 293 801 q 510 747 458 801 z "},"n":{"ha":631,"x_min":86,"x_max":551,"o":"m 208 761 q 373 801 293 801 q 502 755 453 801 q 551 621 551 708 l 551 0 l 422 0 l 422 599 q 338 683 422 683 q 215 651 279 683 l 215 0 l 86 0 l 86 797 l 208 797 l 208 761 z "},"o":{"ha":617,"x_min":72,"x_max":544,"o":"m 418 592 q 309 700 418 700 q 200 592 200 700 l 200 206 q 309 97 200 97 q 418 206 418 97 l 418 592 m 72 594 q 131 753 72 694 q 308 811 189 811 q 486 753 428 811 q 544 594 544 694 l 544 203 q 486 44 544 103 q 308 -14 428 -14 q 131 44 189 -14 q 72 203 72 103 l 72 594 z "},"p":{"ha":626,"x_min":86,"x_max":554,"o":"m 425 599 q 339 683 425 683 q 215 651 279 683 l 215 117 l 315 117 q 425 221 425 117 l 425 599 m 208 761 q 378 801 301 801 q 505 755 456 801 q 554 621 554 708 l 554 207 q 498 53 554 107 q 347 0 442 0 l 215 0 l 215 -207 l 86 -207 l 86 797 l 208 797 l 208 761 z "},"q":{"ha":626,"x_min":72,"x_max":540,"o":"m 411 682 l 318 682 q 201 571 201 682 l 201 211 q 296 113 201 113 q 411 150 365 113 l 411 682 m 303 797 l 540 797 l 540 -207 l 413 -207 l 413 32 q 269 -3 356 -3 q 72 201 72 -3 l 72 574 q 133 738 72 678 q 303 797 193 797 z "},"r":{"ha":407,"x_min":86,"x_max":400,"o":"m 368 801 l 400 801 l 400 682 l 357 682 q 290 670 318 682 q 215 628 261 658 l 215 0 l 86 0 l 86 797 l 208 797 l 208 739 q 306 794 276 786 q 368 801 335 801 z "},"s":{"ha":511,"x_min":38,"x_max":475,"o":"m 38 604 q 96 754 38 704 q 286 804 154 804 q 444 782 375 804 l 444 665 q 297 690 378 690 q 189 669 215 690 q 163 597 163 647 l 163 569 q 178 511 163 532 q 238 469 194 490 l 354 406 q 475 233 475 344 l 475 197 q 210 -7 475 -7 q 40 14 118 -7 l 40 132 q 195 108 108 108 q 315 131 282 108 q 347 200 347 154 l 347 225 q 330 278 347 258 q 261 325 313 299 l 149 383 q 38 560 38 439 l 38 604 z "},"t":{"ha":414,"x_min":7,"x_max":393,"o":"m 218 942 l 218 797 l 381 797 l 381 688 l 218 688 l 218 189 q 303 108 218 108 q 393 124 347 108 l 393 8 q 380 6 392 8 q 356 0 368 3 q 285 -8 318 -8 q 90 179 90 -8 l 90 688 l 7 688 l 7 797 l 94 797 l 133 942 l 218 942 z "},"u":{"ha":633,"x_min":79,"x_max":547,"o":"m 418 797 l 547 797 l 547 0 l 425 0 l 425 38 q 265 -3 353 -3 q 128 47 178 -3 q 79 192 79 97 l 79 797 l 210 797 l 210 208 q 303 113 210 113 q 418 149 369 113 l 418 797 z "},"v":{"ha":556,"x_min":19,"x_max":536,"o":"m 408 797 l 536 797 l 363 0 l 196 0 l 19 797 l 149 797 q 279 96 247 326 q 340 464 304 275 l 408 797 z "},"w":{"ha":840,"x_min":19,"x_max":821,"o":"m 690 797 l 821 797 l 682 0 l 521 0 q 421 626 432 533 q 385 368 403 478 l 322 0 l 161 0 l 19 797 l 151 797 l 246 146 l 356 797 l 486 797 l 597 144 l 690 797 z "},"x":{"ha":521,"x_min":11,"x_max":510,"o":"m 372 797 l 508 797 l 325 400 l 510 0 l 372 0 l 261 276 l 147 0 l 11 0 l 193 400 l 11 797 l 147 797 l 261 526 l 372 797 z "},"y":{"ha":561,"x_min":22,"x_max":539,"o":"m 413 797 l 539 797 l 329 -207 l 204 -207 l 247 0 l 192 0 l 22 797 l 150 797 q 282 96 256 289 q 339 440 304 260 l 413 797 z "},"z":{"ha":461,"x_min":28,"x_max":433,"o":"m 35 797 l 432 797 l 432 708 l 163 110 l 433 110 l 433 0 l 28 0 l 28 90 l 296 688 l 35 688 l 35 797 z "},"{":{"ha":510,"x_min":79,"x_max":429,"o":"m 300 921 l 300 642 q 274 512 300 557 q 178 456 247 467 q 274 403 247 446 q 300 275 300 360 l 300 -10 q 397 -93 300 -93 l 429 -93 l 429 -201 l 390 -201 q 240 -149 293 -201 q 188 -6 188 -96 l 188 307 q 161 376 188 351 q 85 401 135 401 l 79 401 l 79 510 l 85 510 q 161 535 135 510 q 188 604 188 560 l 188 917 q 240 1060 188 1007 q 390 1113 293 1113 l 429 1113 l 429 1003 l 397 1003 q 300 921 300 1003 z "},"|":{"ha":294,"x_min":100,"x_max":193,"o":"m 100 1144 l 193 1144 l 193 -224 l 100 -224 l 100 1144 z "},"}":{"ha":508,"x_min":78,"x_max":426,"o":"m 422 510 l 426 510 l 426 401 l 422 401 q 346 376 372 401 q 319 307 319 351 l 319 -6 q 267 -149 319 -96 q 117 -201 214 -201 l 78 -201 l 78 -93 l 110 -93 q 207 -10 207 -93 l 207 275 q 233 403 207 360 q 329 456 260 446 q 233 512 260 467 q 207 642 207 557 l 207 921 q 110 1003 207 1003 l 78 1003 l 78 1113 l 117 1113 q 267 1060 214 1113 q 319 917 319 1007 l 319 604 q 346 535 319 560 q 422 510 372 510 z "},"~":{"ha":667,"x_min":33,"x_max":632,"o":"m 632 514 q 559 385 632 418 q 401 390 486 351 l 258 447 q 172 457 207 472 q 146 385 136 442 l 38 385 q 33 436 33 410 q 106 565 33 532 q 264 560 179 599 l 407 503 q 494 493 461 478 q 518 565 528 508 l 626 565 q 632 514 632 542 z "}," ":{"ha":261,"x_min":0,"x_max":0,"o":""},"¡":{"ha":375,"x_min":113,"x_max":263,"o":"m 256 -143 l 118 -143 l 135 540 l 239 540 l 256 -143 m 263 731 q 263 693 263 731 q 188 656 263 656 q 113 731 113 656 q 188 807 113 807 q 263 731 263 807 z "},"¢":{"ha":547,"x_min":82,"x_max":482,"o":"m 378 -104 l 260 -104 l 260 -3 q 82 203 82 24 l 82 594 q 263 800 82 776 l 263 908 l 381 908 l 381 803 q 481 786 429 800 l 481 667 q 343 688 418 688 q 240 664 268 688 q 211 588 211 640 l 211 210 q 239 134 211 157 q 343 111 267 111 q 482 132 419 111 l 482 13 q 378 -6 425 -1 l 378 -104 z "},"£":{"ha":660,"x_min":67,"x_max":600,"o":"m 600 114 l 600 0 l 67 0 l 67 113 q 104 124 82 113 q 134 145 126 136 q 150 167 142 154 q 165 244 165 194 l 165 428 l 79 428 l 79 538 l 165 538 l 165 710 q 229 883 165 822 q 406 944 293 944 q 589 919 519 944 l 589 799 q 431 826 511 826 q 322 795 351 826 q 293 703 293 764 l 293 538 l 518 538 l 518 428 l 293 428 l 293 260 q 280 178 293 213 q 258 136 267 144 q 229 114 249 128 l 600 114 z "},"¤":{"ha":639,"x_min":43,"x_max":599,"o":"m 556 532 l 556 408 q 535 299 556 344 l 599 236 l 521 158 l 460 218 q 321 189 408 189 q 182 218 233 189 l 121 158 l 43 236 l 107 299 q 86 408 86 347 l 86 532 q 107 643 86 597 l 44 706 l 122 783 l 182 724 q 323 751 238 751 q 460 722 408 751 l 521 783 l 599 706 l 535 643 q 556 532 556 596 m 211 529 l 211 411 q 235 328 211 356 q 322 301 260 301 q 408 328 383 301 q 432 411 432 354 l 432 529 q 408 613 432 586 q 322 640 383 640 q 235 613 260 640 q 211 529 211 586 z "},"¥":{"ha":689,"x_min":56,"x_max":649,"o":"m 643 586 l 643 485 l 486 485 l 438 364 l 643 364 l 643 263 l 415 263 l 415 0 l 290 0 l 290 263 l 58 263 l 58 364 l 267 364 l 219 485 l 58 485 l 58 586 l 182 586 l 56 924 l 185 924 l 311 575 l 354 449 l 397 575 l 524 924 l 649 924 l 522 586 l 643 586 z "},"¦":{"ha":294,"x_min":100,"x_max":193,"o":"m 100 306 l 193 306 l 193 -224 l 100 -224 l 100 306 m 100 1144 l 193 1144 l 193 615 l 100 615 l 100 1144 z "},"§":{"ha":521,"x_min":43,"x_max":492,"o":"m 176 372 l 176 349 q 193 290 176 311 q 254 247 210 269 l 371 185 q 461 113 431 153 q 492 13 492 74 l 492 -4 q 226 -207 492 -207 q 56 -187 122 -207 l 56 -71 q 209 -92 118 -92 q 332 -71 300 -92 q 364 -7 364 -50 q 347 56 364 36 q 278 104 331 76 l 165 163 q 53 339 53 219 l 53 372 l 176 372 m 43 743 q 101 894 43 844 q 292 944 160 944 q 450 924 385 944 l 450 807 q 306 829 390 829 q 194 808 221 829 q 168 740 168 786 q 183 674 168 693 q 243 633 197 656 l 361 572 q 482 400 482 510 l 482 367 l 356 367 l 356 392 q 338 444 356 425 q 267 492 319 464 l 154 550 q 43 726 43 606 l 43 743 z "},"¨":{"ha":486,"x_min":82,"x_max":404,"o":"m 344 875 q 314 875 344 875 q 283 933 283 875 q 344 992 283 992 q 404 933 404 992 q 344 875 404 875 m 142 875 q 112 875 142 875 q 82 933 82 875 q 142 992 82 992 q 203 933 203 992 q 142 875 203 875 z "},"©":{"ha":961,"x_min":61,"x_max":901,"o":"m 746 199 q 789 309 778 251 q 800 447 800 367 q 795 574 800 526 q 772 672 790 622 q 719 750 753 722 q 482 815 644 815 q 269 767 338 815 q 181 640 200 717 q 161 464 161 563 q 172 308 161 365 q 214 197 182 250 q 482 94 276 94 q 746 199 683 94 m 314 533 q 357 660 314 617 q 499 704 400 704 q 603 693 554 704 l 603 603 q 499 615 554 615 q 427 595 443 615 q 411 532 411 575 l 411 379 q 415 335 411 350 q 440 308 419 319 q 507 296 460 296 q 603 308 554 296 l 603 218 q 499 207 531 207 q 357 250 400 207 q 314 378 314 293 l 314 533 m 80 271 q 70 310 80 271 q 61 454 61 349 q 80 638 61 560 q 144 779 99 715 q 482 910 236 910 q 822 781 732 910 q 884 640 867 717 q 901 457 901 563 q 882 273 901 351 q 817 131 863 194 q 482 0 724 0 q 144 129 238 0 q 80 271 99 193 z "},"ª":{"ha":468,"x_min":47,"x_max":414,"o":"m 136 596 l 136 554 q 154 492 136 511 q 233 474 172 474 q 326 513 294 474 l 326 700 l 221 678 q 136 596 136 660 m 233 1035 q 414 886 414 1035 l 414 399 l 326 399 l 326 449 q 200 400 286 400 q 47 553 47 400 l 47 601 q 87 699 47 664 q 206 753 126 733 l 326 779 l 326 889 q 238 953 324 953 q 74 928 151 953 l 74 1011 q 233 1035 149 1035 z "},"«":{"ha":710,"x_min":85,"x_max":651,"o":"m 253 701 l 382 701 l 213 447 l 382 193 l 253 193 l 85 447 l 253 701 m 521 701 l 651 701 l 482 447 l 651 193 l 521 193 l 353 447 l 521 701 z "},"¬":{"ha":661,"x_min":86,"x_max":574,"o":"m 86 519 l 574 519 l 574 261 l 444 261 l 444 404 l 86 404 l 86 519 z "},"­":{"ha":349,"x_min":56,"x_max":300,"o":"m 56 508 l 300 508 l 300 400 l 56 400 l 56 508 z "},"®":{"ha":744,"x_min":107,"x_max":686,"o":"m 107 723 q 107 801 107 723 q 170 956 107 879 q 397 1033 233 1033 q 624 957 561 1033 q 686 724 686 881 q 624 492 686 568 q 397 417 561 417 q 169 492 232 417 q 107 723 107 567 m 213 542 q 224 525 213 542 q 278 494 235 508 q 395 481 322 481 q 513 494 468 481 q 579 542 557 508 q 608 616 601 576 q 615 724 615 656 q 608 833 615 792 q 579 908 601 874 q 513 956 557 942 q 396 969 468 969 q 279 956 324 969 q 213 907 235 942 q 184 832 190 872 q 178 724 178 792 q 185 616 178 656 q 213 542 192 576 m 288 910 l 393 910 q 521 796 521 910 q 474 694 521 722 l 536 543 l 461 543 l 411 678 q 392 676 406 676 l 357 676 l 357 543 l 288 543 l 288 910 m 357 735 l 386 735 q 440 747 425 735 q 456 795 456 758 q 442 842 456 832 q 394 853 428 853 l 357 853 l 357 735 z "},"¯":{"ha":486,"x_min":81,"x_max":406,"o":"m 81 972 l 406 972 l 406 896 l 81 896 l 81 972 z "},"°":{"ha":540,"x_min":69,"x_max":476,"o":"m 351 825 q 361 840 351 825 q 372 911 372 854 q 351 998 372 968 q 272 1028 329 1028 q 194 998 215 1028 q 174 911 174 968 q 194 825 174 854 q 272 796 215 796 q 351 825 329 796 m 272 697 q 69 912 69 697 q 272 1126 69 1126 q 427 1069 378 1126 q 476 913 476 1011 q 427 756 476 814 q 272 697 378 697 z "},"±":{"ha":629,"x_min":60,"x_max":576,"o":"m 60 43 l 60 151 l 575 151 l 576 43 l 60 43 m 258 224 l 258 400 l 60 400 l 60 508 l 258 508 l 258 683 l 376 683 l 376 508 l 575 508 l 575 400 l 376 400 l 376 224 l 258 224 z "},"²":{"ha":408,"x_min":42,"x_max":372,"o":"m 201 1035 q 371 888 371 1035 l 371 846 q 294 700 371 753 l 203 636 q 142 585 153 603 q 131 525 131 568 l 131 483 l 372 483 l 372 401 l 42 401 l 42 529 q 63 622 42 589 q 140 693 85 656 l 236 758 q 275 799 267 778 q 283 856 283 819 l 283 886 q 265 937 283 921 q 185 953 247 953 q 58 938 122 953 l 58 1019 q 201 1035 104 1035 z "},"³":{"ha":418,"x_min":42,"x_max":358,"o":"m 188 1035 q 358 892 354 1035 l 358 831 q 301 719 358 747 q 358 610 358 693 l 358 542 q 186 396 358 396 q 42 411 100 396 l 42 493 q 172 476 113 476 q 251 492 232 476 q 269 543 269 508 l 269 610 q 255 660 269 643 q 196 678 240 678 l 132 678 l 132 760 l 196 760 q 255 778 240 760 q 269 831 269 797 l 269 886 q 251 937 269 921 q 172 953 233 953 q 51 939 111 953 l 51 1021 q 188 1035 107 1035 z "},"´":{"ha":486,"x_min":161,"x_max":325,"o":"m 217 1010 l 325 1010 l 238 858 l 161 858 l 217 1010 z "},"µ":{"ha":636,"x_min":82,"x_max":550,"o":"m 421 797 l 550 797 l 550 0 l 428 0 l 428 38 q 301 1 357 3 q 213 13 244 0 l 213 -208 l 82 -208 l 82 797 l 213 797 l 213 133 q 284 114 251 114 q 333 117 317 114 q 360 123 349 119 q 383 131 372 126 q 401 140 394 136 q 421 151 408 144 l 421 797 z "},"¶":{"ha":583,"x_min":86,"x_max":489,"o":"m 317 942 l 489 942 l 489 1 l 360 1 l 360 521 l 317 521 q 146 577 206 521 q 86 732 86 633 q 146 886 86 831 q 317 942 206 942 z "},"·":{"ha":325,"x_min":93,"x_max":233,"o":"m 163 408 q 128 408 163 408 q 93 478 93 408 q 163 549 93 549 q 233 478 233 549 q 163 408 233 408 z "},"¸":{"ha":486,"x_min":143,"x_max":342,"o":"m 251 -56 q 315 -81 289 -58 q 342 -151 342 -104 q 306 -227 342 -199 q 221 -256 269 -256 q 143 -246 172 -256 l 143 -182 q 200 -190 164 -190 q 264 -145 264 -190 q 197 -99 264 -100 l 181 -99 l 203 8 l 265 8 l 251 -56 z "},"¹":{"ha":307,"x_min":25,"x_max":239,"o":"m 239 1026 l 239 401 l 153 401 l 153 935 l 25 839 l 25 939 l 143 1026 l 239 1026 z "},"º":{"ha":461,"x_min":63,"x_max":414,"o":"m 326 890 q 238 953 324 953 q 151 890 151 953 l 151 544 q 171 494 151 510 q 238 478 190 478 q 306 494 286 478 q 326 544 326 510 l 326 890 m 63 885 q 238 1035 63 1035 q 414 885 414 1035 l 414 546 q 238 396 414 396 q 63 546 63 396 l 63 885 z "},"»":{"ha":708,"x_min":50,"x_max":617,"o":"m 50 701 l 181 701 l 349 447 l 181 193 l 50 193 l 219 447 l 50 701 m 319 701 l 449 701 l 617 447 l 449 193 l 319 193 l 489 447 l 319 701 z "},"¼":{"ha":1108,"x_min":56,"x_max":1031,"o":"m 697 940 l 788 940 l 299 0 l 208 0 l 697 940 m 881 207 l 881 554 l 717 207 l 881 207 m 965 626 l 965 207 l 1031 207 l 1031 128 l 965 128 l 965 0 l 881 0 l 881 128 l 633 128 l 633 210 l 831 626 l 965 626 m 269 940 l 269 315 l 182 315 l 182 849 l 56 753 l 56 853 l 174 940 l 269 940 z "},"½":{"ha":1106,"x_min":56,"x_max":1017,"o":"m 697 940 l 786 940 l 297 0 l 208 0 l 697 940 m 269 940 l 269 315 l 183 315 l 183 849 l 56 753 l 56 853 l 174 940 l 269 940 m 846 633 q 1015 486 1015 633 l 1015 444 q 998 361 1015 394 q 939 299 981 328 l 847 235 q 786 184 797 201 q 775 124 775 167 l 775 82 l 1017 82 l 1017 0 l 686 0 l 686 128 q 708 221 686 188 q 785 292 729 254 l 881 357 q 919 397 911 376 q 928 454 928 418 l 928 485 q 910 535 928 519 q 829 551 892 551 q 703 536 767 551 l 703 618 q 846 633 749 633 z "},"¾":{"ha":1157,"x_min":56,"x_max":1079,"o":"m 201 949 q 371 806 368 949 l 371 744 q 315 635 371 661 q 371 524 371 608 l 371 456 q 200 310 371 310 q 56 325 114 310 l 56 407 q 191 390 136 390 q 265 406 246 390 q 283 457 283 422 l 283 524 q 269 574 283 557 q 210 593 254 592 l 146 593 l 146 674 l 210 674 q 269 692 254 674 q 283 744 283 711 l 283 800 q 265 851 283 835 q 192 868 246 868 q 65 854 138 868 l 65 936 q 201 949 115 949 m 763 940 l 851 940 l 363 0 l 274 0 l 763 940 m 928 207 l 928 554 l 765 207 l 928 207 m 1014 626 l 1014 207 l 1079 207 l 1079 128 l 1014 128 l 1014 0 l 928 0 l 928 128 l 682 128 l 682 210 l 879 626 l 1014 626 z "},"¿":{"ha":543,"x_min":46,"x_max":478,"o":"m 317 808 q 355 808 317 808 q 393 733 393 808 q 317 657 393 657 q 242 733 242 657 q 317 808 242 808 m 306 -156 q 46 50 46 -156 l 46 181 q 94 340 46 283 q 257 397 143 396 l 264 542 l 372 542 l 379 296 l 301 296 q 200 267 231 296 q 169 179 169 239 l 169 60 q 198 -14 169 10 q 317 -37 226 -37 q 478 -11 407 -37 l 478 -135 q 306 -156 394 -156 z "},"À":{"ha":626,"x_min":19,"x_max":608,"o":"m 482 0 l 431 250 l 196 250 l 144 0 l 19 0 l 224 940 l 404 940 l 608 0 l 482 0 m 218 361 l 407 361 l 313 822 l 218 361 m 344 997 l 268 997 l 181 1149 l 289 1149 l 344 997 z "},"Á":{"ha":626,"x_min":19,"x_max":608,"o":"m 482 0 l 431 250 l 196 250 l 144 0 l 19 0 l 224 940 l 404 940 l 608 0 l 482 0 m 218 361 l 407 361 l 313 822 l 218 361 m 436 1149 l 349 997 l 272 997 l 328 1149 l 436 1149 z "},"Â":{"ha":626,"x_min":19,"x_max":608,"o":"m 482 0 l 431 250 l 196 250 l 144 0 l 19 0 l 224 940 l 404 940 l 608 0 l 482 0 m 218 361 l 407 361 l 313 822 l 218 361 m 318 1081 l 265 997 l 194 997 l 268 1149 l 368 1149 l 442 997 l 369 997 l 318 1081 z "},"Ã":{"ha":626,"x_min":19,"x_max":608,"o":"m 482 0 l 431 250 l 196 250 l 144 0 l 19 0 l 224 940 l 404 940 l 608 0 l 482 0 m 218 361 l 407 361 l 313 822 l 218 361 m 215 1019 l 215 1007 l 135 1007 l 135 1021 q 160 1106 135 1074 q 230 1138 185 1138 q 322 1109 275 1138 q 383 1081 369 1081 q 414 1126 414 1081 l 414 1139 l 494 1139 l 494 1124 q 469 1039 494 1069 q 401 1008 443 1008 q 311 1037 358 1008 q 246 1065 264 1065 q 215 1019 215 1065 z "},"Ä":{"ha":626,"x_min":19,"x_max":608,"o":"m 482 0 l 431 250 l 196 250 l 144 0 l 19 0 l 224 940 l 404 940 l 608 0 l 482 0 m 218 361 l 407 361 l 313 822 l 218 361 m 212 1131 q 242 1131 212 1131 q 272 1072 272 1131 q 212 1014 272 1014 q 151 1072 151 1014 q 212 1131 151 1131 m 413 1131 q 443 1131 413 1131 q 474 1072 474 1131 q 413 1014 474 1014 q 353 1072 353 1014 q 413 1131 353 1131 z "},"Å":{"ha":626,"x_min":19,"x_max":608,"o":"m 482 0 l 431 250 l 196 250 l 144 0 l 19 0 l 224 940 l 404 940 l 608 0 l 482 0 m 218 361 l 407 361 l 313 822 l 218 361 m 418 1074 q 418 1051 418 1074 q 390 999 418 1029 q 313 969 363 969 q 235 999 264 969 q 207 1074 207 1029 q 235 1147 207 1118 q 313 1176 263 1176 q 390 1147 363 1176 q 418 1074 418 1118 m 346 1106 q 340 1113 346 1106 q 313 1119 333 1119 q 279 1106 292 1119 q 267 1072 267 1093 q 279 1039 267 1051 q 313 1026 292 1026 q 346 1039 333 1026 q 358 1072 358 1051 q 346 1106 358 1093 z "},"Æ":{"ha":940,"x_min":8,"x_max":914,"o":"m 914 829 l 614 829 l 614 531 l 875 531 l 875 419 l 614 419 l 614 113 l 914 113 l 914 0 l 492 0 l 492 250 l 242 250 l 138 0 l 8 0 l 415 940 l 914 940 l 914 829 m 492 361 l 492 850 l 288 361 l 492 361 z "},"Ç":{"ha":554,"x_min":72,"x_max":507,"o":"m 332 -56 q 396 -81 369 -58 q 422 -151 422 -104 q 386 -227 422 -199 q 301 -256 350 -256 q 224 -246 253 -256 l 224 -182 q 281 -190 244 -190 q 344 -145 344 -190 q 278 -99 344 -100 l 261 -99 l 281 -4 q 72 200 72 18 l 72 740 q 138 893 72 839 q 339 947 204 947 q 504 926 429 947 l 504 808 q 342 832 421 832 q 233 806 264 832 q 201 732 201 781 l 201 208 q 233 134 201 160 q 349 108 264 108 q 507 132 433 108 l 507 15 q 343 -7 440 -7 l 332 -56 z "},"È":{"ha":561,"x_min":86,"x_max":514,"o":"m 176 1149 l 285 1149 l 340 997 l 264 997 l 176 1149 m 86 940 l 514 940 l 514 829 l 214 829 l 214 531 l 475 531 l 475 419 l 214 419 l 214 113 l 514 113 l 514 0 l 86 0 l 86 940 z "},"É":{"ha":561,"x_min":86,"x_max":514,"o":"m 86 940 l 514 940 l 514 829 l 214 829 l 214 531 l 475 531 l 475 419 l 214 419 l 214 113 l 514 113 l 514 0 l 86 0 l 86 940 m 318 1149 l 426 1149 l 339 997 l 263 997 l 318 1149 z "},"Ê":{"ha":561,"x_min":86,"x_max":514,"o":"m 514 829 l 214 829 l 214 531 l 475 531 l 475 419 l 214 419 l 214 113 l 514 113 l 514 0 l 86 0 l 86 940 l 514 940 l 514 829 m 293 1081 l 240 997 l 169 997 l 243 1149 l 343 1149 l 417 997 l 344 997 l 293 1081 z "},"Ë":{"ha":561,"x_min":86,"x_max":514,"o":"m 86 940 l 514 940 l 514 829 l 214 829 l 214 531 l 475 531 l 475 419 l 214 419 l 214 113 l 514 113 l 514 0 l 86 0 l 86 940 m 403 1014 q 373 1014 403 1014 q 343 1072 343 1014 q 403 1131 343 1131 q 464 1072 464 1131 q 403 1014 464 1014 m 202 1014 q 172 1014 202 1014 q 142 1072 142 1014 q 202 1131 142 1131 q 263 1072 263 1131 q 202 1014 263 1014 z "},"Ì":{"ha":561,"x_min":86,"x_max":514,"o":"m 175 1149 l 283 1149 l 339 997 l 263 997 l 175 1149 m 86 940 l 514 940 l 514 829 l 214 829 l 214 531 l 475 531 l 475 419 l 214 419 l 214 113 l 514 113 l 514 0 l 86 0 l 86 940 z "},"Í":{"ha":561,"x_min":86,"x_max":514,"o":"m 86 940 l 514 940 l 514 829 l 214 829 l 214 531 l 475 531 l 475 419 l 214 419 l 214 113 l 514 113 l 514 0 l 86 0 l 86 940 m 318 1149 l 426 1149 l 339 997 l 263 997 l 318 1149 z "},"Î":{"ha":303,"x_min":32,"x_max":279,"o":"m 86 0 l 86 940 l 215 940 l 215 0 l 86 0 m 156 1081 l 103 997 l 32 997 l 106 1149 l 206 1149 l 279 997 l 207 997 l 156 1081 z "},"Ï":{"ha":303,"x_min":-11,"x_max":311,"o":"m 251 1014 q 220 1014 251 1014 q 190 1072 190 1014 q 251 1131 190 1131 q 311 1072 311 1131 q 251 1014 311 1014 m 49 1014 q 19 1014 49 1014 q -11 1072 -11 1014 q 49 1131 -11 1131 q 110 1072 110 1131 q 49 1014 110 1014 m 86 940 l 215 940 l 215 0 l 86 0 l 86 940 z "},"Ð":{"ha":660,"x_min":-6,"x_max":589,"o":"m 92 940 l 363 940 q 531 885 474 940 q 589 731 589 829 l 589 215 q 535 58 589 115 q 367 0 481 0 l 92 0 l 92 408 l -6 408 l -6 517 l 92 517 l 92 940 m 461 224 l 461 726 q 350 833 461 833 l 219 833 l 219 517 l 351 517 l 351 408 l 219 408 l 219 111 l 350 111 q 461 224 461 111 z "},"Ñ":{"ha":706,"x_min":86,"x_max":619,"o":"m 463 1139 l 543 1139 l 543 1124 q 517 1039 543 1069 q 449 1008 492 1008 q 360 1037 407 1008 q 294 1065 313 1065 q 264 1019 264 1065 l 264 1007 l 183 1007 l 183 1021 q 208 1106 183 1074 q 278 1138 233 1138 q 371 1109 324 1138 q 432 1081 418 1081 q 463 1126 463 1081 l 463 1139 m 493 940 l 619 940 l 619 0 l 482 0 q 227 657 253 585 q 196 743 201 729 q 203 627 196 739 q 213 413 211 515 l 213 0 l 86 0 l 86 940 l 225 940 q 471 305 435 407 q 508 200 507 203 q 501 322 508 213 q 493 533 493 432 l 493 940 z "},"Ò":{"ha":646,"x_min":72,"x_max":574,"o":"m 190 1149 l 299 1149 l 354 997 l 278 997 l 190 1149 m 446 722 q 323 839 446 839 q 200 722 200 839 l 200 218 q 323 103 200 103 q 446 218 446 103 l 446 722 m 72 726 q 135 892 72 829 q 322 954 199 954 q 510 892 446 954 q 574 726 574 829 l 574 214 q 510 49 574 111 q 322 -14 446 -14 q 135 49 199 -14 q 72 214 72 111 l 72 726 z "},"Ó":{"ha":646,"x_min":72,"x_max":574,"o":"m 446 722 q 323 839 446 839 q 200 722 200 839 l 200 218 q 323 103 200 103 q 446 218 446 103 l 446 722 m 72 726 q 135 892 72 829 q 322 954 199 954 q 510 892 446 954 q 574 726 574 829 l 574 214 q 510 49 574 111 q 322 -14 446 -14 q 135 49 199 -14 q 72 214 72 111 l 72 726 m 344 1149 l 453 1149 l 365 997 l 289 997 l 344 1149 z "},"Ô":{"ha":646,"x_min":72,"x_max":574,"o":"m 72 214 l 72 726 q 135 892 72 829 q 322 954 199 954 q 510 892 446 954 q 574 726 574 829 l 574 214 q 510 49 574 111 q 322 -14 446 -14 q 135 49 199 -14 q 72 214 72 111 m 446 218 l 446 722 q 323 839 446 839 q 200 722 200 839 l 200 218 q 323 103 200 103 q 446 218 446 103 m 324 1081 l 271 997 l 200 997 l 274 1149 l 374 1149 l 447 997 l 375 997 l 324 1081 z "},"Õ":{"ha":646,"x_min":72,"x_max":574,"o":"m 422 1139 l 503 1139 l 503 1124 q 477 1039 503 1069 q 409 1008 451 1008 q 319 1037 367 1008 q 254 1065 272 1065 q 224 1019 224 1065 l 224 1007 l 143 1007 l 143 1021 q 168 1106 143 1074 q 238 1138 193 1138 q 331 1109 283 1138 q 392 1081 378 1081 q 422 1126 422 1081 l 422 1139 m 446 722 q 323 839 446 839 q 200 722 200 839 l 200 218 q 323 103 200 103 q 446 218 446 103 l 446 722 m 72 726 q 135 892 72 829 q 322 954 199 954 q 510 892 446 954 q 574 726 574 829 l 574 214 q 510 49 574 111 q 322 -14 446 -14 q 135 49 199 -14 q 72 214 72 111 l 72 726 z "},"Ö":{"ha":646,"x_min":72,"x_max":574,"o":"m 446 722 q 323 839 446 839 q 200 722 200 839 l 200 218 q 323 103 200 103 q 446 218 446 103 l 446 722 m 72 726 q 135 892 72 829 q 322 954 199 954 q 510 892 446 954 q 574 726 574 829 l 574 214 q 510 49 574 111 q 322 -14 446 -14 q 135 49 199 -14 q 72 214 72 111 l 72 726 m 423 1014 q 393 1014 423 1014 q 363 1072 363 1014 q 423 1131 363 1131 q 483 1072 483 1131 q 423 1014 483 1014 m 222 1014 q 191 1014 222 1014 q 161 1072 161 1014 q 222 1131 161 1131 q 282 1072 282 1131 q 222 1014 282 1014 z "},"×":{"ha":564,"x_min":46,"x_max":517,"o":"m 517 296 l 440 219 l 282 379 l 122 219 l 46 296 l 206 456 l 47 613 l 124 689 l 282 532 l 439 689 l 515 613 l 358 456 l 517 296 z "},"Ø":{"ha":646,"x_min":69,"x_max":576,"o":"m 574 726 l 574 214 q 510 49 574 111 q 322 -14 446 -14 q 168 24 229 -14 l 158 0 l 69 0 l 107 83 q 72 214 72 136 l 72 726 q 135 892 72 829 q 308 954 199 954 q 478 917 417 954 l 489 940 l 576 940 l 539 857 q 574 726 574 804 m 200 722 l 200 293 l 425 797 q 322 839 394 839 q 200 722 200 839 m 446 218 l 446 647 l 222 143 q 322 103 251 103 q 446 218 446 103 z "},"Ù":{"ha":658,"x_min":79,"x_max":578,"o":"m 203 1149 l 311 1149 l 367 997 l 290 997 l 203 1149 m 450 940 l 578 940 l 578 214 q 515 49 578 111 q 329 -14 453 -14 q 142 49 206 -14 q 79 214 79 111 l 79 940 l 207 940 l 207 218 q 328 103 207 103 q 450 218 450 103 l 450 940 z "},"Ú":{"ha":658,"x_min":79,"x_max":578,"o":"m 450 940 l 578 940 l 578 214 q 515 49 578 111 q 329 -14 453 -14 q 142 49 206 -14 q 79 214 79 111 l 79 940 l 207 940 l 207 218 q 328 103 207 103 q 450 218 450 103 l 450 940 m 346 1149 l 454 1149 l 367 997 l 290 997 l 346 1149 z "},"Û":{"ha":658,"x_min":79,"x_max":578,"o":"m 450 940 l 578 940 l 578 214 q 515 49 578 111 q 329 -14 453 -14 q 142 49 206 -14 q 79 214 79 111 l 79 940 l 207 940 l 207 218 q 328 103 207 103 q 450 218 450 103 l 450 940 m 328 1081 l 275 997 l 204 997 l 278 1149 l 378 1149 l 451 997 l 379 997 l 328 1081 z "},"Ü":{"ha":658,"x_min":79,"x_max":578,"o":"m 450 940 l 578 940 l 578 214 q 515 49 578 111 q 329 -14 453 -14 q 142 49 206 -14 q 79 214 79 111 l 79 940 l 207 940 l 207 218 q 328 103 207 103 q 450 218 450 103 l 450 940 m 428 1014 q 398 1014 428 1014 q 368 1072 368 1014 q 428 1131 368 1131 q 489 1072 489 1131 q 428 1014 489 1014 m 227 1014 q 197 1014 227 1014 q 167 1072 167 1014 q 227 1131 167 1131 q 288 1072 288 1131 q 227 1014 288 1014 z "},"Ý":{"ha":596,"x_min":4,"x_max":592,"o":"m 313 1149 l 421 1149 l 333 997 l 257 997 l 313 1149 m 363 0 l 233 0 l 233 311 l 4 940 l 136 940 l 217 717 q 300 453 243 640 q 382 717 322 529 l 463 940 l 592 940 l 363 311 l 363 0 z "},"Þ":{"ha":606,"x_min":100,"x_max":574,"o":"m 225 779 l 344 779 q 515 723 456 779 q 574 568 574 667 l 574 372 q 515 218 574 274 q 344 163 456 163 l 225 163 l 225 0 l 100 0 l 100 940 l 225 940 l 225 779 m 449 382 l 449 560 q 336 668 449 668 l 225 668 l 225 275 l 336 275 q 422 301 396 275 q 449 382 449 328 z "},"ß":{"ha":757,"x_min":86,"x_max":729,"o":"m 86 753 q 154 935 86 872 q 347 999 222 999 q 539 940 471 999 q 607 778 607 882 q 581 674 607 721 q 528 593 554 628 q 501 532 501 558 l 501 518 q 525 464 501 490 q 609 403 549 438 q 699 329 669 368 q 729 235 729 290 l 729 196 q 474 -6 729 -6 q 315 15 390 -6 l 315 133 q 465 108 388 108 q 574 133 543 108 q 606 203 606 157 l 606 225 q 584 283 606 258 q 499 344 563 308 q 404 417 436 381 q 372 507 372 454 l 372 526 q 426 651 372 579 q 481 774 481 722 q 353 885 481 885 q 244 851 278 885 q 210 746 210 817 l 210 0 l 86 0 l 86 753 z "},"à":{"ha":594,"x_min":39,"x_max":515,"o":"m 164 1010 l 272 1010 l 328 858 l 251 858 l 164 1010 m 165 229 l 165 188 q 188 119 165 142 q 273 96 210 96 q 392 139 336 96 l 392 374 l 258 338 q 185 299 204 322 q 165 229 165 275 m 78 779 q 278 804 156 804 q 515 590 515 804 l 515 0 l 393 0 l 393 57 q 231 -4 329 -4 q 39 188 39 -4 l 39 233 q 79 359 39 311 q 208 432 119 407 l 392 483 l 392 592 q 364 666 392 643 q 247 689 336 689 q 78 661 158 689 l 78 779 z "},"á":{"ha":594,"x_min":39,"x_max":515,"o":"m 303 1010 l 411 1010 l 324 858 l 247 858 l 303 1010 m 165 229 l 165 188 q 188 119 165 142 q 273 96 210 96 q 392 139 336 96 l 392 374 l 258 338 q 185 299 204 322 q 165 229 165 275 m 78 779 q 278 804 156 804 q 515 590 515 804 l 515 0 l 393 0 l 393 57 q 231 -4 329 -4 q 39 188 39 -4 l 39 233 q 79 359 39 311 q 208 432 119 407 l 392 483 l 392 592 q 364 666 392 643 q 247 689 336 689 q 78 661 158 689 l 78 779 z "},"â":{"ha":594,"x_min":39,"x_max":515,"o":"m 78 779 q 278 804 156 804 q 515 590 515 804 l 515 0 l 393 0 l 393 57 q 231 -4 329 -4 q 39 188 39 -4 l 39 233 q 79 359 39 311 q 208 432 119 407 l 392 483 l 392 592 q 364 666 392 643 q 247 689 336 689 q 78 661 158 689 l 78 779 m 165 229 l 165 188 q 188 119 165 142 q 273 96 210 96 q 392 139 336 96 l 392 374 l 258 338 q 185 299 204 322 q 165 229 165 275 m 299 942 l 246 858 l 175 858 l 249 1010 l 349 1010 l 422 858 l 350 858 l 299 942 z "},"ã":{"ha":594,"x_min":39,"x_max":515,"o":"m 393 1000 l 474 1000 l 474 985 q 448 900 474 931 q 380 869 422 869 q 290 898 338 869 q 225 926 243 926 q 194 881 194 926 l 194 868 l 114 868 l 114 882 q 139 967 114 935 q 209 999 164 999 q 301 970 254 999 q 363 942 349 942 q 393 988 393 942 l 393 1000 m 165 229 l 165 188 q 188 119 165 142 q 273 96 210 96 q 392 139 336 96 l 392 374 l 258 338 q 185 299 204 322 q 165 229 165 275 m 78 779 q 278 804 156 804 q 515 590 515 804 l 515 0 l 393 0 l 393 57 q 231 -4 329 -4 q 39 188 39 -4 l 39 233 q 79 359 39 311 q 208 432 119 407 l 392 483 l 392 592 q 364 666 392 643 q 247 689 336 689 q 78 661 158 689 l 78 779 z "},"ä":{"ha":594,"x_min":39,"x_max":515,"o":"m 392 875 q 362 875 392 875 q 332 933 332 875 q 392 992 332 992 q 453 933 453 992 q 392 875 453 875 m 191 875 q 161 875 191 875 q 131 933 131 875 q 191 992 131 992 q 251 933 251 992 q 191 875 251 875 m 165 229 l 165 188 q 188 119 165 142 q 273 96 210 96 q 392 139 336 96 l 392 374 l 258 338 q 185 299 204 322 q 165 229 165 275 m 78 779 q 278 804 156 804 q 515 590 515 804 l 515 0 l 393 0 l 393 57 q 231 -4 329 -4 q 39 188 39 -4 l 39 233 q 79 359 39 311 q 208 432 119 407 l 392 483 l 392 592 q 364 666 392 643 q 247 689 336 689 q 78 661 158 689 l 78 779 z "},"å":{"ha":594,"x_min":39,"x_max":515,"o":"m 290 888 q 301 888 290 888 q 324 900 311 888 q 336 933 336 913 q 324 967 336 954 q 290 981 311 981 q 257 967 269 981 q 244 933 244 954 q 257 900 244 913 q 290 888 269 888 m 213 860 q 199 875 213 860 q 185 935 185 890 q 213 1008 185 979 q 290 1038 240 1038 q 368 1008 340 1038 q 396 935 396 979 q 368 860 396 890 q 291 831 340 831 q 213 860 242 831 m 165 229 l 165 188 q 188 119 165 142 q 273 96 210 96 q 392 139 336 96 l 392 374 l 258 338 q 185 299 204 322 q 165 229 165 275 m 78 779 q 278 804 156 804 q 515 590 515 804 l 515 0 l 393 0 l 393 57 q 231 -4 329 -4 q 39 188 39 -4 l 39 233 q 79 359 39 311 q 208 432 119 407 l 392 483 l 392 592 q 364 666 392 643 q 247 689 336 689 q 78 661 158 689 l 78 779 z "},"æ":{"ha":904,"x_min":42,"x_max":861,"o":"m 740 593 q 629 703 740 703 q 543 674 572 703 q 514 593 514 644 l 514 444 l 740 444 l 740 593 m 165 229 l 165 188 q 261 96 165 96 q 393 136 342 96 l 393 375 l 258 338 q 185 299 204 322 q 165 229 165 275 m 453 747 q 632 811 517 811 q 804 752 747 811 q 861 593 861 693 l 861 340 l 515 340 l 515 217 q 553 133 515 160 q 674 107 590 107 q 839 132 758 107 l 839 15 q 661 -7 756 -7 q 456 53 519 -7 q 243 -6 379 -6 q 42 188 42 -6 l 42 233 q 81 359 42 311 q 208 433 121 407 l 392 486 l 390 596 q 363 666 390 643 q 247 689 336 689 q 78 661 158 689 l 78 778 q 276 804 160 804 q 453 747 393 804 z "},"ç":{"ha":517,"x_min":72,"x_max":472,"o":"m 310 -56 q 374 -81 347 -58 q 400 -151 400 -104 q 364 -227 400 -199 q 279 -256 328 -256 q 201 -246 231 -256 l 201 -182 q 258 -190 222 -190 q 322 -145 322 -190 q 256 -99 322 -100 l 239 -99 l 258 -4 q 72 203 72 19 l 72 594 q 317 804 72 804 q 471 786 401 804 l 471 667 q 333 688 408 688 q 230 664 258 688 q 201 588 201 640 l 201 210 q 229 134 201 157 q 333 111 257 111 q 472 132 410 111 l 472 13 q 321 -7 394 -7 l 310 -56 z "},"è":{"ha":604,"x_min":72,"x_max":542,"o":"m 72 210 l 72 593 q 131 752 72 693 q 308 811 189 811 q 484 752 426 811 q 542 593 542 693 l 542 340 l 197 340 l 197 217 q 232 134 197 161 q 351 107 267 107 q 518 132 436 107 l 518 15 q 342 -7 438 -7 q 72 210 72 -7 m 197 444 l 419 444 l 419 593 q 308 703 419 703 q 197 593 197 703 l 197 444 m 353 858 l 276 858 l 189 1010 l 297 1010 l 353 858 z "},"é":{"ha":604,"x_min":72,"x_max":542,"o":"m 72 210 l 72 593 q 131 752 72 693 q 308 811 189 811 q 484 752 426 811 q 542 593 542 693 l 542 340 l 197 340 l 197 217 q 232 134 197 161 q 351 107 267 107 q 518 132 436 107 l 518 15 q 342 -7 438 -7 q 72 210 72 -7 m 197 444 l 419 444 l 419 593 q 308 703 419 703 q 197 593 197 703 l 197 444 m 438 1010 l 350 858 l 274 858 l 329 1010 l 438 1010 z "},"ê":{"ha":604,"x_min":72,"x_max":542,"o":"m 72 210 l 72 593 q 131 752 72 693 q 308 811 189 811 q 484 752 426 811 q 542 593 542 693 l 542 340 l 197 340 l 197 217 q 232 134 197 161 q 351 107 267 107 q 518 132 436 107 l 518 15 q 342 -7 438 -7 q 72 210 72 -7 m 197 444 l 419 444 l 419 593 q 308 703 419 703 q 197 593 197 703 l 197 444 m 317 942 l 264 858 l 193 858 l 267 1010 l 367 1010 l 440 858 l 368 858 l 317 942 z "},"ë":{"ha":604,"x_min":72,"x_max":542,"o":"m 72 210 l 72 593 q 131 752 72 693 q 308 811 189 811 q 484 752 426 811 q 542 593 542 693 l 542 340 l 197 340 l 197 217 q 232 134 197 161 q 351 107 267 107 q 518 132 436 107 l 518 15 q 342 -7 438 -7 q 72 210 72 -7 m 197 444 l 419 444 l 419 593 q 308 703 419 703 q 197 593 197 703 l 197 444 m 212 992 q 242 992 212 992 q 272 933 272 992 q 212 875 272 875 q 151 933 151 875 q 212 992 151 992 m 413 992 q 443 992 413 992 q 474 933 474 992 q 413 875 474 875 q 353 933 353 875 q 413 992 353 992 z "},"ì":{"ha":301,"x_min":21,"x_max":215,"o":"m 21 1010 l 129 1010 l 185 858 l 108 858 l 21 1010 m 86 789 l 215 789 l 215 0 l 86 0 l 86 789 z "},"í":{"ha":301,"x_min":86,"x_max":275,"o":"m 167 1010 l 275 1010 l 188 858 l 111 858 l 167 1010 m 86 789 l 215 789 l 215 0 l 86 0 l 86 789 z "},"î":{"ha":301,"x_min":29,"x_max":276,"o":"m 86 0 l 86 789 l 215 789 l 215 0 l 86 0 m 153 942 l 100 858 l 29 858 l 103 1010 l 203 1010 l 276 858 l 204 858 l 153 942 z "},"ï":{"ha":301,"x_min":-10,"x_max":313,"o":"m 252 875 q 222 875 252 875 q 192 933 192 875 q 252 992 192 992 q 313 933 313 992 q 252 875 313 875 m 51 875 q 20 875 51 875 q -10 933 -10 875 q 51 992 -10 992 q 111 933 111 992 q 51 875 111 875 m 86 789 l 215 789 l 215 0 l 86 0 l 86 789 z "},"ð":{"ha":629,"x_min":79,"x_max":550,"o":"m 550 428 l 550 208 q 491 48 550 107 q 315 -11 432 -11 q 138 48 197 -11 q 79 208 79 107 l 79 415 q 130 569 79 514 q 288 624 181 624 q 406 579 361 624 q 325 767 382 674 l 175 694 l 175 775 l 286 828 q 193 940 249 883 l 347 940 q 394 881 381 900 l 535 947 l 535 868 l 435 819 q 550 428 550 626 m 425 210 l 425 486 q 324 522 392 522 q 230 495 256 522 q 204 413 204 468 l 204 211 q 315 101 204 101 q 425 210 425 101 z "},"ñ":{"ha":631,"x_min":86,"x_max":551,"o":"m 418 1000 l 499 1000 l 499 985 q 473 900 499 931 q 405 869 447 869 q 315 898 363 869 q 250 926 268 926 q 219 881 219 926 l 219 868 l 139 868 l 139 882 q 164 967 139 935 q 234 999 189 999 q 326 970 279 999 q 388 942 374 942 q 418 988 418 942 l 418 1000 m 208 761 q 373 801 293 801 q 502 755 453 801 q 551 621 551 708 l 551 0 l 422 0 l 422 599 q 338 683 422 683 q 215 651 279 683 l 215 0 l 86 0 l 86 797 l 208 797 l 208 761 z "},"ò":{"ha":617,"x_min":72,"x_max":544,"o":"m 189 1010 l 297 1010 l 353 858 l 276 858 l 189 1010 m 418 592 q 309 700 418 700 q 200 592 200 700 l 200 206 q 309 97 200 97 q 418 206 418 97 l 418 592 m 72 594 q 131 753 72 694 q 308 811 189 811 q 486 753 428 811 q 544 594 544 694 l 544 203 q 486 44 544 103 q 308 -14 428 -14 q 131 44 189 -14 q 72 203 72 103 l 72 594 z "},"ó":{"ha":617,"x_min":72,"x_max":544,"o":"m 418 592 q 309 700 418 700 q 200 592 200 700 l 200 206 q 309 97 200 97 q 418 206 418 97 l 418 592 m 72 594 q 131 753 72 694 q 308 811 189 811 q 486 753 428 811 q 544 594 544 694 l 544 203 q 486 44 544 103 q 308 -14 428 -14 q 131 44 189 -14 q 72 203 72 103 l 72 594 m 332 1010 l 440 1010 l 353 858 l 276 858 l 332 1010 z "},"ô":{"ha":617,"x_min":72,"x_max":544,"o":"m 72 203 l 72 594 q 131 753 72 694 q 308 811 189 811 q 486 753 428 811 q 544 594 544 694 l 544 203 q 486 44 544 103 q 308 -14 428 -14 q 131 44 189 -14 q 72 203 72 103 m 418 206 l 418 592 q 309 700 418 700 q 200 592 200 700 l 200 206 q 309 97 200 97 q 418 206 418 97 m 314 942 l 261 858 l 190 858 l 264 1010 l 364 1010 l 438 858 l 365 858 l 314 942 z "},"õ":{"ha":617,"x_min":72,"x_max":544,"o":"m 413 1000 l 493 1000 l 493 985 q 467 900 493 931 q 399 869 442 869 q 310 898 357 869 q 244 926 263 926 q 214 881 214 926 l 214 868 l 133 868 l 133 882 q 158 967 133 935 q 228 999 183 999 q 321 970 274 999 q 382 942 368 942 q 413 988 413 942 l 413 1000 m 418 592 q 309 700 418 700 q 200 592 200 700 l 200 206 q 309 97 200 97 q 418 206 418 97 l 418 592 m 72 594 q 131 753 72 694 q 308 811 189 811 q 486 753 428 811 q 544 594 544 694 l 544 203 q 486 44 544 103 q 308 -14 428 -14 q 131 44 189 -14 q 72 203 72 103 l 72 594 z "},"ö":{"ha":617,"x_min":72,"x_max":544,"o":"m 418 592 q 309 700 418 700 q 200 592 200 700 l 200 206 q 309 97 200 97 q 418 206 418 97 l 418 592 m 72 594 q 131 753 72 694 q 308 811 189 811 q 486 753 428 811 q 544 594 544 694 l 544 203 q 486 44 544 103 q 308 -14 428 -14 q 131 44 189 -14 q 72 203 72 103 l 72 594 m 417 875 q 387 875 417 875 q 357 933 357 875 q 417 992 357 992 q 478 933 478 992 q 417 875 478 875 m 216 875 q 186 875 216 875 q 156 933 156 875 q 216 992 156 992 q 276 933 276 992 q 216 875 276 875 z "},"÷":{"ha":629,"x_min":56,"x_max":572,"o":"m 317 618 q 281 618 317 618 q 246 689 246 618 q 317 760 246 760 q 388 689 388 760 q 317 618 388 618 m 317 142 q 281 142 317 142 q 246 213 246 142 q 317 283 246 283 q 388 213 388 283 q 317 142 388 142 m 56 506 l 572 506 l 572 397 l 56 397 l 56 506 z "},"ø":{"ha":617,"x_min":69,"x_max":556,"o":"m 544 594 l 544 203 q 486 44 544 103 q 320 -14 428 -14 q 154 25 213 -14 l 142 0 l 69 0 l 107 72 q 72 203 72 125 l 72 594 q 131 753 72 694 q 299 811 189 811 q 468 768 410 811 l 483 797 l 556 797 l 514 717 q 544 594 544 668 m 200 592 l 200 251 l 407 650 q 308 700 382 700 q 200 592 200 700 m 418 206 l 418 532 l 215 140 q 308 97 240 97 q 418 206 418 97 z "},"ù":{"ha":633,"x_min":79,"x_max":547,"o":"m 182 1010 l 290 1010 l 346 858 l 269 858 l 182 1010 m 418 797 l 547 797 l 547 0 l 425 0 l 425 38 q 265 -3 353 -3 q 128 47 178 -3 q 79 192 79 97 l 79 797 l 210 797 l 210 208 q 303 113 210 113 q 418 149 369 113 l 418 797 z "},"ú":{"ha":633,"x_min":79,"x_max":547,"o":"m 418 797 l 547 797 l 547 0 l 425 0 l 425 38 q 265 -3 353 -3 q 128 47 178 -3 q 79 192 79 97 l 79 797 l 210 797 l 210 208 q 303 113 210 113 q 418 149 369 113 l 418 797 m 332 1010 l 440 1010 l 353 858 l 276 858 l 332 1010 z "},"û":{"ha":633,"x_min":79,"x_max":547,"o":"m 418 797 l 547 797 l 547 0 l 425 0 l 425 38 q 265 -3 353 -3 q 128 47 178 -3 q 79 192 79 97 l 79 797 l 210 797 l 210 208 q 303 113 210 113 q 418 149 369 113 l 418 797 m 317 942 l 264 858 l 193 858 l 267 1010 l 367 1010 l 440 858 l 368 858 l 317 942 z "},"ü":{"ha":633,"x_min":79,"x_max":547,"o":"m 418 797 l 547 797 l 547 0 l 425 0 l 425 38 q 265 -3 353 -3 q 128 47 178 -3 q 79 192 79 97 l 79 797 l 210 797 l 210 208 q 303 113 210 113 q 418 149 369 113 l 418 797 m 417 875 q 387 875 417 875 q 357 933 357 875 q 417 992 357 992 q 478 933 478 992 q 417 875 478 875 m 216 875 q 186 875 216 875 q 156 933 156 875 q 216 992 156 992 q 276 933 276 992 q 216 875 276 875 z "},"ý":{"ha":561,"x_min":22,"x_max":539,"o":"m 294 1010 l 403 1010 l 315 858 l 239 858 l 294 1010 m 413 797 l 539 797 l 329 -207 l 204 -207 l 247 0 l 192 0 l 22 797 l 150 797 q 282 96 256 289 q 339 440 304 260 l 413 797 z "},"þ":{"ha":635,"x_min":86,"x_max":554,"o":"m 425 600 q 339 685 425 685 q 215 653 279 685 l 215 115 l 315 115 q 425 218 425 115 l 425 600 m 86 1010 l 214 1010 l 214 764 q 378 801 300 801 q 505 755 456 801 q 554 621 554 708 l 554 207 q 498 53 554 107 q 347 0 442 0 l 215 0 l 215 -236 l 86 -236 l 86 1010 z "},"ÿ":{"ha":561,"x_min":22,"x_max":539,"o":"m 413 797 l 539 797 l 329 -207 l 204 -207 l 247 0 l 192 0 l 22 797 l 150 797 q 282 96 256 289 q 339 440 304 260 l 413 797 m 380 875 q 350 875 380 875 q 319 933 319 875 q 380 992 319 992 q 440 933 440 992 q 380 875 440 875 m 178 875 q 148 875 178 875 q 118 933 118 875 q 178 992 118 992 q 239 933 239 992 q 178 875 239 875 z "},"Ā":{"ha":626,"x_min":19,"x_max":608,"o":"m 482 0 l 431 250 l 196 250 l 144 0 l 19 0 l 224 940 l 404 940 l 608 0 l 482 0 m 218 361 l 407 361 l 313 822 l 218 361 m 474 1111 l 474 1035 l 149 1035 l 149 1111 l 474 1111 z "},"ā":{"ha":594,"x_min":39,"x_max":515,"o":"m 131 972 l 456 972 l 456 896 l 131 896 l 131 972 m 165 229 l 165 188 q 188 119 165 142 q 273 96 210 96 q 392 139 336 96 l 392 374 l 258 338 q 185 299 204 322 q 165 229 165 275 m 78 779 q 278 804 156 804 q 515 590 515 804 l 515 0 l 393 0 l 393 57 q 231 -4 329 -4 q 39 188 39 -4 l 39 233 q 79 359 39 311 q 208 432 119 407 l 392 483 l 392 592 q 364 666 392 643 q 247 689 336 689 q 78 661 158 689 l 78 779 z "},"Ă":{"ha":626,"x_min":19,"x_max":608,"o":"m 482 0 l 431 250 l 196 250 l 144 0 l 19 0 l 224 940 l 404 940 l 608 0 l 482 0 m 218 361 l 407 361 l 313 822 l 218 361 m 389 1149 l 468 1149 q 425 1040 467 1082 q 313 997 383 997 q 200 1040 242 997 q 157 1149 158 1082 l 236 1149 q 256 1091 236 1113 q 313 1069 276 1069 q 369 1091 349 1069 q 389 1149 389 1113 z "},"ă":{"ha":594,"x_min":39,"x_max":515,"o":"m 371 1010 l 450 1010 q 407 901 449 943 q 294 858 365 858 q 182 901 224 858 q 139 1010 140 943 l 218 1010 q 238 952 218 974 q 294 931 258 931 q 351 952 331 931 q 371 1010 371 974 m 165 229 l 165 188 q 188 119 165 142 q 273 96 210 96 q 392 139 336 96 l 392 374 l 258 338 q 185 299 204 322 q 165 229 165 275 m 78 779 q 278 804 156 804 q 515 590 515 804 l 515 0 l 393 0 l 393 57 q 231 -4 329 -4 q 39 188 39 -4 l 39 233 q 79 359 39 311 q 208 432 119 407 l 392 483 l 392 592 q 364 666 392 643 q 247 689 336 689 q 78 661 158 689 l 78 779 z "},"Ą":{"ha":626,"x_min":19,"x_max":608,"o":"m 542 -129 q 590 -179 542 -179 l 607 -179 l 607 -254 l 583 -254 q 465 -154 465 -254 q 550 0 465 -68 l 482 0 l 431 250 l 196 250 l 144 0 l 19 0 l 224 940 l 404 940 l 608 0 l 607 0 q 542 -129 542 -56 m 218 361 l 407 361 l 313 822 l 218 361 z "},"ą":{"ha":594,"x_min":39,"x_max":515,"o":"m 78 779 q 278 804 156 804 q 515 590 515 804 l 515 0 l 514 0 q 449 -129 449 -56 q 497 -179 449 -179 l 514 -179 l 514 -254 l 490 -254 q 372 -154 372 -254 q 457 0 372 -68 l 393 0 l 393 57 q 231 -4 329 -4 q 39 188 39 -4 l 39 233 q 79 359 39 311 q 208 432 119 407 l 392 483 l 392 592 q 364 666 392 643 q 247 689 336 689 q 78 661 158 689 l 78 779 m 165 229 l 165 188 q 188 119 165 142 q 273 96 210 96 q 392 139 336 96 l 392 374 l 258 338 q 185 299 204 322 q 165 229 165 275 z "},"Ć":{"ha":554,"x_min":72,"x_max":507,"o":"m 72 740 q 138 893 72 839 q 339 947 204 947 q 504 926 429 947 l 504 808 q 342 832 421 832 q 233 806 264 832 q 201 732 201 781 l 201 208 q 233 134 201 160 q 349 108 264 108 q 507 132 433 108 l 507 15 q 338 -7 438 -7 q 72 200 72 -7 l 72 740 m 339 1149 l 447 1149 l 360 997 l 283 997 l 339 1149 z "},"ć":{"ha":517,"x_min":72,"x_max":472,"o":"m 72 594 q 317 804 72 804 q 471 786 401 804 l 471 667 q 333 688 408 688 q 230 664 258 688 q 201 588 201 640 l 201 210 q 229 134 201 157 q 333 111 257 111 q 472 132 410 111 l 472 13 q 317 -7 394 -7 q 72 203 72 -7 l 72 594 m 331 1010 l 439 1010 l 351 858 l 275 858 l 331 1010 z "},"Č":{"ha":554,"x_min":72,"x_max":507,"o":"m 201 732 l 201 208 q 233 134 201 160 q 349 108 264 108 q 507 132 433 108 l 507 15 q 338 -7 438 -7 q 72 200 72 -7 l 72 740 q 138 893 72 839 q 339 947 204 947 q 504 926 429 947 l 504 808 q 342 832 421 832 q 233 806 264 832 q 201 732 201 781 m 271 997 l 197 1149 l 268 1149 l 321 1065 l 372 1149 l 444 1149 l 371 997 l 271 997 z "},"č":{"ha":517,"x_min":72,"x_max":472,"o":"m 201 588 l 201 210 q 229 134 201 157 q 333 111 257 111 q 472 132 410 111 l 472 13 q 317 -7 394 -7 q 72 203 72 -7 l 72 594 q 317 804 72 804 q 471 786 401 804 l 471 667 q 333 688 408 688 q 230 664 258 688 q 201 588 201 640 m 260 858 l 186 1010 l 257 1010 l 310 926 l 361 1010 l 433 1010 l 360 858 l 260 858 z "},"Ď":{"ha":657,"x_min":86,"x_max":583,"o":"m 86 940 l 357 940 q 526 885 468 940 q 583 731 583 829 l 583 215 q 529 58 583 115 q 361 0 475 0 l 86 0 l 86 940 m 456 224 l 456 726 q 344 833 456 833 l 214 833 l 214 111 l 344 111 q 456 224 456 111 m 267 997 l 193 1149 l 264 1149 l 317 1065 l 368 1149 l 440 1149 l 367 997 l 267 997 z "},"ď":{"ha":643,"x_min":72,"x_max":717,"o":"m 676 1008 q 717 965 717 1008 q 647 826 717 922 l 594 826 l 631 1008 l 676 1008 m 411 682 l 315 682 q 201 576 201 682 l 201 207 q 294 111 201 111 q 411 150 367 111 l 411 682 m 411 1010 l 540 1010 l 540 0 l 414 0 l 414 50 q 263 -4 357 -4 q 121 47 169 -4 q 72 192 72 99 l 72 579 q 132 740 72 682 q 299 797 192 797 l 411 797 l 411 1010 z "},"Đ":{"ha":660,"x_min":7,"x_max":589,"o":"m 92 940 l 363 940 q 531 885 474 940 q 589 731 589 829 l 589 215 q 535 58 589 115 q 367 0 481 0 l 92 0 l 92 414 l 7 414 l 7 522 l 92 522 l 92 940 m 461 224 l 461 726 q 350 833 461 833 l 219 833 l 219 522 l 344 522 l 344 414 l 219 414 l 219 111 l 350 111 q 461 224 461 111 z "},"đ":{"ha":628,"x_min":74,"x_max":597,"o":"m 597 944 l 597 875 l 542 875 l 542 0 l 415 0 l 415 50 q 265 -4 358 -4 q 122 47 171 -4 q 74 192 74 99 l 74 579 q 133 740 74 682 q 300 797 193 797 l 413 797 l 413 875 l 239 875 l 239 944 l 413 944 l 413 1010 l 542 1010 l 542 944 l 597 944 m 413 682 l 317 682 q 203 576 203 682 l 203 207 q 296 111 203 111 q 413 150 368 111 l 413 682 z "},"Ē":{"ha":561,"x_min":86,"x_max":514,"o":"m 136 1111 l 461 1111 l 461 1035 l 136 1035 l 136 1111 m 86 940 l 514 940 l 514 829 l 214 829 l 214 531 l 475 531 l 475 419 l 214 419 l 214 113 l 514 113 l 514 0 l 86 0 l 86 940 z "},"ē":{"ha":604,"x_min":72,"x_max":542,"o":"m 72 210 l 72 593 q 131 752 72 693 q 308 811 189 811 q 484 752 426 811 q 542 593 542 693 l 542 340 l 197 340 l 197 217 q 232 134 197 161 q 351 107 267 107 q 518 132 436 107 l 518 15 q 342 -7 438 -7 q 72 210 72 -7 m 197 444 l 419 444 l 419 593 q 308 703 419 703 q 197 593 197 703 l 197 444 m 471 972 l 471 896 l 146 896 l 146 972 l 471 972 z "},"Ė":{"ha":561,"x_min":86,"x_max":514,"o":"m 244 1094 q 305 1154 244 1154 q 365 1094 365 1154 q 305 1038 365 1038 q 244 1094 244 1038 m 86 940 l 514 940 l 514 829 l 214 829 l 214 531 l 475 531 l 475 419 l 214 419 l 214 113 l 514 113 l 514 0 l 86 0 l 86 940 z "},"ė":{"ha":604,"x_min":72,"x_max":542,"o":"m 72 210 l 72 593 q 131 752 72 693 q 308 811 189 811 q 484 752 426 811 q 542 593 542 693 l 542 340 l 197 340 l 197 217 q 232 134 197 161 q 351 107 267 107 q 518 132 436 107 l 518 15 q 342 -7 438 -7 q 72 210 72 -7 m 197 444 l 419 444 l 419 593 q 308 703 419 703 q 197 593 197 703 l 197 444 m 372 956 q 312 899 372 899 q 251 956 251 899 q 312 1015 251 1015 q 372 956 372 1015 z "},"Ę":{"ha":561,"x_min":86,"x_max":514,"o":"m 514 829 l 214 829 l 214 531 l 475 531 l 475 419 l 214 419 l 214 113 l 514 113 l 514 0 q 449 -129 449 -56 q 497 -179 449 -179 l 514 -179 l 514 -254 l 490 -254 q 372 -154 372 -254 q 457 0 372 -68 l 86 0 l 86 940 l 514 940 l 514 829 z "},"ę":{"ha":604,"x_min":72,"x_max":542,"o":"m 72 210 l 72 593 q 131 752 72 693 q 308 811 189 811 q 484 752 426 811 q 542 593 542 693 l 542 340 l 197 340 l 197 217 q 232 134 197 161 q 351 107 267 107 q 518 132 436 107 l 518 15 l 515 15 q 453 -112 453 -40 q 501 -162 453 -162 l 518 -162 l 518 -237 l 494 -237 q 376 -137 376 -237 q 442 -1 376 -64 q 342 -7 386 -7 q 72 210 72 -7 m 197 444 l 419 444 l 419 593 q 308 703 419 703 q 197 593 197 703 l 197 444 z "},"Ě":{"ha":561,"x_min":86,"x_max":514,"o":"m 514 829 l 214 829 l 214 531 l 475 531 l 475 419 l 214 419 l 214 113 l 514 113 l 514 0 l 86 0 l 86 940 l 514 940 l 514 829 m 250 997 l 176 1149 l 247 1149 l 300 1065 l 351 1149 l 424 1149 l 350 997 l 250 997 z "},"ě":{"ha":604,"x_min":72,"x_max":542,"o":"m 72 210 l 72 593 q 131 752 72 693 q 308 811 189 811 q 484 752 426 811 q 542 593 542 693 l 542 340 l 197 340 l 197 217 q 232 134 197 161 q 351 107 267 107 q 518 132 436 107 l 518 15 q 342 -7 438 -7 q 72 210 72 -7 m 197 444 l 419 444 l 419 593 q 308 703 419 703 q 197 593 197 703 l 197 444 m 263 858 l 189 1010 l 260 1010 l 313 926 l 364 1010 l 436 1010 l 363 858 l 263 858 z "},"Ğ":{"ha":631,"x_min":72,"x_max":556,"o":"m 403 1149 l 482 1149 q 439 1040 481 1082 q 326 997 397 997 q 214 1040 256 997 q 171 1149 172 1082 l 250 1149 q 270 1091 250 1113 q 326 1069 290 1069 q 383 1091 363 1069 q 403 1149 403 1113 m 72 733 q 141 890 72 833 q 349 947 210 947 q 525 924 451 947 l 525 801 q 351 831 438 831 q 201 724 201 831 l 201 210 q 325 108 201 108 q 431 132 394 108 l 431 474 l 556 474 l 556 49 q 331 -7 457 -7 q 72 200 72 -7 l 72 733 z "},"ğ":{"ha":624,"x_min":44,"x_max":600,"o":"m 600 747 l 554 747 q 499 735 522 747 q 538 604 538 686 l 538 492 q 478 340 538 394 q 301 285 419 286 q 233 222 233 285 q 252 181 233 193 q 315 168 271 168 l 394 168 q 592 3 592 168 l 592 -21 q 328 -207 592 -207 l 274 -207 q 44 -160 128 -207 l 44 -39 q 271 -97 136 -97 l 315 -97 q 435 -78 400 -97 q 469 -18 469 -58 l 469 -7 q 452 43 469 26 q 383 60 435 60 l 299 60 q 119 181 119 60 l 119 203 q 140 265 119 239 q 193 297 160 290 q 53 492 53 338 l 53 604 q 113 757 53 703 q 283 811 174 811 q 447 778 392 811 q 579 867 476 867 l 600 867 l 600 747 m 410 493 l 410 604 q 295 706 410 706 q 181 604 181 706 l 181 493 q 296 390 181 390 q 383 415 356 390 q 410 493 410 440 m 372 1010 l 451 1010 q 408 901 450 943 q 296 858 367 858 q 183 901 225 858 q 140 1010 142 943 l 219 1010 q 240 952 219 974 q 296 931 260 931 q 352 952 332 931 q 372 1010 372 974 z "},"Ģ":{"ha":631,"x_min":72,"x_max":556,"o":"m 347 -85 q 388 -128 388 -85 q 318 -267 388 -171 l 265 -267 l 301 -85 l 347 -85 m 72 733 q 141 890 72 833 q 349 947 210 947 q 525 924 451 947 l 525 801 q 351 831 438 831 q 201 724 201 831 l 201 210 q 325 108 201 108 q 431 132 394 108 l 431 474 l 556 474 l 556 49 q 331 -7 457 -7 q 72 200 72 -7 l 72 733 z "},"ģ":{"ha":624,"x_min":44,"x_max":600,"o":"m 600 747 l 554 747 q 499 735 522 747 q 538 604 538 686 l 538 492 q 478 340 538 394 q 301 285 419 286 q 233 222 233 285 q 252 181 233 193 q 315 168 271 168 l 394 168 q 592 3 592 168 l 592 -21 q 328 -207 592 -207 l 274 -207 q 44 -160 128 -207 l 44 -39 q 271 -97 136 -97 l 315 -97 q 435 -78 400 -97 q 469 -18 469 -58 l 469 -7 q 452 43 469 26 q 383 60 435 60 l 299 60 q 119 181 119 60 l 119 203 q 140 265 119 239 q 193 297 160 290 q 53 492 53 338 l 53 604 q 113 757 53 703 q 283 811 174 811 q 447 778 392 811 q 579 867 476 867 l 600 867 l 600 747 m 410 493 l 410 604 q 295 706 410 706 q 181 604 181 706 l 181 493 q 296 390 181 390 q 383 415 356 390 q 410 493 410 440 m 290 858 q 250 899 250 858 q 318 1040 250 940 l 372 1040 l 335 858 l 290 858 z "},"Ī":{"ha":303,"x_min":-8,"x_max":317,"o":"m -8 1111 l 317 1111 l 317 1035 l -8 1035 l -8 1111 m 86 940 l 215 940 l 215 0 l 86 0 l 86 940 z "},"ī":{"ha":301,"x_min":-11,"x_max":314,"o":"m -11 972 l 314 972 l 314 896 l -11 896 l -11 972 m 86 789 l 215 789 l 215 0 l 86 0 l 86 789 z "},"Į":{"ha":303,"x_min":75,"x_max":217,"o":"m 215 0 l 217 0 q 151 -129 151 -56 q 200 -179 151 -179 l 217 -179 l 217 -254 l 193 -254 q 75 -154 75 -254 q 160 0 75 -68 l 86 0 l 86 940 l 215 940 l 215 0 z "},"į":{"ha":301,"x_min":74,"x_max":226,"o":"m 86 0 l 86 789 l 215 789 l 215 0 q 150 -129 150 -56 q 199 -179 150 -179 l 215 -179 l 215 -254 l 192 -254 q 74 -154 74 -254 q 158 0 74 -68 l 86 0 m 226 945 q 226 907 226 945 q 151 869 226 869 q 75 945 75 869 q 151 1021 75 1021 q 226 945 226 1021 z "},"İ":{"ha":303,"x_min":86,"x_max":215,"o":"m 88 1094 q 148 1154 88 1154 q 208 1094 208 1154 q 148 1038 208 1038 q 88 1094 88 1038 m 86 940 l 215 940 l 215 0 l 86 0 l 86 940 z "},"ı":{"ha":301,"x_min":86,"x_max":215,"o":"m 86 789 l 215 789 l 215 0 l 86 0 l 86 789 z "},"Ķ":{"ha":621,"x_min":86,"x_max":601,"o":"m 339 -85 q 379 -125 379 -85 q 310 -267 379 -165 l 257 -267 l 293 -85 l 339 -85 m 86 940 l 214 940 l 214 0 l 86 0 l 86 940 m 451 940 l 589 940 l 399 476 l 601 0 l 460 0 l 263 474 l 451 940 z "},"ķ":{"ha":571,"x_min":86,"x_max":551,"o":"m 304 -85 q 344 -125 344 -85 q 275 -267 344 -165 l 222 -267 l 258 -85 l 304 -85 m 86 1010 l 213 1010 l 213 0 l 86 0 l 86 1010 m 404 797 l 536 797 l 378 415 l 551 0 l 414 0 l 246 419 l 404 797 z "},"Ĺ":{"ha":499,"x_min":86,"x_max":492,"o":"m 86 940 l 215 940 l 215 110 l 492 110 l 492 0 l 86 0 l 86 940 m 165 1149 l 274 1149 l 186 997 l 110 997 l 165 1149 z "},"ĺ":{"ha":301,"x_min":86,"x_max":275,"o":"m 86 1010 l 215 1010 l 215 0 l 86 0 l 86 1010 m 167 1218 l 275 1218 l 188 1067 l 111 1067 l 167 1218 z "},"Ļ":{"ha":499,"x_min":86,"x_max":492,"o":"m 290 -85 q 331 -125 331 -85 q 261 -267 331 -165 l 208 -267 l 244 -85 l 290 -85 m 86 940 l 215 940 l 215 110 l 492 110 l 492 0 l 86 0 l 86 940 z "},"ļ":{"ha":301,"x_min":75,"x_max":215,"o":"m 157 -85 q 197 -125 197 -85 q 128 -267 197 -165 l 75 -267 l 111 -85 l 157 -85 m 86 1010 l 215 1010 l 215 0 l 86 0 l 86 1010 z "},"Ľ":{"ha":499,"x_min":25,"x_max":492,"o":"m 215 110 l 492 110 l 492 0 l 86 0 l 86 940 l 215 940 l 215 110 m 99 997 l 25 1149 l 96 1149 l 149 1065 l 200 1149 l 272 1149 l 199 997 l 99 997 z "},"ľ":{"ha":301,"x_min":86,"x_max":392,"o":"m 351 1008 q 392 965 392 1008 q 322 826 392 922 l 269 826 l 306 1008 l 351 1008 m 86 1010 l 215 1010 l 215 0 l 86 0 l 86 1010 z "},"Ł":{"ha":500,"x_min":17,"x_max":497,"o":"m 221 110 l 497 110 l 497 0 l 92 0 l 92 381 l 17 344 l 17 439 l 92 475 l 92 940 l 221 940 l 221 538 l 353 601 l 353 506 l 221 442 l 221 110 z "},"ł":{"ha":304,"x_min":15,"x_max":289,"o":"m 217 0 l 88 0 l 88 589 l 15 551 l 15 646 l 88 683 l 88 1010 l 217 1010 l 217 749 l 289 786 l 289 692 l 217 654 l 217 0 z "},"Ń":{"ha":706,"x_min":86,"x_max":619,"o":"m 493 940 l 619 940 l 619 0 l 482 0 q 227 657 253 585 q 196 743 201 729 q 203 627 196 739 q 213 413 211 515 l 213 0 l 86 0 l 86 940 l 225 940 q 471 305 435 407 q 508 200 507 203 q 501 322 508 213 q 493 533 493 432 l 493 940 m 365 1149 l 474 1149 l 386 997 l 310 997 l 365 1149 z "},"ń":{"ha":631,"x_min":86,"x_max":551,"o":"m 208 761 q 373 801 293 801 q 502 755 453 801 q 551 621 551 708 l 551 0 l 422 0 l 422 599 q 338 683 422 683 q 215 651 279 683 l 215 0 l 86 0 l 86 797 l 208 797 l 208 761 m 329 1010 l 438 1010 l 350 858 l 274 858 l 329 1010 z "},"Ņ":{"ha":706,"x_min":86,"x_max":619,"o":"m 346 -85 q 386 -128 386 -85 q 317 -267 386 -171 l 264 -267 l 300 -85 l 346 -85 m 493 940 l 619 940 l 619 0 l 482 0 q 227 657 253 585 q 196 743 201 729 q 203 627 196 739 q 213 413 211 515 l 213 0 l 86 0 l 86 940 l 225 940 q 471 305 435 407 q 508 200 507 203 q 501 322 508 213 q 493 533 493 432 l 493 940 z "},"ņ":{"ha":631,"x_min":86,"x_max":551,"o":"m 317 -85 q 357 -128 357 -85 q 288 -267 357 -171 l 235 -267 l 271 -85 l 317 -85 m 208 761 q 373 801 293 801 q 502 755 453 801 q 551 621 551 708 l 551 0 l 422 0 l 422 599 q 338 683 422 683 q 215 651 279 683 l 215 0 l 86 0 l 86 797 l 208 797 l 208 761 z "},"Ň":{"ha":706,"x_min":86,"x_max":619,"o":"m 493 940 l 619 940 l 619 0 l 482 0 q 227 657 253 585 q 196 743 201 729 q 203 627 196 739 q 213 413 211 515 l 213 0 l 86 0 l 86 940 l 225 940 q 471 305 435 407 q 508 200 507 203 q 501 322 508 213 q 493 533 493 432 l 493 940 m 301 997 l 228 1149 l 299 1149 l 351 1065 l 403 1149 l 475 1149 l 401 997 l 301 997 z "},"ň":{"ha":631,"x_min":86,"x_max":551,"o":"m 208 797 l 208 761 q 373 801 293 801 q 502 755 453 801 q 551 621 551 708 l 551 0 l 422 0 l 422 599 q 338 683 422 683 q 215 651 279 683 l 215 0 l 86 0 l 86 797 l 208 797 m 261 858 l 188 1010 l 258 1010 l 311 926 l 363 1010 l 435 1010 l 361 858 l 261 858 z "},"Ō":{"ha":646,"x_min":72,"x_max":574,"o":"m 446 722 q 323 839 446 839 q 200 722 200 839 l 200 218 q 323 103 200 103 q 446 218 446 103 l 446 722 m 72 726 q 135 892 72 829 q 322 954 199 954 q 510 892 446 954 q 574 726 574 829 l 574 214 q 510 49 574 111 q 322 -14 446 -14 q 135 49 199 -14 q 72 214 72 111 l 72 726 m 163 1111 l 488 1111 l 488 1035 l 163 1035 l 163 1111 z "},"ō":{"ha":617,"x_min":72,"x_max":544,"o":"m 418 592 q 309 700 418 700 q 200 592 200 700 l 200 206 q 309 97 200 97 q 418 206 418 97 l 418 592 m 72 594 q 131 753 72 694 q 308 811 189 811 q 486 753 428 811 q 544 594 544 694 l 544 203 q 486 44 544 103 q 308 -14 428 -14 q 131 44 189 -14 q 72 203 72 103 l 72 594 m 144 972 l 469 972 l 469 896 l 144 896 l 144 972 z "},"Ő":{"ha":646,"x_min":72,"x_max":574,"o":"m 446 722 q 323 839 446 839 q 200 722 200 839 l 200 218 q 323 103 200 103 q 446 218 446 103 l 446 722 m 72 726 q 135 892 72 829 q 322 954 199 954 q 510 892 446 954 q 574 726 574 829 l 574 214 q 510 49 574 111 q 322 -14 446 -14 q 135 49 199 -14 q 72 214 72 111 l 72 726 m 276 1149 l 376 1149 l 286 997 l 218 997 l 276 1149 m 408 1149 l 508 1149 l 418 997 l 350 997 l 408 1149 z "},"ő":{"ha":617,"x_min":72,"x_max":544,"o":"m 418 592 q 309 700 418 700 q 200 592 200 700 l 200 206 q 309 97 200 97 q 418 206 418 97 l 418 592 m 72 594 q 131 753 72 694 q 308 811 189 811 q 486 753 428 811 q 544 594 544 694 l 544 203 q 486 44 544 103 q 308 -14 428 -14 q 131 44 189 -14 q 72 203 72 103 l 72 594 m 271 1010 l 371 1010 l 281 858 l 213 858 l 271 1010 m 403 1010 l 503 1010 l 413 858 l 344 858 l 403 1010 z "},"Œ":{"ha":946,"x_min":100,"x_max":907,"o":"m 907 829 l 607 829 l 607 531 l 868 531 l 868 419 l 607 419 l 607 113 l 907 113 l 907 0 l 322 0 q 155 58 210 0 q 100 215 100 115 l 100 731 q 158 885 100 829 q 328 940 217 940 l 907 940 l 907 829 m 340 111 l 479 111 l 479 833 l 340 833 q 228 726 228 833 l 228 224 q 340 111 228 111 z "},"œ":{"ha":969,"x_min":81,"x_max":896,"o":"m 81 203 l 81 594 q 139 753 81 694 q 313 811 197 811 q 490 757 429 811 q 665 811 549 811 q 838 752 781 811 q 896 593 896 693 l 896 340 l 553 340 l 553 196 q 704 107 564 107 q 872 132 792 107 l 872 15 q 696 -7 792 -7 q 494 46 563 -7 q 316 -14 435 -14 q 139 44 197 -14 q 81 203 81 103 m 425 206 l 425 592 q 316 700 425 700 q 207 592 207 700 l 207 206 q 316 97 207 97 q 425 206 425 97 m 553 444 l 774 444 l 774 593 q 663 703 774 703 q 553 611 563 703 l 553 444 z "},"Ŕ":{"ha":643,"x_min":86,"x_max":597,"o":"m 214 368 l 214 0 l 86 0 l 86 940 l 338 940 q 508 885 449 940 q 567 731 567 829 l 567 583 q 449 385 567 426 l 597 0 l 457 0 l 322 368 l 214 368 m 214 829 l 214 475 l 326 475 q 413 502 386 475 q 439 583 439 529 l 439 724 q 326 829 439 829 l 214 829 m 440 1149 l 353 997 l 276 997 l 332 1149 l 440 1149 z "},"ŕ":{"ha":407,"x_min":86,"x_max":400,"o":"m 368 801 l 400 801 l 400 682 l 357 682 q 290 670 318 682 q 215 628 261 658 l 215 0 l 86 0 l 86 797 l 208 797 l 208 739 q 306 794 276 786 q 368 801 335 801 m 269 1010 l 378 1010 l 290 858 l 214 858 l 269 1010 z "},"Ŗ":{"ha":643,"x_min":86,"x_max":597,"o":"m 214 368 l 214 0 l 86 0 l 86 940 l 338 940 q 508 885 449 940 q 567 731 567 829 l 567 583 q 449 385 567 426 l 597 0 l 457 0 l 322 368 l 214 368 m 214 829 l 214 475 l 326 475 q 413 502 386 475 q 439 583 439 529 l 439 724 q 326 829 439 829 l 214 829 m 331 -85 q 371 -128 371 -85 q 301 -267 371 -171 l 249 -267 l 285 -85 l 331 -85 z "},"ŗ":{"ha":407,"x_min":75,"x_max":400,"o":"m 157 -85 q 197 -125 197 -85 q 128 -267 197 -165 l 75 -267 l 111 -85 l 157 -85 m 368 801 l 400 801 l 400 682 l 357 682 q 290 670 318 682 q 215 628 261 658 l 215 0 l 86 0 l 86 797 l 208 797 l 208 739 q 306 794 276 786 q 368 801 335 801 z "},"Ř":{"ha":643,"x_min":86,"x_max":597,"o":"m 214 368 l 214 0 l 86 0 l 86 940 l 338 940 q 508 885 449 940 q 567 731 567 829 l 567 583 q 449 385 567 426 l 597 0 l 457 0 l 322 368 l 214 368 m 214 829 l 214 475 l 326 475 q 413 502 386 475 q 439 583 439 529 l 439 724 q 326 829 439 829 l 214 829 m 261 997 l 188 1149 l 258 1149 l 311 1065 l 363 1149 l 435 1149 l 361 997 l 261 997 z "},"ř":{"ha":407,"x_min":86,"x_max":400,"o":"m 368 801 l 400 801 l 400 682 l 357 682 q 290 670 318 682 q 215 628 261 658 l 215 0 l 86 0 l 86 797 l 208 797 l 208 739 q 306 794 276 786 q 368 801 335 801 m 197 858 l 124 1010 l 194 1010 l 247 926 l 299 1010 l 371 1010 l 297 858 l 197 858 z "},"Ś":{"ha":557,"x_min":36,"x_max":518,"o":"m 36 742 q 101 893 36 839 q 285 947 165 947 q 476 924 406 947 l 476 801 q 296 829 404 829 q 165 732 165 829 l 165 678 q 183 606 165 632 q 244 556 200 579 l 406 467 q 518 281 518 404 l 518 203 q 448 48 518 103 q 250 -7 378 -7 q 44 22 122 -7 l 44 144 q 238 111 136 111 q 390 215 390 111 l 390 263 q 374 328 390 304 q 317 375 358 351 l 160 460 q 36 658 36 528 l 36 742 m 297 1149 l 406 1149 l 318 997 l 242 997 l 297 1149 z "},"ś":{"ha":511,"x_min":38,"x_max":475,"o":"m 38 604 q 96 754 38 704 q 286 804 154 804 q 444 782 375 804 l 444 665 q 297 690 378 690 q 189 669 215 690 q 163 597 163 647 l 163 569 q 178 511 163 532 q 238 469 194 490 l 354 406 q 475 233 475 344 l 475 197 q 210 -7 475 -7 q 40 14 118 -7 l 40 132 q 195 108 108 108 q 315 131 282 108 q 347 200 347 154 l 347 225 q 330 278 347 258 q 261 325 313 299 l 149 383 q 38 560 38 439 l 38 604 m 285 1010 l 393 1010 l 306 858 l 229 858 l 285 1010 z "},"Ş":{"ha":557,"x_min":36,"x_max":518,"o":"m 269 -85 q 310 -125 310 -85 q 240 -267 310 -165 l 188 -267 l 224 -85 l 269 -85 m 36 742 q 101 893 36 839 q 285 947 165 947 q 476 924 406 947 l 476 801 q 296 829 404 829 q 165 732 165 829 l 165 678 q 183 606 165 632 q 244 556 200 579 l 406 467 q 518 281 518 404 l 518 203 q 448 48 518 103 q 250 -7 378 -7 q 44 22 122 -7 l 44 144 q 238 111 136 111 q 390 215 390 111 l 390 263 q 374 328 390 304 q 317 375 358 351 l 160 460 q 36 658 36 528 l 36 742 z "},"ş":{"ha":511,"x_min":38,"x_max":475,"o":"m 254 -85 q 294 -125 294 -85 q 225 -267 294 -165 l 172 -267 l 208 -85 l 254 -85 m 38 604 q 96 754 38 704 q 286 804 154 804 q 444 782 375 804 l 444 665 q 297 690 378 690 q 189 669 215 690 q 163 597 163 647 l 163 569 q 178 511 163 532 q 238 469 194 490 l 354 406 q 475 233 475 344 l 475 197 q 210 -7 475 -7 q 40 14 118 -7 l 40 132 q 195 108 108 108 q 315 131 282 108 q 347 200 347 154 l 347 225 q 330 278 347 258 q 261 325 313 299 l 149 383 q 38 560 38 439 l 38 604 z "},"Š":{"ha":557,"x_min":36,"x_max":518,"o":"m 518 281 l 518 203 q 448 48 518 103 q 250 -7 378 -7 q 44 22 122 -7 l 44 144 q 238 111 136 111 q 390 215 390 111 l 390 263 q 374 328 390 304 q 317 375 358 351 l 160 460 q 36 658 36 528 l 36 742 q 101 893 36 839 q 285 947 165 947 q 476 924 406 947 l 476 801 q 296 829 404 829 q 165 732 165 829 l 165 678 q 183 606 165 632 q 244 556 200 579 l 406 467 q 518 281 518 404 m 232 997 l 158 1149 l 229 1149 l 282 1065 l 333 1149 l 406 1149 l 332 997 l 232 997 z "},"š":{"ha":511,"x_min":38,"x_max":475,"o":"m 475 233 l 475 197 q 210 -7 475 -7 q 40 14 118 -7 l 40 132 q 195 108 108 108 q 315 131 282 108 q 347 200 347 154 l 347 225 q 330 278 347 258 q 261 325 313 299 l 149 383 q 38 560 38 439 l 38 604 q 96 754 38 704 q 286 804 154 804 q 444 782 375 804 l 444 665 q 297 690 378 690 q 189 669 215 690 q 163 597 163 647 l 163 569 q 178 511 163 532 q 238 469 194 490 l 354 406 q 475 233 475 344 m 215 858 l 142 1010 l 213 1010 l 265 926 l 317 1010 l 389 1010 l 315 858 l 215 858 z "},"Ţ":{"ha":510,"x_min":11,"x_max":499,"o":"m 499 940 l 499 829 l 319 829 l 319 0 l 190 0 l 190 829 l 11 829 l 11 940 l 499 940 m 263 -85 q 303 -125 303 -85 q 233 -267 303 -165 l 181 -267 l 217 -85 l 263 -85 z "},"ţ":{"ha":414,"x_min":7,"x_max":393,"o":"m 254 -85 q 294 -125 294 -85 q 225 -267 294 -165 l 172 -267 l 208 -85 l 254 -85 m 218 942 l 218 797 l 381 797 l 381 688 l 218 688 l 218 189 q 303 108 218 108 q 393 124 347 108 l 393 8 q 380 6 392 8 q 356 0 368 3 q 285 -8 318 -8 q 90 179 90 -8 l 90 688 l 7 688 l 7 797 l 94 797 l 133 942 l 218 942 z "},"Ť":{"ha":510,"x_min":11,"x_max":499,"o":"m 499 940 l 499 829 l 319 829 l 319 0 l 190 0 l 190 829 l 11 829 l 11 940 l 499 940 m 203 997 l 129 1149 l 200 1149 l 253 1065 l 304 1149 l 376 1149 l 303 997 l 203 997 z "},"ť":{"ha":414,"x_min":7,"x_max":464,"o":"m 218 942 l 218 797 l 381 797 l 381 688 l 218 688 l 218 189 q 303 108 218 108 q 393 124 347 108 l 393 8 q 380 6 392 8 q 356 0 368 3 q 285 -8 318 -8 q 90 179 90 -8 l 90 688 l 7 688 l 7 797 l 94 797 l 133 942 l 218 942 m 419 1106 q 464 1065 464 1106 q 382 867 464 1013 l 328 867 l 371 1106 l 419 1106 z "},"Ū":{"ha":658,"x_min":79,"x_max":578,"o":"m 167 1111 l 492 1111 l 492 1035 l 167 1035 l 167 1111 m 450 940 l 578 940 l 578 214 q 515 49 578 111 q 329 -14 453 -14 q 142 49 206 -14 q 79 214 79 111 l 79 940 l 207 940 l 207 218 q 328 103 207 103 q 450 218 450 103 l 450 940 z "},"ū":{"ha":633,"x_min":79,"x_max":547,"o":"m 149 972 l 474 972 l 474 896 l 149 896 l 149 972 m 418 797 l 547 797 l 547 0 l 425 0 l 425 38 q 265 -3 353 -3 q 128 47 178 -3 q 79 192 79 97 l 79 797 l 210 797 l 210 208 q 303 113 210 113 q 418 149 369 113 l 418 797 z "},"Ů":{"ha":658,"x_min":79,"x_max":578,"o":"m 450 940 l 578 940 l 578 214 q 515 49 578 111 q 329 -14 453 -14 q 142 49 206 -14 q 79 214 79 111 l 79 940 l 207 940 l 207 218 q 328 103 207 103 q 450 218 450 103 l 450 940 m 331 1026 q 341 1026 331 1026 q 364 1039 351 1026 q 376 1072 376 1051 q 364 1106 376 1093 q 331 1119 351 1119 q 297 1106 310 1119 q 285 1072 285 1093 q 297 1039 285 1051 q 331 1026 310 1026 m 253 999 q 239 1014 253 999 q 225 1074 225 1029 q 253 1147 225 1118 q 331 1176 281 1176 q 408 1147 381 1176 q 436 1074 436 1118 q 408 999 436 1029 q 331 969 381 969 q 253 999 282 969 z "},"ů":{"ha":633,"x_min":79,"x_max":547,"o":"m 418 797 l 547 797 l 547 0 l 425 0 l 425 38 q 265 -3 353 -3 q 128 47 178 -3 q 79 192 79 97 l 79 797 l 210 797 l 210 208 q 303 113 210 113 q 418 149 369 113 l 418 797 m 313 888 q 323 888 313 888 q 346 900 333 888 q 358 933 358 913 q 346 967 358 954 q 313 981 333 981 q 279 967 292 981 q 267 933 267 954 q 279 900 267 913 q 313 888 292 888 m 235 860 q 221 875 235 860 q 207 935 207 890 q 235 1008 207 979 q 313 1038 263 1038 q 390 1008 363 1038 q 418 935 418 979 q 390 860 418 890 q 313 831 363 831 q 235 860 264 831 z "},"Ű":{"ha":658,"x_min":79,"x_max":578,"o":"m 275 1149 l 375 1149 l 285 997 l 217 997 l 275 1149 m 407 1149 l 507 1149 l 417 997 l 349 997 l 407 1149 m 450 940 l 578 940 l 578 214 q 515 49 578 111 q 329 -14 453 -14 q 142 49 206 -14 q 79 214 79 111 l 79 940 l 207 940 l 207 218 q 328 103 207 103 q 450 218 450 103 l 450 940 z "},"ű":{"ha":633,"x_min":79,"x_max":547,"o":"m 265 1010 l 365 1010 l 275 858 l 207 858 l 265 1010 m 397 1010 l 497 1010 l 407 858 l 339 858 l 397 1010 m 418 797 l 547 797 l 547 0 l 425 0 l 425 38 q 265 -3 353 -3 q 128 47 178 -3 q 79 192 79 97 l 79 797 l 210 797 l 210 208 q 303 113 210 113 q 418 149 369 113 l 418 797 z "},"Ų":{"ha":658,"x_min":79,"x_max":578,"o":"m 450 940 l 578 940 l 578 214 q 457 10 578 63 q 396 -115 396 -47 q 444 -165 396 -165 l 461 -165 l 461 -240 l 438 -240 q 319 -140 319 -240 q 376 -11 319 -72 q 329 -14 349 -14 q 142 49 206 -14 q 79 214 79 111 l 79 940 l 207 940 l 207 218 q 328 103 207 103 q 450 218 450 103 l 450 940 z "},"ų":{"ha":633,"x_min":79,"x_max":547,"o":"m 418 797 l 547 797 l 547 0 l 546 0 q 481 -129 481 -56 q 529 -179 481 -179 l 546 -179 l 546 -254 l 522 -254 q 404 -154 404 -254 q 489 0 404 -68 l 425 0 l 425 38 q 265 -3 353 -3 q 128 47 178 -3 q 79 192 79 97 l 79 797 l 210 797 l 210 208 q 303 113 210 113 q 418 149 369 113 l 418 797 z "},"Ÿ":{"ha":596,"x_min":4,"x_max":592,"o":"m 363 0 l 233 0 l 233 311 l 4 940 l 136 940 l 217 717 q 300 453 243 640 q 382 717 322 529 l 463 940 l 592 940 l 363 311 l 363 0 m 395 1014 q 365 1014 395 1014 q 335 1072 335 1014 q 395 1131 335 1131 q 456 1072 456 1131 q 395 1014 456 1014 m 194 1014 q 164 1014 194 1014 q 133 1072 133 1014 q 194 1131 133 1131 q 254 1072 254 1131 q 194 1014 254 1014 z "},"Ź":{"ha":547,"x_min":36,"x_max":508,"o":"m 43 940 l 508 940 l 508 833 l 169 110 l 506 110 l 506 0 l 36 0 l 36 110 l 371 831 l 43 831 l 43 940 m 288 1149 l 396 1149 l 308 997 l 232 997 l 288 1149 z "},"ź":{"ha":461,"x_min":28,"x_max":433,"o":"m 35 797 l 432 797 l 432 708 l 163 110 l 433 110 l 433 0 l 28 0 l 28 90 l 296 688 l 35 688 l 35 797 m 250 1010 l 358 1010 l 271 858 l 194 858 l 250 1010 z "},"Ż":{"ha":547,"x_min":36,"x_max":508,"o":"m 213 1094 q 273 1154 213 1154 q 333 1094 333 1154 q 273 1038 333 1038 q 213 1094 213 1038 m 43 940 l 508 940 l 508 833 l 169 110 l 506 110 l 506 0 l 36 0 l 36 110 l 371 831 l 43 831 l 43 940 z "},"ż":{"ha":461,"x_min":28,"x_max":433,"o":"m 178 956 q 238 1015 178 1015 q 299 956 299 1015 q 238 899 299 899 q 178 956 178 899 m 35 797 l 432 797 l 432 708 l 163 110 l 433 110 l 433 0 l 28 0 l 28 90 l 296 688 l 35 688 l 35 797 z "},"Ž":{"ha":547,"x_min":36,"x_max":508,"o":"m 508 940 l 508 833 l 169 110 l 506 110 l 506 0 l 36 0 l 36 110 l 371 831 l 43 831 l 43 940 l 508 940 m 225 997 l 151 1149 l 222 1149 l 275 1065 l 326 1149 l 399 1149 l 325 997 l 225 997 z "},"ž":{"ha":461,"x_min":28,"x_max":433,"o":"m 433 110 l 433 0 l 28 0 l 28 90 l 296 688 l 35 688 l 35 797 l 432 797 l 432 708 l 163 110 l 433 110 m 189 858 l 115 1010 l 186 1010 l 239 926 l 290 1010 l 363 1010 l 289 858 l 189 858 z "},"ƒ":{"ha":458,"x_min":-12,"x_max":468,"o":"m 417 1011 q 468 1008 450 1011 l 468 904 q 422 906 457 906 q 367 884 388 906 q 338 813 346 863 l 318 690 l 414 690 l 414 586 l 303 586 l 242 196 q 181 44 226 94 q 35 -6 135 -6 q -12 -1 10 -6 l -12 103 q 19 100 7 100 q 85 122 64 100 q 113 194 106 143 l 174 586 l 65 586 l 65 690 l 190 690 l 210 811 q 271 961 225 911 q 417 1011 317 1011 z "},"Ș":{"ha":557,"x_min":36,"x_max":518,"o":"m 275 -85 q 317 -122 317 -85 q 247 -267 317 -165 l 194 -267 l 231 -85 l 275 -85 m 36 742 q 101 893 36 839 q 285 947 165 947 q 476 924 406 947 l 476 801 q 296 829 404 829 q 165 732 165 829 l 165 678 q 183 606 165 632 q 244 556 200 579 l 406 467 q 518 281 518 404 l 518 203 q 448 48 518 103 q 250 -7 378 -7 q 44 22 122 -7 l 44 144 q 238 111 136 111 q 390 215 390 111 l 390 263 q 374 328 390 304 q 317 375 358 351 l 160 460 q 36 658 36 528 l 36 742 z "},"ș":{"ha":511,"x_min":38,"x_max":475,"o":"m 267 -85 q 308 -122 308 -85 q 239 -267 308 -165 l 186 -267 l 222 -85 l 267 -85 m 38 604 q 96 754 38 704 q 286 804 154 804 q 444 782 375 804 l 444 665 q 297 690 378 690 q 189 669 215 690 q 163 597 163 647 l 163 569 q 178 511 163 532 q 238 469 194 490 l 354 406 q 475 233 475 344 l 475 197 q 210 -7 475 -7 q 40 14 118 -7 l 40 132 q 195 108 108 108 q 315 131 282 108 q 347 200 347 154 l 347 225 q 330 278 347 258 q 261 325 313 299 l 149 383 q 38 560 38 439 l 38 604 z "},"Ț":{"ha":510,"x_min":11,"x_max":499,"o":"m 499 940 l 499 829 l 319 829 l 319 0 l 190 0 l 190 829 l 11 829 l 11 940 l 499 940 m 258 -85 q 299 -125 299 -85 q 229 -267 299 -165 l 176 -267 l 213 -85 l 258 -85 z "},"ț":{"ha":414,"x_min":7,"x_max":393,"o":"m 257 -85 q 297 -125 297 -85 q 228 -267 297 -165 l 175 -267 l 211 -85 l 257 -85 m 218 942 l 218 797 l 381 797 l 381 688 l 218 688 l 218 189 q 303 108 218 108 q 393 124 347 108 l 393 8 q 380 6 392 8 q 356 0 368 3 q 285 -8 318 -8 q 90 179 90 -8 l 90 688 l 7 688 l 7 797 l 94 797 l 133 942 l 218 942 z "},"ˆ":{"ha":486,"x_min":119,"x_max":367,"o":"m 367 858 l 294 858 l 243 942 l 190 858 l 119 858 l 193 1010 l 293 1010 l 367 858 z "},"ˇ":{"ha":486,"x_min":119,"x_max":367,"o":"m 294 1010 l 367 1010 l 293 858 l 193 858 l 119 1010 l 190 1010 l 243 926 l 294 1010 z "},"ˉ":{"ha":486,"x_min":81,"x_max":406,"o":"m 81 972 l 406 972 l 406 896 l 81 896 l 81 972 z "},"˘":{"ha":486,"x_min":88,"x_max":399,"o":"m 319 1010 l 399 1010 q 356 901 397 943 q 243 858 314 858 q 131 901 172 858 q 88 1010 89 943 l 167 1010 q 187 952 167 974 q 243 931 207 931 q 299 952 279 931 q 319 1010 319 974 z "},"˙":{"ha":486,"x_min":181,"x_max":301,"o":"m 181 956 q 241 1015 181 1015 q 301 956 301 1015 q 241 899 301 899 q 181 956 181 899 z "},"˚":{"ha":486,"x_min":138,"x_max":349,"o":"m 243 888 q 253 888 243 888 q 276 900 264 888 q 289 933 289 913 q 276 967 289 954 q 243 981 264 981 q 210 967 222 981 q 197 933 197 954 q 210 900 197 913 q 243 888 222 888 m 166 860 q 152 875 166 860 q 138 935 138 890 q 165 1008 138 979 q 243 1038 193 1038 q 321 1008 293 1038 q 349 935 349 979 q 321 860 349 890 q 244 831 293 831 q 166 860 194 831 z "},"˛":{"ha":486,"x_min":174,"x_max":315,"o":"m 250 -129 q 299 -179 250 -179 l 315 -179 l 315 -254 l 292 -254 q 174 -154 174 -254 q 258 0 174 -68 l 315 0 q 250 -129 250 -56 z "},"˜":{"ha":486,"x_min":63,"x_max":422,"o":"m 342 1000 l 422 1000 l 422 985 q 397 900 422 931 q 328 869 371 869 q 239 898 286 869 q 174 926 192 926 q 143 881 143 926 l 143 868 l 63 868 l 63 882 q 88 967 63 935 q 158 999 113 999 q 250 970 203 999 q 311 942 297 942 q 342 988 342 942 l 342 1000 z "},"˝":{"ha":486,"x_min":97,"x_max":388,"o":"m 156 1010 l 256 1010 l 165 858 l 97 858 l 156 1010 m 288 1010 l 388 1010 l 297 858 l 229 858 l 288 1010 z "},"π":{"ha":631,"x_min":86,"x_max":643,"o":"m 86 797 l 643 797 l 643 688 l 551 688 l 551 0 l 422 0 l 422 688 l 215 688 l 215 0 l 86 0 l 86 797 z "},"ँ":{"ha":0,"x_min":-389,"x_max":93,"o":"m -22 1189 l 93 1189 l 93 1185 q 33 1044 93 1088 q -147 1000 -26 1000 q -328 1044 -268 1000 q -389 1185 -389 1088 l -389 1189 l -274 1189 q -245 1122 -274 1140 q -149 1103 -217 1103 q -51 1122 -81 1103 q -22 1189 -22 1140 m -148 1186 q -182 1186 -148 1186 q -215 1253 -215 1186 q -148 1321 -215 1321 q -81 1253 -81 1321 q -148 1186 -81 1186 z "},"ं":{"ha":0,"x_min":-218,"x_max":-79,"o":"m -79 1080 q -79 1045 -79 1080 q -149 1010 -79 1010 q -218 1080 -218 1010 q -149 1150 -218 1150 q -79 1080 -79 1150 z "},"ः":{"ha":297,"x_min":63,"x_max":203,"o":"m 133 0 q 98 0 133 0 q 63 70 63 0 q 133 140 63 140 q 203 70 203 140 q 133 0 203 0 m 133 476 q 98 476 133 476 q 63 547 63 476 q 133 617 63 617 q 203 547 203 617 q 133 476 203 476 z "},"अ":{"ha":797,"x_min":53,"x_max":838,"o":"m 590 910 l 838 910 l 838 810 l 708 810 l 708 0 l 590 0 l 590 296 l 446 296 l 446 250 q 206 49 443 49 q 53 68 118 49 l 53 178 q 204 157 126 157 q 329 253 329 157 l 329 342 q 308 413 329 389 q 225 439 286 438 l 142 439 l 142 547 l 225 547 q 308 572 286 549 q 329 643 329 596 l 329 713 q 206 810 329 810 q 69 788 143 810 l 69 899 q 206 917 124 917 q 446 715 446 917 l 446 643 q 376 493 446 525 q 440 399 429 468 l 590 399 l 590 910 z "},"आ":{"ha":1117,"x_min":76,"x_max":1157,"o":"m 1157 910 l 1157 810 l 1029 810 l 1029 0 l 911 0 l 911 810 l 732 810 l 732 0 l 614 0 l 614 296 l 469 296 l 469 250 q 229 49 467 49 q 76 68 142 49 l 76 178 q 228 157 150 157 q 353 253 353 157 l 353 342 q 331 413 353 389 q 249 439 310 438 l 165 439 l 165 547 l 249 547 q 331 572 310 549 q 353 643 353 596 l 353 713 q 229 810 353 810 q 93 788 167 810 l 93 899 q 229 917 147 917 q 469 715 469 917 l 469 643 q 400 493 469 525 q 464 399 453 468 l 614 399 l 614 910 l 1157 910 z "},"इ":{"ha":561,"x_min":-39,"x_max":600,"o":"m 179 236 l 179 142 q 283 131 226 131 q 394 214 394 131 l 394 257 q 373 317 394 297 q 296 338 351 338 l 263 338 q 51 514 51 338 l 51 525 q 263 700 51 700 l 357 700 l 357 810 l -39 810 l -39 910 l 600 910 l 600 810 l 475 810 l 475 596 l 263 596 q 190 578 210 596 q 169 522 169 560 l 169 515 q 190 459 169 478 q 263 440 210 440 l 296 440 q 513 260 513 440 l 513 210 q 461 70 513 115 q 294 25 410 25 q 179 36 224 25 l 179 -97 l 64 -97 l 64 236 l 179 236 z "},"ई":{"ha":561,"x_min":-39,"x_max":600,"o":"m 475 596 l 263 596 q 190 578 210 596 q 169 522 169 560 l 169 515 q 190 459 169 478 q 263 440 210 440 l 296 440 q 513 260 513 440 l 513 210 q 461 70 513 115 q 294 25 410 25 q 179 36 224 25 l 179 -97 l 64 -97 l 64 236 l 179 236 l 179 142 q 283 131 226 131 q 394 214 394 131 l 394 257 q 373 317 394 297 q 296 338 351 338 l 263 338 q 51 514 51 338 l 51 525 q 263 700 51 700 l 357 700 l 357 810 l -39 810 l -39 910 l 351 910 q 307 1064 307 1001 q 359 1194 307 1154 q 476 1235 411 1235 q 569 1228 542 1235 l 569 1124 q 522 1128 540 1128 q 426 1046 426 1128 q 468 910 426 993 l 600 910 l 600 810 l 475 810 l 475 596 z "},"उ":{"ha":558,"x_min":-39,"x_max":597,"o":"m 356 722 q 338 810 356 779 l -39 810 l -39 910 l 597 910 l 597 810 l 458 810 q 474 724 474 783 l 474 608 q 406 465 474 493 q 474 319 474 435 l 474 197 q 218 -6 474 -6 q 63 15 153 -6 l 63 126 q 217 103 147 103 q 356 199 356 103 l 356 314 q 334 385 356 360 q 253 411 313 410 l 168 411 l 168 521 l 260 521 q 336 544 317 521 q 356 611 356 567 l 356 722 z "},"ऊ":{"ha":799,"x_min":-39,"x_max":838,"o":"m 356 722 q 338 810 356 779 l -39 810 l -39 910 l 838 910 l 838 810 l 458 810 q 474 724 474 783 l 474 608 q 443 493 474 533 q 553 506 500 506 q 705 458 653 506 q 757 318 757 410 l 757 188 q 710 48 757 97 q 571 -1 663 -1 l 539 -1 l 539 108 l 550 108 q 619 128 600 108 q 639 190 639 149 l 639 301 q 538 397 639 397 l 463 397 q 474 319 474 368 l 474 197 q 218 -6 474 -6 q 63 15 153 -6 l 63 126 q 217 103 147 103 q 356 199 356 103 l 356 314 q 334 385 356 360 q 253 411 313 410 l 168 411 l 168 521 l 260 521 q 336 544 317 521 q 356 611 356 567 l 356 722 z "},"ऋ":{"ha":968,"x_min":-39,"x_max":1007,"o":"m 1007 810 l 550 810 l 550 600 q 676 588 614 588 q 793 681 793 588 l 793 694 l 907 694 l 907 292 l 847 292 q 773 265 796 292 q 750 182 750 239 q 867 78 750 78 q 946 85 908 78 l 946 -15 q 857 -24 900 -24 q 696 26 757 -24 q 635 178 635 75 q 796 374 635 367 l 796 514 q 685 478 758 478 q 550 490 613 478 l 550 0 l 438 0 l 438 106 q 446 329 438 267 l 442 329 q 347 206 424 288 l 197 49 l 50 49 l 49 54 l 432 454 l 432 564 q 305 582 378 582 q 200 554 232 582 q 168 472 168 526 l 168 389 l 53 389 l 53 479 q 296 690 53 690 q 432 672 367 690 l 432 810 l -39 810 l -39 910 l 1007 910 l 1007 810 z "},"ऌ":{"ha":869,"x_min":-39,"x_max":910,"o":"m 590 -22 q 590 -47 590 -22 q 615 -90 590 -72 q 684 -107 639 -107 q 785 -96 729 -107 l 785 -206 q 683 -217 718 -217 q 528 -167 582 -217 q 474 -21 474 -118 q 663 179 474 171 l 663 547 q 578 563 624 563 q 481 478 481 563 l 481 296 l 363 296 l 363 478 q 342 540 363 518 q 270 563 322 563 q 199 540 218 563 q 179 475 179 517 l 179 228 q 206 138 179 169 q 306 107 233 107 q 372 113 311 107 l 372 6 q 303 0 339 0 q 63 224 63 0 l 63 478 q 114 622 63 571 q 269 672 165 672 q 419 606 374 672 q 569 671 467 671 q 663 656 614 671 l 663 810 l -39 810 l -39 910 l 910 910 l 910 810 l 781 810 l 781 67 q 683 72 733 72 q 612 51 633 72 q 590 -22 590 29 z "},"ऍ":{"ha":599,"x_min":-39,"x_max":638,"o":"m 324 -7 q 85 197 85 -7 l 85 810 l -39 810 l -39 910 l 638 910 l 638 810 l 524 810 l 524 554 q 338 368 524 368 q 306 369 317 368 l 306 479 q 328 478 313 478 q 390 498 374 478 q 406 560 406 518 l 406 810 l 203 810 l 203 200 q 326 103 203 103 q 496 129 419 103 l 496 21 q 324 -7 426 -7 m 432 1196 l 549 1196 l 549 1192 q 488 1051 549 1094 q 307 1007 428 1007 q 126 1051 186 1007 q 65 1192 65 1094 l 65 1196 l 181 1196 q 209 1128 181 1147 q 306 1110 238 1110 q 403 1128 375 1110 q 432 1196 432 1147 z "},"ऎ":{"ha":599,"x_min":-39,"x_max":638,"o":"m 522 910 l 638 910 l 638 810 l 524 810 l 524 554 q 338 368 524 368 q 306 369 317 368 l 306 479 q 328 478 313 478 q 390 498 374 478 q 406 560 406 518 l 406 810 l 203 810 l 203 200 q 326 103 203 103 q 496 129 419 103 l 496 21 q 324 -7 426 -7 q 85 197 85 -7 l 85 810 l -39 810 l -39 910 l 407 910 q 381 993 407 965 q 283 1021 354 1021 q 103 1070 160 1021 q 47 1229 47 1119 l 163 1229 q 190 1147 163 1175 q 288 1119 217 1119 q 466 1068 410 1119 q 522 910 522 1017 z "},"ए":{"ha":599,"x_min":-39,"x_max":638,"o":"m 500 21 q 317 -7 431 -7 q 85 203 85 -7 l 85 810 l -39 810 l -39 910 l 638 910 l 638 810 l 524 810 l 524 554 q 338 368 524 368 q 306 369 317 368 l 306 479 q 328 478 313 478 q 390 498 374 478 q 406 560 406 518 l 406 810 l 203 810 l 203 206 q 231 128 203 154 q 342 103 260 103 q 500 129 424 103 l 500 21 z "},"ऐ":{"ha":599,"x_min":-39,"x_max":638,"o":"m 638 910 l 638 810 l 524 810 l 524 554 q 338 368 524 368 q 306 369 317 368 l 306 479 q 328 478 313 478 q 390 498 374 478 q 406 560 406 518 l 406 810 l 203 810 l 203 200 q 326 103 203 103 q 496 129 419 103 l 496 21 q 324 -7 426 -7 q 85 197 85 -7 l 85 810 l -39 810 l -39 910 l 399 910 l 171 1229 l 303 1229 l 519 910 l 638 910 z "},"ऑ":{"ha":1118,"x_min":76,"x_max":1158,"o":"m 1158 910 l 1158 810 l 1029 810 l 1029 0 l 911 0 l 911 810 l 732 810 l 732 0 l 614 0 l 614 296 l 469 296 l 469 250 q 229 49 467 49 q 76 68 142 49 l 76 178 q 228 157 150 157 q 353 253 353 157 l 353 342 q 331 413 353 389 q 249 439 310 438 l 165 439 l 165 547 l 249 547 q 331 572 310 549 q 353 643 353 596 l 353 713 q 229 810 353 810 q 93 788 167 810 l 93 899 q 229 917 147 917 q 469 715 469 917 l 469 643 q 400 493 469 525 q 464 399 453 468 l 614 399 l 614 910 l 1158 910 m 1069 1190 l 1069 1186 q 1009 1044 1069 1088 q 828 1001 949 1001 q 647 1044 707 1001 q 588 1186 588 1088 l 588 1190 l 703 1190 q 731 1123 703 1142 q 828 1104 760 1104 q 925 1123 896 1104 q 954 1190 954 1142 l 1069 1190 z "},"ऒ":{"ha":1118,"x_min":76,"x_max":1157,"o":"m 1028 910 l 1157 910 l 1157 810 l 1029 810 l 1029 0 l 911 0 l 911 810 l 732 810 l 732 0 l 614 0 l 614 296 l 469 296 l 469 250 q 229 49 467 49 q 76 68 142 49 l 76 178 q 228 157 150 157 q 353 253 353 157 l 353 342 q 331 413 353 389 q 249 439 310 438 l 165 439 l 165 547 l 249 547 q 331 572 310 549 q 353 643 353 596 l 353 713 q 229 810 353 810 q 93 788 167 810 l 93 899 q 229 917 147 917 q 469 715 469 917 l 469 643 q 400 493 469 525 q 464 399 453 468 l 614 399 l 614 910 l 913 910 q 886 993 913 965 q 789 1021 860 1021 q 609 1070 665 1021 q 553 1229 553 1119 l 668 1229 q 695 1147 668 1175 q 793 1119 722 1119 q 972 1068 915 1119 q 1028 910 1028 1017 z "},"ओ":{"ha":1118,"x_min":76,"x_max":1157,"o":"m 1157 910 l 1157 810 l 1029 810 l 1029 0 l 911 0 l 911 810 l 732 810 l 732 0 l 614 0 l 614 296 l 469 296 l 469 250 q 229 49 467 49 q 76 68 142 49 l 76 178 q 228 157 150 157 q 353 253 353 157 l 353 342 q 331 413 353 389 q 249 439 310 438 l 165 439 l 165 547 l 249 547 q 331 572 310 549 q 353 643 353 596 l 353 713 q 229 810 353 810 q 93 788 167 810 l 93 899 q 229 917 147 917 q 469 715 469 917 l 469 643 q 400 493 469 525 q 464 399 453 468 l 614 399 l 614 910 l 907 910 l 800 1072 q 703 1128 764 1128 q 667 1126 679 1128 l 667 1225 q 731 1229 689 1229 q 886 1131 822 1229 l 1028 910 l 1157 910 z "},"औ":{"ha":1118,"x_min":76,"x_max":1157,"o":"m 1157 910 l 1157 810 l 1029 810 l 1029 0 l 911 0 l 911 810 l 732 810 l 732 0 l 614 0 l 614 296 l 469 296 l 469 250 q 229 49 467 49 q 76 68 142 49 l 76 178 q 228 157 150 157 q 353 253 353 157 l 353 342 q 331 413 353 389 q 249 439 310 438 l 165 439 l 165 547 l 249 547 q 331 572 310 549 q 353 643 353 596 l 353 713 q 229 810 353 810 q 93 788 167 810 l 93 899 q 229 917 147 917 q 469 715 469 917 l 469 643 q 400 493 469 525 q 464 399 453 468 l 614 399 l 614 910 l 763 910 l 651 1072 q 556 1128 611 1128 q 519 1126 531 1128 l 519 1225 q 581 1229 540 1229 q 736 1124 661 1229 l 881 910 l 919 910 l 871 1064 q 847 1113 860 1099 q 815 1128 833 1128 q 781 1125 797 1128 l 781 1225 q 822 1229 800 1229 q 961 1115 926 1229 l 1024 910 l 1157 910 z "},"क":{"ha":826,"x_min":-39,"x_max":865,"o":"m 271 597 q 172 513 172 597 l 172 275 q 194 211 172 233 q 267 189 215 189 q 357 203 319 189 l 357 810 l -39 810 l -39 910 l 865 910 l 865 810 l 474 810 l 474 690 q 567 701 507 701 q 768 515 768 701 l 768 282 q 586 96 768 96 q 554 99 568 96 l 554 208 l 578 207 q 638 228 622 208 q 654 290 654 249 l 654 513 q 632 576 654 554 q 558 597 610 597 q 474 586 507 597 l 474 0 l 357 0 l 357 101 q 260 89 307 89 q 58 271 58 89 l 58 515 q 260 700 58 700 q 300 696 289 700 l 300 594 q 271 597 286 597 z "},"ख":{"ha":1038,"x_min":-39,"x_max":1076,"o":"m 354 722 q 338 810 354 774 l -39 810 l -39 910 l 1076 910 l 1076 810 l 947 810 l 947 0 l 832 0 l 832 178 q 733 165 785 165 q 582 212 628 165 q 536 351 536 258 l 536 507 q 581 649 536 601 q 729 696 625 696 q 832 685 772 696 l 832 810 l 451 810 q 465 722 465 781 l 465 553 q 258 347 465 347 q 174 356 221 347 l 174 253 q 375 101 174 101 q 560 128 475 101 l 560 17 q 368 -6 474 -6 q 141 59 222 -6 q 60 251 60 124 l 60 618 l 174 618 l 174 460 q 260 453 213 453 q 354 554 354 453 l 354 722 m 832 581 q 736 590 786 590 q 644 507 644 590 l 644 351 q 665 290 644 311 q 747 268 686 268 q 832 279 807 268 l 832 581 z "},"ग":{"ha":672,"x_min":-39,"x_max":711,"o":"m 711 910 l 711 810 l 583 810 l 583 0 l 465 0 l 465 810 l 282 810 l 282 449 q 233 308 282 358 q 90 257 183 257 q 33 261 54 257 l 33 374 q 75 371 47 371 q 164 456 164 371 l 164 810 l -39 810 l -39 910 l 711 910 z "},"घ":{"ha":689,"x_min":-39,"x_max":728,"o":"m 482 810 l 215 810 q 203 722 203 779 l 203 638 q 223 576 203 596 q 299 554 243 556 l 351 554 l 351 446 l 296 446 q 217 424 239 446 q 194 363 194 403 l 194 304 q 233 217 194 243 q 345 192 271 192 q 482 210 419 192 l 482 810 m 85 722 q 94 810 85 778 l -39 810 l -39 910 l 728 910 l 728 810 l 600 810 l 600 0 l 482 0 l 482 104 q 333 86 413 86 q 144 139 211 86 q 76 294 76 192 l 76 365 q 154 501 76 474 q 85 635 85 532 l 85 722 z "},"ङ":{"ha":661,"x_min":-39,"x_max":701,"o":"m 591 408 q 556 408 591 408 q 521 478 521 408 q 591 549 521 549 q 661 478 661 549 q 591 408 661 408 m 522 231 l 522 185 q 268 -11 522 -11 q 75 11 174 -11 l 75 119 q 253 97 169 97 q 370 117 336 97 q 404 185 404 138 l 404 229 q 383 290 404 269 q 304 310 361 310 l 276 310 q 65 485 65 310 l 65 525 q 117 658 65 615 q 276 701 169 701 l 363 701 l 363 810 l -39 810 l -39 910 l 701 910 l 701 810 l 481 810 l 481 597 l 276 597 q 203 578 224 597 q 183 519 183 558 l 183 489 q 203 431 183 450 q 276 411 224 411 l 304 411 q 522 231 522 411 z "},"च":{"ha":651,"x_min":-39,"x_max":690,"o":"m 115 461 q 128 567 115 517 l 17 567 l 17 672 l 376 672 l 376 569 l 249 569 q 233 461 233 535 l 233 282 q 343 188 233 188 q 444 204 394 188 l 444 810 l -39 810 l -39 910 l 690 910 l 690 810 l 563 810 l 563 0 l 444 0 l 444 99 q 328 82 390 82 q 115 278 115 82 l 115 461 z "},"छ":{"ha":722,"x_min":-39,"x_max":761,"o":"m 535 490 q 513 565 535 542 q 442 589 492 589 q 360 576 392 589 l 360 678 q 447 689 396 689 l 447 810 l 213 810 q 199 722 199 779 l 199 538 q 219 476 199 497 q 294 454 239 456 l 378 454 l 378 350 l 297 350 q 215 330 239 350 q 192 265 192 310 l 192 232 q 225 148 192 169 q 363 126 258 126 q 501 151 467 126 q 535 240 535 175 l 535 490 m 81 722 q 94 810 81 774 l -39 810 l -39 910 l 761 910 l 761 810 l 556 810 l 556 672 q 650 506 650 642 l 650 236 q 585 69 650 119 q 364 19 521 19 q 140 68 207 19 q 72 228 72 117 l 72 272 q 150 401 72 374 q 81 535 81 432 l 81 722 z "},"ज":{"ha":782,"x_min":-39,"x_max":821,"o":"m 294 476 q 281 565 294 529 l 132 565 l 132 672 l 575 672 l 575 810 l -39 810 l -39 910 l 821 910 l 821 810 l 693 810 l 693 0 l 575 0 l 575 569 l 400 569 q 413 482 413 540 l 413 264 q 353 113 413 165 q 181 61 293 61 q 54 76 111 61 l 54 185 q 176 169 115 169 q 294 267 294 169 l 294 476 z "},"झ":{"ha":851,"x_min":-39,"x_max":890,"o":"m 644 440 l 644 810 l 488 810 l 488 597 l 276 597 q 203 579 224 597 q 183 524 183 561 l 183 517 q 203 460 183 479 q 274 440 222 442 l 644 440 m 286 338 l 276 338 q 65 514 65 338 l 65 525 q 276 701 65 701 l 371 701 l 371 810 l -39 810 l -39 910 l 890 910 l 890 810 l 763 810 l 763 0 l 644 0 l 644 344 l 467 344 q 501 254 501 318 l 501 199 q 451 60 501 104 q 293 17 400 17 q 181 29 225 17 l 181 -92 l 67 -92 l 67 222 l 181 222 l 181 133 q 278 122 215 122 q 385 206 385 122 l 385 254 q 363 317 385 296 q 286 338 342 338 z "},"ञ":{"ha":808,"x_min":-39,"x_max":847,"o":"m 324 275 l 324 503 q 298 577 324 551 q 208 603 272 603 q 88 582 143 603 l 88 689 q 211 711 142 711 q 442 508 442 711 l 442 438 l 601 438 l 601 810 l -39 810 l -39 910 l 847 910 l 847 810 l 719 810 l 719 0 l 601 0 l 601 336 l 442 336 l 442 267 q 210 67 442 67 q 81 88 138 67 l 81 194 q 209 174 146 174 q 298 199 272 174 q 324 275 324 225 z "},"ट":{"ha":554,"x_min":-39,"x_max":593,"o":"m 186 489 l 186 210 q 328 101 186 101 q 490 122 401 101 l 490 15 q 306 -6 410 -6 q 135 49 201 -6 q 69 208 69 104 l 69 496 q 290 693 69 693 l 350 693 l 350 810 l -39 810 l -39 910 l 593 910 l 593 810 l 468 810 l 468 585 l 300 585 q 186 489 186 585 z "},"ठ":{"ha":572,"x_min":-39,"x_max":611,"o":"m 388 185 l 388 514 q 285 604 388 604 q 183 514 183 604 l 183 185 q 285 96 183 96 q 388 185 388 96 m 503 518 l 503 186 q 286 -7 503 -7 q 69 186 69 -7 l 69 518 q 226 701 69 679 l 226 810 l -39 810 l -39 910 l 611 910 l 611 810 l 344 810 l 344 701 q 503 518 503 679 z "},"ड":{"ha":578,"x_min":-39,"x_max":618,"o":"m 522 224 l 522 185 q 268 -11 522 -11 q 78 11 174 -11 l 78 121 q 268 97 168 97 q 404 186 404 97 l 404 221 q 383 281 404 260 q 304 301 361 301 l 276 301 q 65 478 65 301 l 65 525 q 117 658 65 615 q 276 701 169 701 l 363 701 l 363 810 l -39 810 l -39 910 l 618 910 l 618 810 l 481 810 l 481 597 l 276 597 q 203 578 224 597 q 183 519 183 558 l 183 481 q 203 424 183 443 q 276 404 224 404 l 304 404 q 522 224 522 404 z "},"ढ":{"ha":576,"x_min":-39,"x_max":615,"o":"m 283 697 l 361 697 l 361 810 l -39 810 l -39 910 l 615 910 l 615 810 l 478 810 l 478 589 l 283 589 q 206 569 226 589 q 185 507 185 549 l 185 199 q 208 126 185 151 q 294 101 232 101 q 381 126 357 101 q 404 197 404 150 l 404 243 q 328 322 404 322 l 276 315 l 276 419 q 340 428 301 428 q 519 246 519 428 l 519 193 q 294 -7 519 -7 q 68 196 68 -7 l 68 510 q 120 651 68 606 q 283 697 172 697 z "},"ण":{"ha":863,"x_min":-39,"x_max":903,"o":"m 374 810 l 185 810 l 185 353 q 204 288 185 310 q 279 265 224 265 q 354 288 335 265 q 374 353 374 310 l 374 810 m 492 353 q 279 160 492 160 q 67 353 67 160 l 67 810 l -39 810 l -39 910 l 903 910 l 903 810 l 774 810 l 774 0 l 657 0 l 657 810 l 492 810 l 492 353 z "},"त":{"ha":614,"x_min":-39,"x_max":654,"o":"m 67 497 q 122 643 67 590 q 285 696 176 696 q 407 681 361 696 l 407 810 l -39 810 l -39 910 l 654 910 l 654 810 l 525 810 l 525 0 l 407 0 l 407 572 q 297 588 354 588 q 185 494 185 588 l 185 190 q 208 127 185 147 q 289 108 232 107 l 289 -1 l 257 -1 q 67 182 67 -1 l 67 497 z "},"थ":{"ha":779,"x_min":61,"x_max":819,"o":"m 574 910 l 819 910 l 819 810 l 690 810 l 690 0 l 574 0 l 574 136 q 382 115 497 115 q 61 388 61 115 l 61 540 l 200 540 q 315 565 281 540 q 349 658 349 590 l 349 722 q 335 790 349 769 q 276 810 322 810 q 213 788 229 810 q 197 722 197 767 l 203 661 l 90 661 q 83 721 83 694 q 272 917 83 917 q 415 869 372 917 q 457 724 457 821 l 457 644 q 398 485 457 535 q 213 436 339 436 l 181 436 l 181 392 q 227 262 181 300 q 383 224 274 224 q 574 243 492 224 l 574 910 z "},"द":{"ha":571,"x_min":-39,"x_max":610,"o":"m 56 290 l 56 508 q 108 649 56 604 q 274 694 161 694 l 361 694 l 361 810 l -39 810 l -39 910 l 610 910 l 610 810 l 479 810 l 479 588 l 274 588 q 195 567 217 588 q 174 504 174 546 l 174 293 q 285 203 174 203 q 382 215 333 203 l 382 346 l 497 346 l 497 -8 l 382 -8 l 382 110 q 272 97 336 97 q 110 147 165 97 q 56 290 56 197 z "},"ध":{"ha":689,"x_min":-39,"x_max":728,"o":"m 85 722 q 99 810 85 774 l -39 810 l -39 910 l 340 910 l 340 810 l 219 810 q 203 722 203 779 l 203 642 q 223 580 203 600 q 299 558 243 560 l 351 558 l 351 449 l 296 449 q 217 428 239 449 q 194 367 194 407 l 194 303 q 233 217 194 242 q 342 192 271 192 q 482 210 413 192 l 482 910 l 728 910 l 728 810 l 600 810 l 600 0 l 482 0 l 482 103 q 332 85 413 85 q 144 138 211 85 q 76 293 76 190 l 76 369 q 154 506 76 478 q 85 639 85 536 l 85 722 z "},"न":{"ha":808,"x_min":-39,"x_max":847,"o":"m 256 563 q 190 543 208 563 q 172 483 172 524 l 172 267 q 190 208 172 228 q 256 188 208 188 q 321 207 303 188 q 339 267 339 226 l 339 467 q 325 563 339 507 l 256 563 m 601 563 l 438 563 q 451 469 451 521 l 451 267 q 255 81 451 81 q 58 267 58 81 l 58 486 q 256 669 58 669 l 601 669 l 601 810 l -39 810 l -39 910 l 847 910 l 847 810 l 719 810 l 719 0 l 601 0 l 601 563 z "},"ऩ":{"ha":818,"x_min":-39,"x_max":857,"o":"m 117 -33 q 117 -68 117 -33 q 46 -103 117 -103 q -25 -33 -25 -103 q 46 38 -25 38 q 117 -33 117 38 m 265 563 q 199 543 218 563 q 181 483 181 524 l 181 267 q 199 208 181 228 q 265 188 218 188 q 331 207 313 188 q 349 267 349 226 l 349 467 q 333 563 349 532 l 265 563 m 447 563 q 461 469 461 510 l 461 267 q 264 81 461 81 q 67 267 67 81 l 67 486 q 265 669 67 669 l 611 669 l 611 810 l -39 810 l -39 910 l 857 910 l 857 810 l 729 810 l 729 0 l 611 0 l 611 563 l 447 563 z "},"प":{"ha":599,"x_min":-39,"x_max":638,"o":"m 392 810 l 186 810 l 186 365 q 293 278 186 278 q 392 294 351 278 l 392 810 m 392 0 l 392 189 q 279 172 344 172 q 68 361 68 172 l 68 810 l -39 810 l -39 910 l 638 910 l 638 810 l 508 810 l 508 0 l 392 0 z "},"फ":{"ha":851,"x_min":-39,"x_max":890,"o":"m 376 810 l 186 810 l 186 350 q 293 264 186 264 q 376 274 338 264 l 376 810 m 675 503 q 585 586 675 586 q 493 572 538 586 l 493 0 l 376 0 l 376 169 q 279 157 322 157 q 68 347 68 157 l 68 810 l -39 810 l -39 910 l 890 910 l 890 810 l 493 810 l 493 681 q 590 694 538 694 q 742 644 692 694 q 793 506 793 594 l 793 272 q 603 88 793 88 q 578 89 597 88 l 578 199 q 654 217 633 197 q 675 281 675 238 l 675 503 z "},"ब":{"ha":601,"x_min":-39,"x_max":642,"o":"m -39 910 l 642 910 l 642 810 l 513 810 l 513 0 l 401 0 l 401 107 q 288 90 361 90 q 58 286 58 90 l 58 507 q 285 701 58 701 q 401 685 358 701 l 401 810 l -39 810 l -39 910 m 294 601 q 178 540 199 601 l 401 353 l 401 583 q 294 601 354 601 m 172 289 q 294 192 172 192 q 401 206 356 192 l 401 260 l 172 453 l 172 289 z "},"भ":{"ha":838,"x_min":61,"x_max":878,"o":"m 353 564 l 353 725 q 336 788 353 768 q 269 808 319 808 q 201 788 218 808 q 185 725 185 767 l 190 661 l 72 661 q 67 728 67 699 q 269 917 67 917 q 471 728 471 917 l 471 564 l 631 564 l 631 910 l 878 910 l 878 810 l 749 810 l 749 0 l 631 0 l 631 463 l 468 463 l 468 261 q 265 82 468 82 q 61 261 61 82 l 61 388 q 264 564 61 564 l 353 564 m 353 265 l 353 463 l 264 463 q 194 444 211 463 q 176 383 176 425 l 176 265 q 194 205 176 224 q 265 186 211 186 q 335 205 318 186 q 353 265 353 224 z "},"म":{"ha":813,"x_min":-39,"x_max":851,"o":"m 607 0 l 607 503 l 449 503 l 449 263 q 246 83 449 83 q 43 263 43 83 l 43 426 q 246 603 43 603 l 335 603 l 335 810 l -39 810 l -39 910 l 851 910 l 851 810 l 724 810 l 724 0 l 607 0 m 449 603 l 607 603 l 607 810 l 449 810 l 449 603 m 335 265 l 335 503 l 246 503 q 175 483 193 503 q 157 424 157 464 l 157 265 q 175 206 157 225 q 247 186 193 186 q 317 205 300 186 q 335 265 335 224 z "},"य":{"ha":703,"x_min":-39,"x_max":743,"o":"m 240 722 q 229 810 240 774 l -39 810 l -39 910 l 743 910 l 743 810 l 614 810 l 614 0 l 496 0 l 496 133 q 353 118 425 118 q 144 176 224 118 q 65 361 65 235 l 65 538 l 96 538 q 210 558 179 538 q 240 635 240 578 l 240 722 m 356 722 l 356 618 q 182 453 356 457 l 182 374 q 224 264 182 300 q 349 228 267 228 q 496 243 432 228 l 496 810 l 346 810 q 356 722 356 778 z "},"र":{"ha":586,"x_min":-39,"x_max":625,"o":"m 392 722 q 381 810 392 774 l -39 810 l -39 910 l 625 910 l 625 810 l 500 810 q 510 722 510 781 l 510 543 q 306 351 510 351 q 193 368 243 351 l 193 211 q 342 100 193 100 q 518 128 426 100 l 518 19 q 321 -7 433 -7 q 142 49 208 -7 q 76 208 76 106 l 76 625 l 193 625 l 193 472 q 299 457 249 457 q 392 544 392 457 l 392 722 z "},"ऱ":{"ha":590,"x_min":-42,"x_max":631,"o":"m 397 722 q 385 810 397 778 l -39 810 l -39 910 l 631 910 l 631 810 l 506 810 q 515 722 515 781 l 515 543 q 310 351 515 351 q 199 368 249 351 l 199 211 q 347 100 199 100 q 522 128 431 100 l 522 19 q 327 -7 440 -7 q 147 49 214 -7 q 81 208 81 106 l 81 625 l 199 625 l 199 472 q 304 457 254 457 q 397 544 397 457 l 397 722 m 28 -168 q -7 -168 28 -168 q -42 -97 -42 -168 q 28 -26 -42 -26 q 97 -97 97 -26 q 28 -168 97 -168 z "},"ल":{"ha":872,"x_min":-39,"x_max":911,"o":"m 65 224 l 65 478 q 117 622 65 571 q 272 672 168 672 q 422 606 376 672 q 574 671 469 671 q 665 656 625 671 l 665 810 l -39 810 l -39 910 l 911 910 l 911 810 l 783 810 l 783 0 l 665 0 l 665 547 q 581 563 629 563 q 483 478 483 563 l 483 290 l 365 290 l 365 478 q 345 540 365 518 q 273 563 325 563 q 202 540 221 563 q 183 475 183 517 l 183 228 q 210 138 183 169 q 313 107 238 107 q 393 114 342 107 l 393 7 q 308 0 356 0 q 124 56 182 0 q 65 224 65 113 z "},"ळ":{"ha":835,"x_min":-39,"x_max":875,"o":"m 475 486 l 475 186 q 571 96 475 96 q 642 119 624 96 q 661 186 661 143 l 661 486 q 642 553 661 531 q 570 576 624 576 q 496 553 517 576 q 475 486 475 529 m 178 486 l 178 186 q 197 119 178 143 q 268 96 215 96 q 364 186 364 96 l 364 486 q 343 553 364 529 q 269 576 322 576 q 197 553 215 576 q 178 486 178 531 m 771 488 l 771 186 q 574 -7 771 -7 q 419 63 463 -7 q 265 -7 374 -7 q 65 186 65 -7 l 65 490 q 265 681 65 681 q 419 608 374 681 q 513 671 447 658 l 513 810 l -39 810 l -39 910 l 875 910 l 875 810 l 631 810 l 631 674 q 771 488 771 649 z "},"ऴ":{"ha":835,"x_min":-39,"x_max":875,"o":"m 490 -155 q 490 -190 490 -155 q 419 -225 490 -225 q 349 -155 349 -225 q 419 -85 349 -85 q 490 -155 490 -85 m 475 486 l 475 186 q 571 96 475 96 q 642 119 624 96 q 661 186 661 143 l 661 486 q 642 553 661 531 q 570 576 624 576 q 496 553 517 576 q 475 486 475 529 m 178 486 l 178 186 q 197 119 178 143 q 268 96 215 96 q 364 186 364 96 l 364 486 q 343 553 364 529 q 269 576 322 576 q 197 553 215 576 q 178 486 178 531 m 771 488 l 771 186 q 574 -7 771 -7 q 419 63 463 -7 q 265 -7 374 -7 q 65 186 65 -7 l 65 490 q 265 681 65 681 q 419 608 374 681 q 513 671 447 658 l 513 810 l -39 810 l -39 910 l 875 910 l 875 810 l 631 810 l 631 674 q 771 488 771 649 z "},"व":{"ha":599,"x_min":-39,"x_max":639,"o":"m 289 600 q 176 507 176 600 l 176 285 q 289 193 176 193 q 396 208 361 193 l 396 585 q 289 600 354 600 m 392 810 l -39 810 l -39 910 l 639 910 l 639 810 l 510 810 l 510 0 l 392 0 l 392 106 q 274 90 350 90 q 61 283 61 90 l 61 508 q 114 651 61 600 q 258 701 167 701 q 392 686 350 701 l 392 810 z "},"श":{"ha":847,"x_min":79,"x_max":886,"o":"m 514 724 l 514 533 q 307 344 514 344 q 197 361 244 344 l 197 221 q 343 104 197 104 q 504 132 415 104 l 504 22 q 317 -3 424 -3 q 145 58 211 -3 q 79 218 79 118 l 79 561 l 197 561 l 197 465 q 299 450 246 450 q 374 472 353 450 q 396 536 396 494 l 396 721 q 374 785 396 763 q 297 808 353 808 q 197 719 197 808 q 203 667 197 681 l 85 667 q 79 724 79 700 q 133 867 79 817 q 297 917 188 917 q 514 724 514 917 m 640 910 l 886 910 l 886 810 l 758 810 l 758 0 l 640 0 l 640 910 z "},"ष":{"ha":618,"x_min":-40,"x_max":658,"o":"m -40 910 l 658 910 l 658 810 l 529 810 l 529 0 l 413 0 l 413 179 q 282 160 357 160 q 67 349 67 160 l 67 810 l -40 810 l -40 910 m 413 810 l 185 810 l 185 700 l 413 490 l 413 810 m 185 353 q 299 265 185 265 q 413 285 349 265 l 413 390 l 185 599 l 185 353 z "},"स":{"ha":850,"x_min":-39,"x_max":889,"o":"m 368 722 q 356 810 368 769 l -39 810 l -39 910 l 889 910 l 889 810 l 761 810 l 761 0 l 643 0 l 643 392 l 438 392 q 282 340 386 340 q 192 351 233 340 l 192 211 q 339 100 192 100 q 508 128 417 100 l 508 19 q 316 -7 426 -7 q 140 49 206 -7 q 74 208 74 106 l 74 625 l 192 625 l 192 457 q 269 446 228 446 q 368 532 368 446 l 368 722 m 643 493 l 643 810 l 475 810 q 485 722 485 781 l 485 532 q 482 493 485 518 l 643 493 z "},"ह":{"ha":593,"x_min":-39,"x_max":633,"o":"m 64 193 l 64 256 q 135 386 64 350 q 65 513 65 419 l 65 533 q 116 662 65 621 q 274 703 167 703 l 381 703 l 381 810 l -39 810 l -39 910 l 633 910 l 633 810 l 499 810 l 499 599 l 274 599 q 203 581 222 599 q 183 526 183 564 l 183 511 q 204 458 183 475 q 276 440 225 440 l 351 440 q 490 398 447 440 q 532 268 532 356 l 532 226 l 424 226 l 424 260 q 408 321 424 303 q 342 339 393 339 l 285 339 q 204 319 228 339 q 181 258 181 299 l 181 199 q 333 96 181 96 q 513 119 433 96 l 513 17 q 321 -8 442 -8 q 132 44 200 -8 q 64 193 64 97 z "},"़":{"ha":0,"x_min":-354,"x_max":-212,"o":"m -212 -138 q -212 -173 -212 -138 q -283 -208 -212 -208 q -354 -138 -354 -208 q -283 -68 -354 -68 q -212 -138 -212 -68 z "},"ऽ":{"ha":583,"x_min":63,"x_max":538,"o":"m 538 274 l 538 200 q 307 -7 538 -7 l 296 -7 q 64 200 64 -7 l 64 289 l 182 289 l 182 197 q 206 128 182 153 q 299 103 231 103 l 303 103 q 395 128 371 103 q 419 197 419 153 l 419 275 q 406 342 419 315 q 354 390 392 368 l 171 500 q 63 690 63 564 l 63 726 q 110 864 63 818 q 272 910 158 910 l 504 910 l 504 800 l 278 800 q 199 781 218 800 q 181 722 181 761 l 181 694 q 194 630 181 656 q 246 582 208 604 l 426 475 q 514 390 490 436 q 538 274 538 344 z "},"ा":{"ha":296,"x_min":-39,"x_max":335,"o":"m 89 810 l -39 810 l -39 910 l 335 910 l 335 810 l 207 810 l 207 0 l 89 0 l 89 810 z "},"ि":{"ha":296,"x_min":-39,"x_max":786,"o":"m 90 910 l 90 957 q 417 1231 90 1231 q 603 1212 511 1231 q 742 1175 696 1193 l 786 1156 l 786 1049 q 615 1098 724 1075 q 406 1121 506 1121 q 258 1081 307 1121 q 208 954 208 1042 l 208 910 l 335 910 l 335 810 l 207 810 l 207 0 l 89 0 l 89 810 l -39 810 l -39 910 l 90 910 z "},"ी":{"ha":296,"x_min":-200,"x_max":335,"o":"m 89 910 l 89 1046 q 70 1106 89 1086 q 4 1125 51 1125 q -62 1106 -43 1125 q -82 1046 -82 1086 l -82 996 l -200 996 l -200 1046 q 3 1232 -200 1232 q 207 1046 207 1232 l 207 910 l 335 910 l 335 810 l 207 810 l 207 0 l 89 0 l 89 810 l -39 810 l -39 910 l 89 910 z "},"ु":{"ha":0,"x_min":-572,"x_max":42,"o":"m -236 -224 l -146 -224 q -82 -208 -97 -224 q -67 -154 -67 -192 q -83 -100 -67 -117 q -140 -83 -100 -83 q -278 -100 -214 -83 l -278 -3 q -134 14 -221 14 q -3 -26 -47 14 q 42 -153 42 -65 q 1 -280 42 -240 q -131 -319 -39 -319 l -247 -319 q -347 -301 -303 -319 q -437 -229 -392 -282 l -572 -79 l -431 -79 l -353 -164 q -295 -212 -319 -201 q -236 -224 -271 -224 z "},"ू":{"ha":0,"x_min":-353,"x_max":256,"o":"m -57 -310 q -70 -312 -58 -310 q -94 -318 -82 -315 q -171 -325 -126 -325 q -309 -286 -265 -325 q -353 -159 -353 -247 q -313 -31 -353 -71 q -182 8 -274 8 l -124 8 q -7 -15 -53 8 q 83 -93 39 -37 l 256 -310 l 121 -310 l 3 -164 q -59 -103 -33 -118 q -135 -87 -85 -87 l -165 -87 q -230 -104 -214 -87 q -246 -158 -246 -121 q -229 -211 -246 -194 q -169 -228 -212 -228 q -57 -214 -126 -228 l -57 -310 z "},"ृ":{"ha":0,"x_min":-418,"x_max":-86,"o":"m -92 -86 q -202 -74 -149 -74 q -279 -91 -256 -74 q -303 -162 -303 -108 q -279 -235 -303 -217 q -219 -254 -256 -254 q -86 -242 -161 -254 l -86 -347 q -211 -361 -143 -361 q -418 -162 -418 -361 q -211 33 -418 33 q -92 19 -158 33 l -92 -86 z "},"ॄ":{"ha":0,"x_min":-417,"x_max":-79,"o":"m -92 -79 l -211 -69 q -278 -87 -258 -69 q -299 -147 -299 -104 l -299 -151 q -279 -207 -299 -193 q -219 -221 -260 -221 l -122 -221 l -122 -321 l -212 -321 q -278 -338 -258 -321 q -299 -397 -299 -356 l -299 -403 q -278 -458 -299 -444 q -194 -471 -258 -471 q -79 -464 -129 -471 l -79 -569 q -217 -578 -126 -578 q -417 -399 -417 -578 q -372 -272 -417 -317 q -417 -147 -417 -231 q -217 32 -417 32 q -137 27 -178 32 q -92 22 -96 22 l -92 -79 z "},"ॅ":{"ha":0,"x_min":-389,"x_max":93,"o":"m -22 1189 l 93 1189 l 93 1185 q 33 1044 93 1088 q -147 1000 -26 1000 q -328 1044 -268 1000 q -389 1185 -389 1088 l -389 1189 l -274 1189 q -245 1122 -274 1140 q -149 1103 -217 1103 q -51 1122 -81 1103 q -22 1189 -22 1140 z "},"ॆ":{"ha":0,"x_min":-564,"x_max":-89,"o":"m -204 910 q -231 993 -204 965 q -328 1021 -257 1021 q -508 1070 -451 1021 q -564 1229 -564 1119 l -449 1229 q -422 1147 -449 1175 q -324 1119 -394 1119 q -145 1068 -201 1119 q -89 910 -89 1017 l -204 910 z "},"े":{"ha":0,"x_min":-450,"x_max":-89,"o":"m -450 1225 q -387 1229 -429 1229 q -232 1131 -296 1229 l -89 910 l -211 910 l -317 1072 q -414 1128 -356 1128 q -450 1126 -439 1128 l -450 1225 z "},"ै":{"ha":0,"x_min":-594,"x_max":-89,"o":"m -290 1229 q -151 1115 -186 1229 l -89 910 l -193 910 l -242 1064 q -266 1113 -253 1099 q -297 1128 -279 1128 q -332 1125 -315 1128 l -332 1225 q -290 1229 -314 1229 m -594 1225 q -532 1229 -572 1229 q -378 1124 -453 1229 l -232 910 l -350 910 l -461 1072 q -558 1128 -501 1128 q -594 1126 -582 1128 l -594 1225 z "},"ॉ":{"ha":296,"x_min":-89,"x_max":392,"o":"m 276 1190 l 392 1190 l 392 1186 q 332 1044 392 1088 q 151 1001 272 1001 q -29 1044 31 1001 q -89 1186 -89 1088 l -89 1190 l 26 1190 q 55 1123 26 1142 q 151 1104 83 1104 q 248 1123 219 1104 q 276 1190 276 1142 m 89 810 l -39 810 l -39 910 l 335 910 l 335 810 l 207 810 l 207 0 l 89 0 l 89 810 z "},"ॊ":{"ha":296,"x_min":-269,"x_max":335,"o":"m 89 810 l -39 810 l -39 910 l 90 910 q 64 993 90 965 q -33 1021 38 1021 q -213 1070 -157 1021 q -269 1229 -269 1119 l -154 1229 q -127 1147 -154 1175 q -29 1119 -100 1119 q 149 1068 93 1119 q 206 910 206 1017 l 335 910 l 335 810 l 207 810 l 207 0 l 89 0 l 89 810 z "},"ो":{"ha":296,"x_min":-156,"x_max":335,"o":"m 335 910 l 335 810 l 207 810 l 207 0 l 89 0 l 89 810 l -39 810 l -39 910 l 85 910 l -22 1072 q -119 1128 -58 1128 q -156 1126 -143 1128 l -156 1225 q -92 1229 -133 1229 q 64 1131 0 1229 l 206 910 l 335 910 z "},"ौ":{"ha":296,"x_min":-303,"x_max":335,"o":"m 335 910 l 335 810 l 207 810 l 207 0 l 89 0 l 89 810 l -119 810 l -119 910 l -60 910 l -171 1072 q -267 1128 -211 1128 q -303 1126 -292 1128 l -303 1225 q -242 1229 -282 1229 q -86 1124 -161 1229 l 58 910 l 97 910 l 49 1064 q 24 1113 38 1099 q -7 1128 11 1128 q -42 1125 -25 1128 l -42 1225 q 0 1229 -22 1229 q 139 1115 104 1229 l 201 910 l 335 910 z "},"्":{"ha":0,"x_min":-199,"x_max":64,"o":"m 64 -296 l -61 -296 l -199 -81 l -92 -81 l 64 -296 z "},"ॐ":{"ha":1093,"x_min":64,"x_max":1026,"o":"m 603 368 l 603 724 q 815 917 603 917 q 1026 725 1026 917 l 1026 222 q 963 51 1026 108 q 760 -7 899 -7 q 638 6 694 -7 l 638 114 q 773 103 697 103 q 880 133 849 103 q 911 229 911 164 l 911 721 q 890 785 911 763 q 814 808 869 808 q 738 785 758 808 q 717 721 717 763 l 717 317 q 706 277 717 289 q 665 265 696 265 l 457 265 l 457 194 q 217 -7 454 -7 q 64 13 136 -7 l 64 122 q 215 101 138 101 q 340 197 340 101 l 340 310 q 319 381 340 357 q 236 407 297 406 l 153 407 l 153 515 l 236 515 q 319 540 297 517 q 340 611 340 564 l 340 713 q 217 810 340 810 q 81 788 154 810 l 81 899 q 217 917 135 917 q 457 715 457 917 l 457 611 q 388 461 457 493 q 451 368 438 436 l 603 368 m 771 1143 l 771 1139 q 711 998 771 1042 q 531 954 651 954 q 349 998 410 954 q 289 1139 289 1042 l 289 1143 l 404 1143 q 433 1076 404 1094 q 530 1057 461 1057 q 627 1076 599 1057 q 656 1143 656 1094 l 771 1143 m 597 1208 q 597 1174 597 1208 q 530 1140 597 1140 q 463 1208 463 1140 q 530 1275 463 1275 q 597 1208 597 1275 z "},"॑":{"ha":0,"x_min":-207,"x_max":-89,"o":"m -207 1314 l -89 1314 l -89 978 l -207 978 l -207 1314 z "},"॒":{"ha":0,"x_min":-601,"x_max":-37,"o":"m -37 -212 l -601 -212 l -601 -111 l -37 -111 l -37 -212 z "},"॓":{"ha":468,"x_min":75,"x_max":357,"o":"m 75 1314 l 200 1314 l 357 978 l 232 978 l 75 1314 z "},"॔":{"ha":458,"x_min":75,"x_max":357,"o":"m 232 1314 l 357 1314 l 200 978 l 75 978 l 232 1314 z "},"क़":{"ha":831,"x_min":-35,"x_max":869,"o":"m 167 -104 q 132 -104 167 -104 q 97 -34 97 -104 q 167 36 97 36 q 238 -34 238 36 q 167 -104 238 -104 m 558 208 l 582 207 q 642 228 626 208 q 658 290 658 249 l 658 513 q 636 576 658 554 q 563 597 614 597 q 478 586 511 597 l 478 0 l 361 0 l 361 101 q 264 89 311 89 q 63 271 63 89 l 63 515 q 264 700 63 700 q 304 696 294 700 l 304 594 q 275 597 290 597 q 198 575 219 597 q 176 513 176 553 l 176 275 q 198 211 176 233 q 271 189 219 189 q 361 203 322 189 l 361 810 l -35 810 l -35 910 l 869 910 l 869 810 l 478 810 l 478 690 q 571 701 511 701 q 772 515 772 701 l 772 282 q 590 96 772 96 q 558 99 572 96 l 558 208 z "},"ख़":{"ha":1039,"x_min":-39,"x_max":1079,"o":"m 357 722 q 340 810 357 774 l -39 810 l -39 910 l 1079 910 l 1079 810 l 950 810 l 950 0 l 835 0 l 835 178 q 736 165 788 165 q 585 212 631 165 q 539 351 539 258 l 539 507 q 583 649 539 601 q 732 696 628 696 q 835 685 775 696 l 835 810 l 454 810 q 468 722 468 781 l 468 553 q 261 347 468 347 q 176 356 224 347 l 176 253 q 378 101 176 101 q 563 128 478 101 l 563 17 q 371 -6 476 -6 q 144 59 225 -6 q 63 251 63 124 l 63 618 l 176 618 l 176 460 q 256 453 215 453 q 357 554 357 453 l 357 722 m 835 581 q 739 590 789 590 q 647 507 647 590 l 647 351 q 668 290 647 311 q 749 268 689 268 q 835 279 810 268 l 835 581 m -14 -92 q -14 -57 -14 -92 q 56 -22 -14 -22 q 125 -92 125 -22 q 56 -162 125 -162 q -14 -92 -14 -162 z "},"ग़":{"ha":676,"x_min":-35,"x_max":715,"o":"m 715 910 l 715 810 l 588 810 l 588 0 l 469 0 l 469 810 l 286 810 l 286 449 q 237 308 286 358 q 94 257 188 257 q 38 261 58 257 l 38 374 q 79 371 51 371 q 168 456 168 371 l 168 810 l -35 810 l -35 910 l 715 910 m 83 77 q 83 112 83 77 q 154 147 83 147 q 225 77 225 147 q 154 7 225 7 q 83 77 83 7 z "},"ज़":{"ha":782,"x_min":-39,"x_max":821,"o":"m 294 476 q 281 565 294 529 l 132 565 l 132 672 l 575 672 l 575 810 l -39 810 l -39 910 l 821 910 l 821 810 l 693 810 l 693 0 l 575 0 l 575 569 l 400 569 q 413 482 413 540 l 413 264 q 353 113 413 165 q 181 61 293 61 q 54 76 111 61 l 54 185 q 176 169 115 169 q 294 267 294 169 l 294 476 m 63 -142 q 28 -142 63 -142 q -7 -72 -7 -142 q 63 -1 -7 -1 q 133 -72 133 -1 q 63 -142 133 -142 z "},"ड़":{"ha":579,"x_min":-39,"x_max":618,"o":"m 522 224 l 522 185 q 268 -11 522 -11 q 78 11 174 -11 l 78 121 q 268 97 168 97 q 404 186 404 97 l 404 221 q 383 281 404 260 q 304 301 361 301 l 276 301 q 65 478 65 301 l 65 525 q 117 658 65 615 q 276 701 169 701 l 363 701 l 363 810 l -39 810 l -39 910 l 618 910 l 618 810 l 481 810 l 481 597 l 276 597 q 203 578 224 597 q 183 519 183 558 l 183 481 q 203 424 183 443 q 276 404 224 404 l 304 404 q 522 224 522 404 m 295 -249 q 260 -249 295 -249 q 225 -178 225 -249 q 295 -108 225 -108 q 365 -178 365 -108 q 295 -249 365 -249 z "},"ढ़":{"ha":576,"x_min":-39,"x_max":615,"o":"m 365 -178 q 365 -214 365 -178 q 294 -249 365 -249 q 224 -178 224 -249 q 294 -108 224 -108 q 365 -178 365 -108 m 329 322 q 276 311 299 322 l 276 417 q 344 428 304 428 q 519 246 519 428 l 519 193 q 294 -7 519 -7 q 68 196 68 -7 l 68 510 q 120 651 68 606 q 283 697 172 697 l 361 697 l 361 810 l -39 810 l -39 910 l 615 910 l 615 810 l 478 810 l 478 589 l 283 589 q 206 569 226 589 q 185 507 185 549 l 185 199 q 208 126 185 151 q 294 101 232 101 q 381 126 357 101 q 404 197 404 150 l 404 243 q 329 322 404 322 z "},"फ़":{"ha":857,"x_min":-40,"x_max":897,"o":"m 383 810 l 192 810 l 192 350 q 300 264 192 264 q 383 274 344 264 l 383 810 m 682 503 q 592 586 682 586 q 499 572 543 586 l 499 0 l 383 0 l 383 169 q 286 157 329 157 q 74 347 74 157 l 74 810 l -40 810 l -40 910 l 897 910 l 897 810 l 499 810 l 499 681 q 597 694 543 694 q 749 644 697 694 q 800 506 800 594 l 800 272 q 608 88 800 88 l 583 89 l 583 199 q 661 217 640 197 q 682 281 682 238 l 682 503 m 116 -69 q 81 -69 116 -69 q 46 1 46 -69 q 116 71 46 71 q 186 1 186 71 q 116 -69 186 -69 z "},"य़":{"ha":707,"x_min":-39,"x_max":747,"o":"m 244 722 q 233 810 244 774 l -39 810 l -39 910 l 747 910 l 747 810 l 618 810 l 618 0 l 501 0 l 501 133 q 357 118 431 118 q 149 176 228 118 q 71 361 71 235 l 71 538 l 100 538 q 214 558 183 538 q 244 635 244 578 l 244 722 m 360 722 l 360 618 q 186 453 360 457 l 186 374 q 363 228 186 228 q 501 243 438 228 l 501 810 l 350 810 q 360 722 360 778 m 112 -71 q 77 -71 112 -71 q 42 0 42 -71 q 112 71 42 71 q 182 0 182 71 q 112 -71 182 -71 z "},"ॠ":{"ha":982,"x_min":-39,"x_max":1021,"o":"m 1021 810 l 550 810 l 550 592 q 691 588 617 588 q 791 610 765 588 q 817 681 817 633 l 817 694 l 931 694 l 931 315 l 860 315 q 794 296 813 315 q 775 228 775 276 q 871 146 775 146 l 910 146 l 910 44 l 857 44 q 794 29 814 44 q 775 -35 775 14 q 797 -100 775 -85 q 882 -115 818 -115 q 971 -111 946 -115 l 971 -212 q 850 -217 942 -217 q 657 -46 657 -217 q 711 93 657 50 q 658 226 658 138 q 699 354 658 314 q 821 399 739 394 l 821 514 q 700 478 783 478 q 550 482 617 478 l 550 0 l 438 0 l 438 131 q 443 324 438 296 l 442 324 q 424 299 439 317 q 396 264 410 281 q 347 206 360 218 l 197 49 l 47 49 l 47 53 l 432 454 l 432 499 q 301 582 432 582 q 197 555 226 582 q 168 472 168 528 l 168 389 l 53 389 l 53 479 q 290 690 53 690 q 432 654 401 690 l 432 810 l -39 810 l -39 910 l 1021 910 l 1021 810 z "},"ॡ":{"ha":872,"x_min":-39,"x_max":911,"o":"m 783 244 l 682 244 q 616 226 636 244 q 596 165 596 208 q 615 107 596 121 q 676 93 635 93 l 754 93 l 754 -11 l 683 -11 q 616 -28 636 -11 q 596 -90 596 -46 q 616 -148 596 -133 q 704 -162 636 -162 q 796 -160 772 -162 l 796 -265 q 678 -269 769 -269 q 478 -89 478 -269 q 525 40 478 -3 q 478 167 478 82 q 665 346 478 340 l 665 496 q 574 563 665 563 q 483 478 483 563 l 483 367 l 365 367 l 365 478 q 345 540 365 518 q 273 563 325 563 q 202 540 221 563 q 183 475 183 517 l 183 228 q 210 138 183 169 q 313 107 238 107 l 351 107 l 351 0 l 308 0 q 124 56 182 0 q 65 224 65 113 l 65 478 q 117 622 65 571 q 272 672 168 672 q 422 606 376 672 q 569 671 469 671 q 665 644 642 671 l 665 810 l -39 810 l -39 910 l 911 910 l 911 810 l 783 810 l 783 244 z "},"।":{"ha":410,"x_min":203,"x_max":321,"o":"m 203 0 l 203 910 l 321 910 l 321 0 l 203 0 z "},"॥":{"ha":618,"x_min":129,"x_max":529,"o":"m 411 0 l 411 910 l 529 910 l 529 0 l 411 0 m 129 0 l 129 910 l 247 910 l 247 0 l 129 0 z "},"०":{"ha":628,"x_min":72,"x_max":556,"o":"m 428 724 q 314 840 428 840 q 200 724 200 840 l 200 217 q 314 101 200 101 q 428 217 428 101 l 428 724 m 72 726 q 132 892 72 831 q 314 954 192 954 q 496 892 436 954 q 556 726 556 831 l 556 214 q 496 48 556 110 q 314 -14 436 -14 q 132 48 192 -14 q 72 214 72 110 l 72 726 z "},"१":{"ha":401,"x_min":17,"x_max":315,"o":"m 315 940 l 315 0 l 186 0 l 186 799 l 17 676 l 17 819 l 185 940 l 315 940 z "},"२":{"ha":572,"x_min":57,"x_max":511,"o":"m 251 947 q 511 740 511 947 l 511 661 q 487 537 511 586 q 404 447 463 488 l 293 364 q 207 286 228 317 q 186 199 186 256 l 186 115 l 510 115 l 510 0 l 57 0 l 57 208 q 92 345 57 293 q 197 444 126 397 l 315 535 q 368 592 354 561 q 382 676 382 624 l 382 731 q 354 805 382 781 q 241 829 326 829 q 72 799 156 829 l 72 922 q 251 947 154 947 z "},"३":{"ha":556,"x_min":36,"x_max":483,"o":"m 217 949 q 479 739 479 949 l 479 643 q 379 475 479 514 q 483 317 483 447 l 483 203 q 418 48 483 103 q 230 -7 353 -7 q 36 19 107 -7 l 36 142 q 207 110 121 110 q 324 136 293 110 q 354 213 354 163 l 354 301 q 328 385 354 357 q 240 413 301 413 l 142 413 l 142 531 l 239 531 q 325 560 300 531 q 350 646 350 589 l 350 729 q 320 806 350 779 q 206 832 290 832 q 54 808 122 832 l 54 929 q 217 949 119 949 z "},"४":{"ha":585,"x_min":14,"x_max":578,"o":"m 578 285 l 578 171 l 483 171 l 483 0 l 361 0 l 361 171 l 14 171 l 14 289 l 303 940 l 483 940 l 483 285 l 578 285 m 365 285 l 365 824 l 129 285 l 365 285 z "},"५":{"ha":590,"x_min":74,"x_max":525,"o":"m 79 940 l 500 940 l 500 822 l 207 822 l 207 563 q 311 568 256 568 q 472 514 418 568 q 525 358 525 460 l 525 201 q 459 48 525 103 q 274 -7 393 -7 q 74 22 156 -7 l 74 144 q 257 110 172 110 q 396 211 396 110 l 396 346 q 371 426 396 401 q 282 451 346 451 q 79 438 263 451 l 79 940 z "},"६":{"ha":613,"x_min":72,"x_max":556,"o":"m 428 383 q 319 483 428 483 q 200 457 244 483 l 200 215 q 314 100 200 100 q 428 215 428 100 l 428 383 m 72 717 q 137 883 72 819 q 322 947 201 947 q 518 922 443 947 l 518 800 q 339 829 444 829 q 200 707 200 829 l 200 571 q 350 596 257 596 q 499 543 443 596 q 556 392 556 490 l 556 214 q 496 48 556 110 q 314 -14 436 -14 q 132 48 192 -14 q 72 214 72 110 l 72 717 z "},"७":{"ha":478,"x_min":7,"x_max":449,"o":"m 7 940 l 449 940 l 449 839 l 349 529 q 281 139 281 311 l 281 0 l 151 0 l 151 146 q 221 543 151 332 l 308 824 l 7 824 l 7 940 z "},"८":{"ha":640,"x_min":72,"x_max":567,"o":"m 564 732 l 564 639 q 476 469 564 517 q 567 297 567 421 l 567 208 q 505 46 567 106 q 319 -14 443 -14 q 134 46 196 -14 q 72 208 72 106 l 72 297 q 163 469 72 421 q 75 639 75 517 l 75 732 q 135 894 75 835 q 319 954 196 954 q 503 894 443 954 q 564 732 564 835 m 201 732 l 201 636 q 319 521 201 521 q 438 636 438 521 l 438 732 q 319 843 438 843 q 201 732 201 843 m 440 210 l 440 301 q 320 417 440 417 q 200 301 200 417 l 200 210 q 320 97 200 97 q 440 210 440 97 z "},"९":{"ha":613,"x_min":58,"x_max":540,"o":"m 413 725 q 388 812 413 782 q 300 842 363 842 q 212 812 238 842 q 186 725 186 782 l 186 553 q 293 446 186 446 q 413 472 372 446 l 413 725 m 58 726 q 117 892 58 831 q 299 954 176 954 q 481 892 422 954 q 540 726 540 831 l 540 211 q 474 52 540 111 q 285 -7 407 -7 q 86 21 164 -7 l 86 143 q 272 110 171 110 q 413 221 413 110 l 413 358 q 265 333 361 333 q 113 388 168 333 q 58 542 58 443 l 58 726 z "},"॰":{"ha":540,"x_min":69,"x_max":476,"o":"m 194 544 q 184 530 194 544 q 174 458 174 515 q 194 373 174 401 q 272 344 215 344 q 351 373 329 344 q 372 458 372 401 q 351 544 372 515 q 272 572 329 572 q 194 544 215 572 m 476 458 q 273 247 476 247 q 69 459 69 247 q 272 671 69 671 q 427 614 378 671 q 476 458 476 557 z "},"ॲ":{"ha":797,"x_min":53,"x_max":892,"o":"m 776 1189 l 892 1189 l 892 1185 q 832 1044 892 1088 q 651 1000 772 1000 q 470 1044 531 1000 q 410 1185 410 1088 l 410 1189 l 525 1189 q 553 1122 525 1140 q 650 1103 582 1103 q 747 1122 718 1103 q 776 1189 776 1140 m 590 399 l 590 910 l 838 910 l 838 810 l 708 810 l 708 0 l 590 0 l 590 296 l 446 296 l 446 250 q 206 49 443 49 q 53 68 118 49 l 53 178 q 204 157 126 157 q 329 253 329 157 l 329 342 q 308 413 329 389 q 225 439 286 438 l 142 439 l 142 547 l 225 547 q 308 572 286 549 q 329 643 329 596 l 329 713 q 206 810 329 810 q 69 788 143 810 l 69 899 q 206 917 124 917 q 446 715 446 917 l 446 643 q 376 493 446 525 q 440 399 429 468 l 590 399 z "},"ॽ":{"ha":613,"x_min":82,"x_max":544,"o":"m 82 604 l 82 738 q 138 891 82 835 q 313 947 193 947 q 488 891 432 947 q 544 738 544 835 l 544 476 q 499 327 544 381 q 347 268 454 274 l 347 0 l 236 0 l 236 374 l 313 374 q 403 403 379 375 q 426 482 426 432 l 426 735 q 313 838 426 838 q 224 809 247 838 q 200 735 200 781 l 200 604 l 82 604 z "},"​":{"ha":0,"x_min":0,"x_max":0,"o":""},"‌":{"ha":0,"x_min":-32,"x_max":33,"o":"m 33 -319 l -32 -319 l -32 1126 l 33 1126 l 33 -319 z "},"‍":{"ha":0,"x_min":-176,"x_max":179,"o":"m 33 -319 l -32 -319 l -32 882 l -128 781 l -174 826 l -44 956 l -176 1088 l -131 1133 l 1 1001 l 135 1133 l 179 1089 l 46 956 l 179 824 l 133 778 l 33 882 l 33 -319 z "},"–":{"ha":643,"x_min":56,"x_max":574,"o":"m 56 507 l 574 507 l 574 399 l 56 399 l 56 507 z "},"—":{"ha":967,"x_min":56,"x_max":896,"o":"m 56 508 l 896 508 l 896 400 l 56 400 l 56 508 z "},"‘":{"ha":238,"x_min":39,"x_max":199,"o":"m 96 701 q 39 757 39 701 q 72 870 39 796 q 136 999 104 944 l 199 999 l 143 701 l 96 701 z "},"’":{"ha":238,"x_min":39,"x_max":199,"o":"m 142 999 q 199 943 199 999 q 165 828 199 903 q 101 701 132 753 l 39 701 l 96 999 l 142 999 z "},"‚":{"ha":238,"x_min":39,"x_max":199,"o":"m 142 140 q 199 85 199 140 q 165 -30 199 44 q 101 -156 132 -104 l 39 -156 l 96 140 l 142 140 z "},"“":{"ha":413,"x_min":39,"x_max":374,"o":"m 96 701 q 39 757 39 701 q 72 870 39 796 q 136 999 104 944 l 194 999 l 138 701 l 96 701 m 276 701 q 218 757 218 701 q 251 870 218 796 q 315 999 283 944 l 374 999 l 317 701 l 276 701 z "},"”":{"ha":413,"x_min":39,"x_max":374,"o":"m 138 999 q 194 943 194 999 q 97 701 194 868 l 39 701 l 96 999 l 138 999 m 317 999 q 374 943 374 999 q 276 701 374 868 l 218 701 l 275 999 l 317 999 z "},"„":{"ha":413,"x_min":39,"x_max":374,"o":"m 138 140 q 194 85 194 140 q 97 -156 194 11 l 39 -156 l 96 140 l 138 140 m 317 140 q 374 85 374 140 q 276 -156 374 11 l 218 -156 l 275 140 l 317 140 z "},"†":{"ha":504,"x_min":56,"x_max":450,"o":"m 194 1101 l 311 1101 l 303 901 q 450 910 371 910 l 450 810 q 303 819 371 810 q 311 603 311 714 l 311 -40 l 194 -40 l 194 603 q 204 819 194 683 q 56 810 140 810 l 56 910 q 204 901 132 910 q 194 1101 194 1007 z "},"‡":{"ha":504,"x_min":56,"x_max":450,"o":"m 194 1101 l 311 1101 l 301 901 q 450 910 365 910 l 450 810 q 301 819 364 810 q 301 242 307 533 q 450 251 365 251 l 450 150 q 301 160 386 150 q 311 -40 311 85 l 194 -40 q 203 160 194 71 q 56 150 140 150 l 56 251 q 203 242 139 251 q 203 819 197 533 q 56 810 140 810 l 56 910 q 203 901 131 910 q 194 1101 194 1007 z "},"•":{"ha":368,"x_min":72,"x_max":293,"o":"m 183 346 q 127 346 183 346 q 72 456 72 346 q 183 567 72 567 q 293 456 293 567 q 183 346 293 346 z "},"…":{"ha":847,"x_min":72,"x_max":757,"o":"m 415 -3 q 380 -3 415 -3 q 344 67 344 -3 q 415 138 344 138 q 485 67 485 138 q 415 -3 485 -3 m 142 -3 q 107 -3 142 -3 q 72 67 72 -3 q 142 138 72 138 q 213 67 213 138 q 142 -3 213 -3 m 687 -3 q 652 -3 687 -3 q 617 67 617 -3 q 687 138 617 138 q 757 67 757 138 q 687 -3 757 -3 z "},"‰":{"ha":1226,"x_min":49,"x_max":1183,"o":"m 1017 -11 q 934 -11 1017 -11 q 851 198 851 -11 q 1017 407 851 407 q 1183 198 1183 407 q 1017 -11 1183 -11 m 946 198 q 946 138 946 198 q 1017 78 946 78 q 1088 198 1088 78 q 1017 318 1088 318 q 946 198 946 318 m 629 -11 q 464 198 464 -11 q 629 407 464 407 q 754 352 713 407 q 796 199 796 297 q 754 44 796 100 q 629 -11 713 -11 m 558 198 q 558 138 558 198 q 629 78 558 78 q 700 198 700 78 q 629 318 700 318 q 558 198 558 318 m 90 590 q 69 618 90 590 q 49 744 49 646 q 90 898 49 843 q 215 953 132 953 q 381 744 381 953 q 215 535 381 535 q 90 590 132 535 m 215 622 q 250 622 215 622 q 285 743 285 622 q 215 864 285 864 q 144 743 144 864 q 215 622 144 622 m 574 940 l 665 940 l 272 0 l 179 0 l 574 940 z "},"‹":{"ha":551,"x_min":115,"x_max":414,"o":"m 283 701 l 414 701 l 244 447 l 414 193 l 283 193 l 115 447 l 283 701 z "},"›":{"ha":524,"x_min":115,"x_max":414,"o":"m 115 701 l 246 701 l 414 447 l 246 193 l 115 193 l 285 447 l 115 701 z "},"⁄":{"ha":375,"x_min":-101,"x_max":476,"o":"m 388 940 l 476 940 l -12 0 l -101 0 l 388 940 z "},"⁴":{"ha":429,"x_min":22,"x_max":421,"o":"m 269 608 l 269 956 l 106 608 l 269 608 m 354 1026 l 354 608 l 421 608 l 421 529 l 354 529 l 354 401 l 269 401 l 269 529 l 22 529 l 22 611 l 219 1026 l 354 1026 z "},"€":{"ha":589,"x_min":22,"x_max":529,"o":"m 224 339 l 224 208 q 255 134 224 160 q 371 108 286 108 q 529 132 456 108 l 529 15 q 360 -7 460 -7 q 94 200 94 -7 l 94 339 l 22 339 l 22 428 l 94 428 l 94 525 l 22 525 l 22 615 l 94 615 l 94 740 q 160 893 94 839 q 361 947 226 947 q 526 926 451 947 l 526 808 q 365 832 443 832 q 255 806 286 832 q 224 732 224 781 l 224 615 l 418 615 l 418 525 l 224 525 l 224 428 l 418 428 l 418 339 l 224 339 z "},"₹":{"ha":649,"x_min":67,"x_max":593,"o":"m 475 599 l 475 576 q 421 419 475 467 q 242 371 367 371 l 201 371 l 486 0 l 347 0 l 67 371 l 67 472 l 239 472 q 338 497 313 472 q 363 579 363 521 l 363 599 l 68 599 l 68 690 l 363 690 l 363 722 q 254 810 363 810 l 67 810 l 67 910 l 592 910 l 592 810 l 435 810 q 475 719 475 779 l 475 690 l 593 690 l 593 599 l 475 599 z "},"ℓ":{"ha":579,"x_min":24,"x_max":532,"o":"m 24 286 l 122 357 l 122 799 q 174 962 122 904 q 325 1019 225 1019 q 478 957 425 1019 q 532 778 532 894 q 249 300 532 518 l 249 188 q 332 107 249 107 q 422 124 372 107 l 422 8 q 409 6 421 8 q 385 0 397 3 q 314 -8 347 -8 q 122 179 122 -8 l 122 211 q 24 146 29 150 l 24 286 m 249 800 l 249 461 q 406 779 406 610 q 327 900 406 900 q 249 800 249 900 z "},"™":{"ha":804,"x_min":113,"x_max":715,"o":"m 715 979 l 715 640 l 649 640 l 649 818 l 664 951 l 582 640 l 526 640 l 443 953 l 458 818 l 458 640 l 392 640 l 392 979 l 494 979 l 543 786 l 554 721 l 565 786 l 614 979 l 715 979 m 113 922 l 113 979 l 363 979 l 363 922 l 272 922 l 272 640 l 203 640 l 203 922 l 113 922 z "},"Ω":{"ha":711,"x_min":57,"x_max":654,"o":"m 106 726 q 169 892 106 829 q 356 954 232 954 q 543 892 479 954 q 607 726 607 829 l 607 232 q 560 113 607 143 l 654 113 l 654 0 l 404 0 l 404 110 q 479 218 479 122 l 479 722 q 356 839 479 839 q 233 722 233 839 l 233 218 q 308 110 233 122 l 308 0 l 57 0 l 57 113 l 153 113 q 106 232 106 143 l 106 726 z "},"℮":{"ha":935,"x_min":83,"x_max":858,"o":"m 665 653 q 479 706 594 706 q 292 644 364 706 l 292 431 l 665 431 l 665 653 m 489 -14 q 194 97 306 -14 q 83 381 83 207 q 194 666 83 554 q 481 778 304 778 q 758 675 657 778 q 858 400 858 572 q 857 358 858 375 l 292 358 l 292 121 q 492 61 372 61 q 774 207 688 61 l 838 169 q 489 -14 731 -14 z "},"∂":{"ha":629,"x_min":79,"x_max":550,"o":"m 315 522 q 204 413 204 522 l 204 211 q 315 101 204 101 q 425 210 425 101 l 425 486 q 315 522 392 522 m 550 428 l 550 208 q 491 48 550 107 q 315 -11 432 -11 q 138 48 197 -11 q 79 208 79 107 l 79 415 q 130 569 79 514 q 274 624 181 624 q 406 579 367 624 q 193 940 356 771 l 347 940 q 486 719 422 857 q 550 428 550 582 z "},"∆":{"ha":657,"x_min":82,"x_max":592,"o":"m 407 940 l 592 0 l 82 0 l 267 940 l 407 940 m 336 782 l 214 114 l 460 114 l 336 782 z "},"∏":{"ha":674,"x_min":86,"x_max":586,"o":"m 86 940 l 586 940 l 586 0 l 457 0 l 457 826 l 215 826 l 215 0 l 86 0 l 86 940 z "},"∑":{"ha":547,"x_min":38,"x_max":504,"o":"m 38 940 l 504 940 l 504 831 l 176 831 l 342 471 l 176 110 l 504 110 l 504 0 l 38 0 l 38 107 l 207 471 l 38 833 l 38 940 z "},"−":{"ha":629,"x_min":56,"x_max":572,"o":"m 56 507 l 572 507 l 572 399 l 56 399 l 56 507 z "},"∕":{"ha":375,"x_min":-56,"x_max":431,"o":"m 339 940 l 431 940 l 36 0 l -56 0 l 339 940 z "},"∙":{"ha":244,"x_min":46,"x_max":197,"o":"m 122 394 q 84 394 122 394 q 46 470 46 394 q 122 546 46 546 q 197 470 197 546 q 122 394 197 394 z "},"√":{"ha":607,"x_min":43,"x_max":583,"o":"m 43 358 l 43 471 l 217 471 l 301 125 l 458 940 l 583 940 l 392 0 l 213 0 l 124 358 l 43 358 z "},"∞":{"ha":910,"x_min":58,"x_max":851,"o":"m 658 682 q 808 625 765 682 q 851 466 851 568 q 808 307 851 364 q 658 250 765 250 q 546 284 593 250 q 454 381 499 318 q 251 251 360 251 q 101 308 143 251 q 58 467 58 364 q 101 626 58 569 q 250 682 143 682 q 363 647 315 682 q 454 551 410 613 q 546 647 499 613 q 658 682 593 682 m 171 466 q 171 438 171 466 q 186 384 171 410 q 249 358 201 358 q 328 386 296 358 q 396 467 361 414 q 256 574 322 574 q 186 548 201 574 q 171 466 171 522 m 513 467 q 647 358 583 358 q 728 389 713 358 q 739 469 739 415 q 723 548 739 522 q 653 574 707 574 q 513 467 586 574 z "},"∫":{"ha":388,"x_min":19,"x_max":338,"o":"m 114 939 q 172 1092 114 1040 q 338 1142 231 1144 l 338 1029 q 266 1009 289 1029 q 243 942 243 989 l 243 3 q 185 -151 243 -99 q 19 -200 126 -203 l 19 -87 q 91 -67 68 -87 q 114 0 114 -47 l 114 939 z "},"≈":{"ha":704,"x_min":53,"x_max":651,"o":"m 651 625 q 578 495 651 528 q 421 501 506 463 l 278 558 q 191 568 226 583 q 165 496 156 553 l 57 496 q 53 547 53 521 q 126 676 53 643 q 283 671 199 710 l 426 614 q 514 603 481 588 q 538 676 547 619 l 646 676 q 651 625 651 653 m 651 386 q 578 256 651 289 q 421 263 506 224 l 278 319 q 191 329 226 344 q 165 257 156 314 l 57 257 q 53 308 53 282 q 126 438 53 404 q 283 432 199 471 l 426 375 q 514 365 481 349 q 538 438 547 381 l 646 438 q 651 386 651 414 z "},"≠":{"ha":638,"x_min":58,"x_max":575,"o":"m 575 528 l 401 528 l 340 378 l 575 378 l 575 271 l 297 271 l 242 133 l 138 133 l 193 271 l 58 271 l 58 378 l 236 378 l 297 528 l 58 528 l 58 636 l 342 636 l 399 776 l 503 776 l 446 636 l 575 636 l 575 528 z "},"≤":{"ha":638,"x_min":57,"x_max":572,"o":"m 572 767 l 572 651 l 164 507 l 572 361 l 572 246 l 57 443 l 57 569 l 572 767 m 57 104 l 57 213 l 572 213 l 572 104 l 57 104 z "},"≥":{"ha":638,"x_min":65,"x_max":581,"o":"m 65 767 l 581 569 l 581 443 l 65 246 l 65 361 l 474 507 l 65 651 l 65 767 m 65 104 l 65 213 l 581 213 l 581 104 l 65 104 z "},"◊":{"ha":597,"x_min":42,"x_max":557,"o":"m 428 399 l 299 704 l 171 399 l 299 92 l 428 399 m 218 797 l 379 797 l 557 399 l 379 0 l 218 0 l 42 399 l 218 797 z "},"◌":{"ha":917,"x_min":61,"x_max":856,"o":"m 374 733 q 366 742 374 733 q 357 778 357 750 q 374 822 357 806 q 418 839 392 839 q 462 822 444 839 q 479 778 479 806 q 462 733 479 750 q 418 717 444 717 q 374 733 392 717 m 594 696 q 581 696 594 696 q 550 714 568 696 q 532 758 532 732 q 549 801 532 783 q 594 819 567 819 q 638 802 621 819 q 654 758 654 785 q 637 714 654 732 q 594 696 619 696 m 681 619 q 673 627 681 619 q 664 663 664 636 q 681 707 664 689 q 725 725 699 725 q 769 708 751 725 q 786 663 786 690 q 769 619 786 636 q 725 601 751 601 q 681 619 699 601 m 750 455 q 742 464 750 455 q 733 499 733 472 q 750 542 733 525 q 794 560 767 560 q 838 542 821 560 q 856 499 856 525 q 838 455 856 472 q 794 438 821 438 q 750 455 767 438 m 738 269 q 728 277 738 269 q 719 313 719 286 q 738 357 719 339 q 781 375 756 375 q 824 357 807 375 q 842 313 842 339 q 824 269 842 286 q 781 251 807 251 q 738 269 756 251 m 635 133 q 627 141 635 133 q 618 176 618 150 q 635 220 618 203 q 679 238 653 238 q 724 220 706 238 q 742 176 742 203 q 724 133 742 150 q 679 115 706 115 q 635 133 653 115 m 467 58 q 458 67 467 58 q 450 103 450 75 q 467 147 450 131 q 511 164 483 164 q 556 147 539 164 q 574 103 574 129 q 556 59 574 76 q 511 42 539 42 q 467 58 483 42 m 336 61 q 323 61 336 61 q 292 79 310 61 q 274 124 274 97 q 292 168 274 150 q 336 186 310 186 q 380 168 363 186 q 397 124 397 150 q 380 79 397 97 q 336 61 363 61 m 150 185 q 142 194 150 185 q 133 229 133 203 q 151 273 133 256 q 194 290 168 290 q 238 273 221 290 q 256 229 256 256 q 238 185 256 203 q 194 168 221 168 q 150 185 167 168 m 78 347 q 70 356 78 347 q 61 390 61 364 q 78 435 61 417 q 122 453 96 453 q 166 435 149 453 q 183 391 183 418 q 166 347 183 364 q 122 331 149 331 q 78 347 96 331 m 97 522 q 88 530 97 522 q 79 565 79 539 q 97 609 79 592 q 142 626 115 626 q 186 609 168 626 q 204 565 204 592 q 186 522 204 539 q 142 504 168 504 q 97 522 115 504 m 254 656 q 241 656 254 656 q 210 673 228 656 q 193 717 193 690 q 210 762 193 744 q 254 779 228 779 q 298 762 281 779 q 315 717 315 744 q 298 673 315 690 q 254 656 281 656 z "},"":{"ha":486,"x_min":182,"x_max":304,"o":"m 264 -85 q 304 -125 304 -85 q 235 -267 304 -165 l 182 -267 l 218 -85 l 264 -85 z "},"ﬁ":{"ha":667,"x_min":35,"x_max":579,"o":"m 579 797 l 579 0 l 451 0 l 451 693 l 243 693 l 243 0 l 114 0 l 114 693 l 35 693 l 35 797 l 114 797 l 114 828 q 369 1032 114 1032 q 547 1013 464 1032 l 547 907 q 390 928 474 928 q 274 904 306 928 q 243 829 243 881 l 243 797 l 579 797 z "},"ﬂ":{"ha":667,"x_min":35,"x_max":579,"o":"m 579 1010 l 579 0 l 453 0 l 453 924 q 371 929 400 929 q 272 906 301 929 q 243 829 243 882 l 243 797 l 364 797 l 364 693 l 243 693 l 243 0 l 114 0 l 114 693 l 35 693 l 35 797 l 114 797 l 114 828 q 363 1032 114 1032 q 536 1010 454 1032 l 579 1010 z "}}}
